<?xml version="1.0" standalone="no"?>
<!DOCTYPE svg PUBLIC "-//W3C//DTD SVG 1.1//EN" "http://www.w3.org/Graphics/SVG/1.1/DTD/svg11.dtd" >
<svg xmlns="http://www.w3.org/2000/svg">
<metadata>
This is a custom SVG webfont generated by Fontspring.
</metadata>
<defs>
<font id="webfonteTwgye5u" horiz-adv-x="160" >
<font-face units-per-em="1000" ascent="769" descent="-231" />
<missing-glyph horiz-adv-x="234" />
<glyph unicode=" "  horiz-adv-x="234" />
<glyph unicode="&#x09;" horiz-adv-x="234" />
<glyph unicode="&#xa0;" horiz-adv-x="234" />
<glyph unicode="!" horiz-adv-x="194" d="M204 676h20l-95 -537h-20zM114 12q0 -17 -17 -17t-17 17t17 17t17 -17z" />
<glyph unicode="&#x22;" horiz-adv-x="332" d="M222 754h20l-43 -248h-20zM354 754h20l-43 -248h-20z" />
<glyph unicode="#" horiz-adv-x="630" d="M112 436l9 20h173l95 221h21l-95 -221h174l95 221h21l-95 -221h136l-9 -20h-136l-82 -195h168l-9 -20h-168l-93 -221h-21l93 221h-174l-93 -221h-21l93 221h-141l9 20h141l82 195h-173zM306 436l-82 -195h174l82 195h-174z" />
<glyph unicode="$" horiz-adv-x="500" d="M352 746h20l-10 -58l-1 -1q98 -5 156 -58l-13 -15q-53 50 -146 53l-56 -320l-1 -2q38 -20 59 -32.5t47.5 -34.5t38.5 -48t12 -58q0 -82 -57 -131t-162 -51l-14 -80h-20l14 79l1 1q-48 3 -94.5 25.5t-75.5 55.5l15 15q27 -31 70 -52.5t87 -23.5v-2l58 328l-1 -1 q-38 20 -59.5 33t-47.5 34.5t-38 48.5t-12 61q0 81 59.5 127t159.5 48v-2zM438 172q0 51 -35.5 84t-104.5 69l-55 -313l-1 -2q94 2 145 46t51 116zM142 512q0 -54 36.5 -88.5t104.5 -69.5l55 313q-90 -2 -143 -43t-53 -112z" />
<glyph unicode="%" horiz-adv-x="615" d="M380 568q0 44 -28 69.5t-69 25.5q-56 0 -93 -42.5t-37 -96.5q0 -44 28 -69.5t69 -25.5q54 0 92 43t38 96zM399 569q0 -61 -43.5 -110t-106.5 -49q-48 0 -81.5 31t-33.5 82q0 62 42.5 110.5t106.5 48.5q49 0 82.5 -30t33.5 -83zM586 677h22l-460 -677h-22zM581 151 q0 44 -28 69.5t-69 25.5q-56 0 -93 -42.5t-37 -96.5q0 -44 28 -69.5t69 -25.5q54 0 92 43t38 96zM600 152q0 -61 -43.5 -110t-106.5 -49q-48 0 -81.5 31t-33.5 82q0 62 42.5 110.5t106.5 48.5q49 0 82.5 -30t33.5 -83z" />
<glyph unicode="&#x26;" horiz-adv-x="639" d="M599 6l-14 -14l-95 94q-113 -96 -214 -96q-103 0 -150 45.5t-47 110.5q0 70 50.5 114t138.5 80q-68 86 -68 173q0 76 53 125t140 49q69 0 117 -37t48 -104q0 -31 -12.5 -57t-31 -45t-56 -40t-70.5 -35l-89 -37h1q99 -121 191 -218q89 81 147 193l18 -10 q-58 -114 -151 -198q51 -53 94 -93zM276 10q94 0 200 91q-105 111 -196 224q-42 -17 -70 -31.5t-55.5 -36t-41.5 -49.5t-14 -62q0 -56 42.5 -96t134.5 -40zM220 513q0 -81 67 -165h1l85 34q30 13 67 33t54.5 37t30.5 41.5t13 52.5q0 58 -42.5 89.5t-102.5 31.5 q-78 0 -125.5 -43.5t-47.5 -110.5z" />
<glyph unicode="'" horiz-adv-x="200" d="M222 754h20l-43 -249h-20z" />
<glyph unicode="(" horiz-adv-x="212" d="M306 755q-96 -110 -153 -281t-57 -351q0 -163 45 -295h-21q-44 139 -44 295q0 179 53 345.5t152 286.5h25z" />
<glyph unicode=")" horiz-adv-x="212" d="M17 -172q96 110 153 281t57 351q0 163 -45 295h21q44 -139 44 -295q0 -179 -53 -345.5t-152 -286.5h-25z" />
<glyph unicode="*" horiz-adv-x="482" d="M538 432l-13 -16l-122 109l-9 9h-1l-1 -12l-30 -171h-22l32 174l3 12h-1l-11 -5l-151 -61l-7 20l152 59l13 4v1l-10 8l-124 108l13 16l122 -109l9 -9h1l1 12l30 171h21l-31 -174l-3 -12h1l11 5l151 61l7 -20l-152 -59l-13 -4v-1l10 -8z" />
<glyph unicode="+" horiz-adv-x="630" d="M113 251l3 20h236l44 247h20l-44 -247h236l-3 -20h-236l-44 -247h-20l44 247h-236z" />
<glyph unicode="," horiz-adv-x="187" d="M101 29h21l-90 -213h-21z" />
<glyph unicode="-" horiz-adv-x="257" d="M63 251l3 20h215l-3 -20h-215z" />
<glyph unicode="." horiz-adv-x="194" d="M114 12q0 -17 -17 -17t-17 17t17 17t17 -17z" />
<glyph unicode="/" horiz-adv-x="361" d="M483 755h23l-509 -833h-23z" />
<glyph unicode="0" horiz-adv-x="538" d="M555 288q0 -116 -78.5 -207t-196.5 -91q-89 0 -149 57.5t-60 155.5q0 116 76.5 206t195.5 90q90 0 151 -56.5t61 -154.5zM535 288q0 90 -55 140.5t-137 50.5q-111 0 -181.5 -84t-70.5 -192q0 -89 54 -141t135 -52q110 0 182.5 85t72.5 193z" />
<glyph unicode="1" horiz-adv-x="239" d="M142 0h-20l83 469h-122l4 20h142z" />
<glyph unicode="2" horiz-adv-x="430" d="M444 377q0 -19 -6 -38q-36 -114 -253 -251q-36 -24 -118 -68h342l-4 -20h-383l4 17q30 16 94 54q265 159 299 273q5 18 5 33q0 48 -33.5 77.5t-89.5 29.5q-79 0 -168 -47l-7 19q88 48 175 48q67 0 105 -34.5t38 -92.5z" />
<glyph unicode="3" horiz-adv-x="392" d="M3 -149l3 20q13 -1 36 -1q150 0 228 56.5t78 150.5q0 44 -29.5 76.5t-84.5 32.5h-1l-102 -4l3 20l98 4q64 2 109 50.5t45 101.5q0 62 -39.5 91.5t-100.5 29.5q-78 0 -146 -28l-6 18q70 30 152 30q70 0 114.5 -34t45.5 -107q0 -53 -38 -99t-91 -61q42 -10 66.5 -43.5 t24.5 -77.5q0 -103 -83.5 -165t-242.5 -62q-26 0 -39 1z" />
<glyph unicode="4" horiz-adv-x="523" d="M340 -163h-20l29 163h-319l3 17l388 472h35l-84 -469h131l-4 -20h-130zM62 20h290l80 451z" />
<glyph unicode="5" horiz-adv-x="390" d="M436 489l-4 -20h-274l-70 -249h48q227 0 227 -138q0 -78 -91.5 -148.5t-266.5 -97.5l-2 20q167 25 253.5 90t86.5 136q0 118 -207 118h-76l82 289h294z" />
<glyph unicode="6" horiz-adv-x="486" d="M496 670l6 -20q-143 -40 -237 -126.5t-137 -191.5q-12 -30 -21 -59q27 58 80.5 93.5t121.5 35.5q85 0 129.5 -49.5t44.5 -121.5q0 -91 -66 -166t-170 -75q-72 0 -121 49t-49 143q0 49 14.5 103t47 112.5t79.5 110t119 95t159 67.5zM304 382q-55 0 -106.5 -32t-79.5 -87 q-21 -42 -21 -81q0 -84 43.5 -128t106.5 -44q94 0 155 69t61 152q0 63 -41 107t-118 44z" />
<glyph unicode="7" horiz-adv-x="434" d="M53 -168l-16 10l411 627h-353l4 20h377l-3 -17z" />
<glyph unicode="8" horiz-adv-x="496" d="M143 485q0 85 61 138.5t152 53.5q75 0 123.5 -41.5t48.5 -115.5q0 -60 -42 -111.5t-117 -65.5q59 -16 89.5 -56t30.5 -91q0 -80 -63 -143t-165 -63q-97 0 -146 47t-49 114q0 68 49 125t131 72q-51 15 -77 52t-26 85zM261 10q94 0 151 57t57 129q0 58 -43.5 98.5 t-128.5 40.5q-94 0 -152.5 -56.5t-58.5 -127.5q0 -58 44.5 -99.5t130.5 -41.5zM508 519q0 62 -41 100t-111 38q-80 0 -136.5 -47t-56.5 -126q0 -55 39 -92.5t116 -37.5q87 0 138.5 51.5t51.5 113.5z" />
<glyph unicode="9" horiz-adv-x="487" d="M75 -180l-6 20q143 40 237 126.5t137 191.5q12 30 21 59q-27 -58 -80.5 -93.5t-122.5 -35.5q-84 0 -128.5 49.5t-44.5 121.5q0 91 66 166t170 75q72 0 121 -49t49 -143q0 -49 -14.5 -103t-47 -112.5t-79.5 -110t-119 -95t-159 -67.5zM267 108q55 0 106.5 32t79.5 87 q21 42 21 81q0 84 -43.5 128t-106.5 44q-94 0 -155 -69t-61 -152q0 -63 41 -107t118 -44z" />
<glyph unicode=":" horiz-adv-x="194" d="M191 452q0 -17 -17 -17t-17 17t17 17t17 -17zM114 12q0 -17 -17 -17t-17 17t17 17t17 -17z" />
<glyph unicode=";" horiz-adv-x="194" d="M100 29h21l-91 -212h-21zM191 452q0 -17 -17 -17t-17 17t17 17t17 -17z" />
<glyph unicode="&#x3c;" horiz-adv-x="630" d="M551 48l-4 -20l-412 194l5 26l480 193l-4 -22l-460 -185z" />
<glyph unicode="=" horiz-adv-x="630" d="M128 346l4 20h491l-4 -20h-491zM95 158l4 20h491l-4 -20h-491z" />
<glyph unicode="&#x3e;" horiz-adv-x="630" d="M160 421l4 20l412 -194l-5 -26l-480 -193l4 22l460 185z" />
<glyph unicode="?" horiz-adv-x="437" d="M219 128h-21q25 106 74 161q31 36 93 87q36 30 56.5 50t38 51t17.5 63q0 61 -40.5 94t-106.5 33q-81 0 -169 -58l-10 16q92 62 179 62q75 0 121 -38.5t46 -108.5q0 -28 -8.5 -52t-28.5 -48t-35.5 -38.5t-47.5 -41.5q-57 -47 -89 -84q-42 -48 -69 -148zM207 12 q0 -17 -17 -17t-17 17t17 17t17 -17z" />
<glyph unicode="@" horiz-adv-x="810" d="M821 383q0 -111 -64 -183t-122 -72q-90 0 -90 74q0 18 7 37q-99 -111 -177 -111q-48 0 -73.5 32t-25.5 83q0 100 78.5 180t184.5 80q62 0 116 -22l-75 -217q-15 -45 -15 -62q0 -54 70 -54q52 0 109 66t57 169q0 53 -17.5 102.5t-52 90.5t-94 66t-135.5 25q-88 0 -159 -31 t-114.5 -83t-67 -116t-23.5 -133q0 -91 37 -168.5t116.5 -129t188.5 -51.5q73 0 129.5 17t115.5 54l10 -16q-118 -75 -255 -75q-87 0 -157.5 31.5t-114.5 83.5t-67 117.5t-23 136.5q0 73 24.5 140.5t70.5 122t121 87.5t168 33q81 0 144.5 -26.5t100.5 -71t55.5 -97 t18.5 -109.5zM375 148q78 0 190 131l65 191q-46 13 -91 13q-99 0 -171 -73.5t-72 -166.5q0 -42 20.5 -68.5t58.5 -26.5z" />
<glyph unicode="A" horiz-adv-x="531" d="M371 677h29l131 -677h-20l-48 246h-306l-134 -246h-23zM383 659l-216 -393h291z" />
<glyph unicode="B" horiz-adv-x="482" d="M70 0l119 678h145q84 0 128.5 -46t44.5 -110q0 -71 -45 -117.5t-115 -63.5q61 -11 93 -52t32 -95q0 -88 -66.5 -141t-154.5 -53h-181zM299 329h-151l-54 -309h157q80 0 140.5 47t60.5 127q0 56 -39.5 95.5t-113.5 39.5zM152 349h146q65 0 127 48.5t62 124.5 q0 56 -39.5 96t-113.5 40h-127z" />
<glyph unicode="C" horiz-adv-x="510" d="M572 646l-9 -16q-53 37 -133 37q-72 0 -134 -36.5t-101.5 -95.5t-62 -131.5t-22.5 -146.5q0 -112 54.5 -179.5t163.5 -67.5q67 0 149 43l8 -18q-84 -45 -157 -45q-119 0 -178.5 73t-59.5 194q0 105 40 202.5t119.5 162.5t180.5 65q82 0 142 -41z" />
<glyph unicode="D" horiz-adv-x="571" d="M593 404q0 -104 -44 -195.5t-130.5 -150t-197.5 -58.5h-151l119 677h108q82 0 142.5 -24t92.5 -65t46.5 -86.5t14.5 -97.5zM573 404q0 48 -13.5 90t-43.5 80t-86 60.5t-133 22.5h-90l-113 -637h127q105 0 187 56t123.5 142.5t41.5 185.5z" />
<glyph unicode="E" horiz-adv-x="452" d="M439 348l-4 -20h-288l-54 -308h327l-3 -20h-347l119 677h340l-4 -20h-320l-54 -309h288z" />
<glyph unicode="F" horiz-adv-x="437" d="M438 341l-4 -20h-288l-56 -321h-20l119 677h340l-4 -20h-320l-55 -316h288z" />
<glyph unicode="G" horiz-adv-x="594" d="M592 646l-9 -16q-53 37 -148 37q-96 0 -172 -62t-114.5 -155t-38.5 -193q0 -111 56.5 -179t166.5 -68q89 0 179 50l51 278h21l-53 -289q-40 -26 -95 -42.5t-103 -16.5q-119 0 -181 73t-62 194q0 62 15.5 124t45.5 116.5t71 97t96.5 67.5t116.5 25q97 0 157 -41z" />
<glyph unicode="H" horiz-adv-x="577" d="M606 677h20l-119 -677h-20l58 328h-397l-58 -328h-20l119 677h20l-58 -329h397z" />
<glyph unicode="I" d="M90 0h-20l119 677h20z" />
<glyph unicode="J" horiz-adv-x="381" d="M36 39l12 16q57 -45 125 -45q59 0 100 42.5t55 120.5l91 504h21l-92 -508q-16 -89 -61.5 -134t-113.5 -45q-74 0 -137 49z" />
<glyph unicode="K" horiz-adv-x="461" d="M448 0h-25l-255 350l362 327h29l-365 -329zM90 0h-20l119 677h20z" />
<glyph unicode="L" horiz-adv-x="397" d="M387 20l-3 -20h-314l119 677h21l-116 -657h293z" />
<glyph unicode="M" horiz-adv-x="692" d="M380 184h-17l-158 472l-115 -656h-20l119 677h30l156 -466l331 466h35l-119 -677h-20l116 659z" />
<glyph unicode="N" horiz-adv-x="595" d="M525 0h-28l-291 658l-116 -658h-20l119 677h30l290 -655l115 655h20z" />
<glyph unicode="O" horiz-adv-x="637" d="M90 267q0 98 28.5 179t75 132.5t104.5 79.5t120 28q99 0 170 -71t71 -203q0 -191 -100.5 -307t-234.5 -116q-97 0 -165.5 71t-68.5 207zM110 267q0 -126 62.5 -192t151.5 -66q59 0 115 27.5t101 77.5t72 127.5t27 170.5q0 122 -65 188t-156 66q-58 0 -112.5 -26.5 t-98.5 -75.5t-70.5 -126t-26.5 -171z" />
<glyph unicode="P" horiz-adv-x="457" d="M273 292h-132l-51 -292h-20l118 678h131q87 0 138.5 -45.5t51.5 -118.5q0 -91 -68.5 -156.5t-167.5 -65.5zM206 658l-61 -346h128q91 0 153.5 59.5t62.5 142.5q0 64 -46 104t-124 40h-113z" />
<glyph unicode="Q" horiz-adv-x="637" d="M90 267q0 98 28.5 179t75 132.5t104.5 79.5t120 28q99 0 170 -71t71 -203q0 -206 -120 -328l72 -82l-16 -14l-71 81q-91 -80 -200 -80q-97 0 -165.5 71t-68.5 207zM421 188l16 14l89 -103q113 116 113 313q0 122 -65 188t-156 66q-58 0 -112.5 -26.5t-98.5 -75.5 t-70.5 -126t-26.5 -171q0 -126 62.5 -192t151.5 -66q103 0 187 75z" />
<glyph unicode="R" horiz-adv-x="467" d="M416 0h-21l-125 304h-127l-53 -304h-20l118 677h137q85 0 133.5 -50.5t48.5 -121.5q0 -77 -56.5 -136t-159.5 -65zM206 657l-59 -333h124q103 0 159.5 54.5t56.5 126.5q0 62 -43 107t-119 45h-119z" />
<glyph unicode="S" horiz-adv-x="441" d="M496 630l-12 -16q-66 52 -154 52q-77 0 -131 -42t-54 -113q0 -47 29.5 -82.5t71.5 -59.5l82 -48q42 -24 71.5 -62.5t29.5 -88.5q0 -84 -56 -131.5t-138 -47.5q-111 0 -194 80l14 14q77 -74 180 -74q73 0 123.5 42.5t50.5 116.5q0 46 -29.5 81t-71.5 59l-82 48 q-42 25 -71.5 63.5t-29.5 89.5q0 79 60 127t145 48q92 0 166 -56z" />
<glyph unicode="T" horiz-adv-x="486" d="M253 0h-20l115 657h-224l4 20h468l-4 -20h-224z" />
<glyph unicode="U" horiz-adv-x="593" d="M188 677h20l-72 -402q-10 -54 -10 -80q0 -80 46.5 -132.5t132.5 -52.5q84 0 153 60t88 168l76 439h20l-76 -443q-20 -117 -94.5 -180.5t-166.5 -63.5q-93 0 -146.5 58t-53.5 146q0 23 11 85z" />
<glyph unicode="V" horiz-adv-x="511" d="M257 18l355 659h21l-365 -677h-28l-126 677h20z" />
<glyph unicode="W" horiz-adv-x="793" d="M501 677h27l77 -651l288 651h21l-300 -677h-25l-78 654l-309 -654h-26l-61 677h21l57 -652z" />
<glyph unicode="X" horiz-adv-x="522" d="M589 677h26l-281 -337h-1l165 -340h-22l-158 325l1 -3l-269 -322h-26l285 341l1 1l-163 335h23l154 -318z" />
<glyph unicode="Y" horiz-adv-x="487" d="M117 677h21l155 -375l283 375h25l-301 -397l-49 -280h-20l49 282z" />
<glyph unicode="Z" horiz-adv-x="490" d="M464 20l-4 -20h-421l3 17l488 640h-377l4 20h403l-3 -17l-488 -640h395z" />
<glyph unicode="[" horiz-adv-x="257" d="M339 756l-4 -20h-135l-156 -888h135l-4 -20h-155l164 928h155z" />
<glyph unicode="\" horiz-adv-x="357" d="M336 -78l-217 833h20l217 -833h-20z" />
<glyph unicode="]" horiz-adv-x="240" d="M3 -172l4 20h135l156 888h-135l4 20h155l-164 -928h-155z" />
<glyph unicode="^" horiz-adv-x="554" d="M549 229h-23l-139 419l-283 -419h-22l303 448h16z" />
<glyph unicode="_" horiz-adv-x="573" d="M-19 -117l2 20h573l-3 -20h-572z" />
<glyph unicode="`" horiz-adv-x="538" d="M302 709h23l63 -155h-21z" />
<glyph unicode="a" horiz-adv-x="456" d="M446 357q0 -32 -7 -74l-50 -283h-20l18 100q-63 -110 -199 -110q-64 0 -100 34t-36 83q0 180 367 184l1 6q6 32 6 60q0 40 -11 66.5t-32 37.5t-38.5 14.5t-42.5 3.5q-70 0 -154 -35l-5 19q86 36 159 36q22 0 39 -2t37.5 -11t34.5 -23.5t23.5 -41.5t9.5 -64zM416 271 q-344 -4 -344 -164q0 -41 31.5 -69t87.5 -28q78 0 137.5 47t73.5 130z" />
<glyph unicode="b" horiz-adv-x="498" d="M511 306q0 -133 -74.5 -224.5t-181.5 -91.5q-65 0 -107 43.5t-42 125.5q0 41 8 89l91 507h20l-72 -400q36 66 93.5 104.5t115.5 38.5q65 0 107 -48.5t42 -143.5zM491 306q0 85 -36.5 128.5t-92.5 43.5q-73 0 -141.5 -63.5t-85.5 -164.5l-1 -6q-8 -51 -8 -85 q0 -72 36.5 -110.5t92.5 -38.5q104 0 170 89.5t66 206.5z" />
<glyph unicode="c" horiz-adv-x="410" d="M455 469l-8 -18q-56 27 -98 27q-72 0 -131 -43.5t-89.5 -108t-30.5 -132.5q0 -92 41 -138t112 -46q59 0 137 32l8 -18q-78 -34 -145 -34q-80 0 -126.5 51t-46.5 153q0 114 77.5 209t193.5 95q50 0 106 -29z" />
<glyph unicode="d" horiz-adv-x="491" d="M552 755l-133 -755h-20l21 115q-32 -61 -82.5 -92.5t-103.5 -31.5q-67 0 -111.5 49.5t-44.5 142.5q0 142 87.5 229t212.5 87q50 0 106 -18l48 274h20zM480 462q-51 17 -102 17q-117 0 -198.5 -81t-81.5 -215q0 -84 39 -128t97 -44q52 0 99 33q83 57 104 175z" />
<glyph unicode="e" horiz-adv-x="473" d="M475 250h-372q-5 -37 -5 -68q0 -87 43 -129.5t111 -42.5q89 0 166 58l12 -16q-83 -62 -178 -62q-76 0 -125 47.5t-49 144.5q0 75 23.5 136.5t61 100t81.5 59t89 20.5q66 0 109.5 -43t43.5 -123q0 -32 -11 -82zM333 478q-72 0 -137.5 -55.5t-88.5 -152.5h352q7 31 7 62 q0 70 -38 108t-95 38z" />
<glyph unicode="f" horiz-adv-x="256" d="M391 755l-4 -20q-12 2 -18 2q-55 0 -93 -40t-51 -113l-17 -96l1 1h128l-4 -20h-128v1l-83 -470h-20l82 469h-86l4 20h85v-2l18 101q14 78 58.5 123.5t105.5 45.5q10 0 22 -2z" />
<glyph unicode="g" horiz-adv-x="489" d="M503 476l-76 -432q-21 -117 -74.5 -172.5t-143.5 -55.5q-54 0 -128 26l6 18q72 -24 122 -24q82 0 130.5 50.5t68.5 161.5l12 67q-32 -61 -82.5 -92.5t-103.5 -31.5q-67 0 -111.5 49.5t-44.5 142.5q0 142 87.5 229t212.5 87q58 0 125 -23zM437 219l43 243q-51 17 -102 17 q-117 0 -198.5 -81t-81.5 -215q0 -84 39 -128t97 -44q68 0 127 55.5t76 152.5z" />
<glyph unicode="h" horiz-adv-x="487" d="M485 344q0 -33 -10 -95l-44 -249h-20l44 253q10 54 10 91q0 64 -38 99.5t-95 35.5q-68 0 -122 -50t-70 -145l-50 -284h-20l133 755h20l-65 -370q63 114 174 114q65 0 109 -41.5t44 -113.5z" />
<glyph unicode="i" d="M90 0h-20l86 489h20zM215 667q0 -17 -17 -17t-17 17t17 17t17 -17z" />
<glyph unicode="j" d="M-86 -173l4 20q16 -4 32 -4q90 0 114 135l91 511h20l-91 -515q-28 -151 -134 -151q-20 0 -36 4zM215 667q0 -17 -17 -17t-17 17t17 17t17 -17z" />
<glyph unicode="k" horiz-adv-x="388" d="M376 0h-26l-205 255l283 234h32l-289 -236zM90 0h-20l133 755h20z" />
<glyph unicode="l" d="M90 0h-20l132 755h20z" />
<glyph unicode="m" horiz-adv-x="801" d="M801 344q0 -33 -10 -95l-44 -249h-20l44 253q10 56 10 91q0 63 -35.5 99t-87.5 36q-67 0 -119 -45t-67 -131l-53 -303h-20l49 283q6 33 6 59q0 67 -32 102t-92 35q-66 0 -120.5 -56.5t-67.5 -130.5l-52 -292h-20l86 489h20l-19 -108q30 55 75.5 86.5t97.5 31.5 q62 0 99.5 -34t41.5 -96q26 64 75.5 97t111.5 33q60 0 101.5 -41t41.5 -114z" />
<glyph unicode="n" horiz-adv-x="486" d="M140 284l-50 -284h-20l86 489h20l-18 -104q63 114 176 114q65 0 108.5 -41.5t43.5 -113.5q0 -33 -10 -95l-44 -249h-20l44 253q10 54 10 91q0 64 -37.5 99.5t-94.5 35.5q-68 0 -123 -50t-71 -145z" />
<glyph unicode="o" horiz-adv-x="500" d="M339 497q79 0 126.5 -57t47.5 -141q0 -72 -30.5 -141.5t-93 -118t-140.5 -48.5q-80 0 -125.5 57t-45.5 142q0 116 73 211.5t188 95.5zM339 477q-72 0 -128.5 -44.5t-84.5 -109t-28 -133.5q0 -77 40 -128t111 -51q73 0 130.5 45.5t85.5 110.5t28 132q0 76 -41.5 127 t-112.5 51z" />
<glyph unicode="p" horiz-adv-x="491" d="M156 489h20l-21 -115q32 61 82.5 92.5t103.5 31.5q67 0 111.5 -49.5t44.5 -142.5q0 -142 -87.5 -229t-212.5 -87q-51 0 -106 18l-32 -181h-20zM138 270l-43 -243q51 -17 102 -17q117 0 198.5 81t81.5 215q0 84 -39 128t-97 44q-68 0 -127 -55.5t-76 -152.5z" />
<glyph unicode="q" horiz-adv-x="491" d="M437 219l43 243q-51 17 -102 17q-117 0 -198.5 -81t-81.5 -215q0 -84 39 -128t97 -44q68 0 127 55.5t76 152.5zM369 -172l51 287q-32 -61 -82.5 -92.5t-103.5 -31.5q-67 0 -111.5 49.5t-44.5 142.5q0 142 87.5 229t212.5 87q58 0 125 -23l-114 -648h-20z" />
<glyph unicode="r" horiz-adv-x="267" d="M146 489h20l-21 -117q32 56 82.5 88.5t105.5 36.5l-4 -21q-70 -8 -128 -61t-72 -137l-49 -278h-20z" />
<glyph unicode="s" horiz-adv-x="377" d="M415 459l-10 -17q-55 36 -133 36q-63 0 -106.5 -28.5t-43.5 -80.5q0 -20 9.5 -37.5t29.5 -32t36 -24t44 -22.5q33 -16 48.5 -25t38 -25.5t32 -36t9.5 -43.5q0 -64 -48.5 -98t-117.5 -34q-101 0 -158 59l14 14q53 -53 144 -53q61 0 103.5 29t42.5 83q0 27 -19.5 49.5 t-38 33t-58.5 29.5q-32 15 -49 24.5t-39.5 26.5t-32.5 37.5t-10 45.5q0 62 49 95.5t121 33.5q82 0 143 -39z" />
<glyph unicode="t" horiz-adv-x="251" d="M335 489l-4 -20h-125l-82 -469h-20l82 469h-86l4 20h86l33 188h20l-33 -188h125z" />
<glyph unicode="u" horiz-adv-x="488" d="M151 489h21l-51 -279q-6 -33 -6 -64q0 -136 134 -136q161 0 195 191l51 288h20l-51 -292q-36 -207 -215 -207q-80 0 -117.5 41.5t-37.5 114.5q0 26 7 68z" />
<glyph unicode="v" horiz-adv-x="396" d="M96 489h21l89 -466l253 466h23l-266 -489h-26z" />
<glyph unicode="w" horiz-adv-x="726" d="M106 489h20l67 -468l245 468h26l73 -469l232 469h22l-244 -489h-25l-74 467l-246 -467h-25z" />
<glyph unicode="x" horiz-adv-x="427" d="M104 489h24l133 -226l212 226h27l-228 -243h-1l145 -246h-24l-135 229v1l-216 -230h-27l232 247l1 -1z" />
<glyph unicode="y" horiz-adv-x="427" d="M91 489h21l112 -460l262 460h22l-377 -661h-23l102 178z" />
<glyph unicode="z" horiz-adv-x="404" d="M368 20l-3 -20h-335l3 19l386 450h-299l4 20h324l-3 -19l-385 -450h308z" />
<glyph unicode="{" horiz-adv-x="200" d="M162 -150l-4 -20h-26q-62 0 -62 59q0 5 2 23l50 279q4 28 4 37q0 42 -25 65q25 17 37 39.5t20 63.5l50 285q7 40 31 57t70 17h13l-4 -20h-13q-35 0 -53.5 -12.5t-24.5 -45.5l-49 -281q-8 -43 -18.5 -64.5t-34.5 -39.5q20 -26 20 -65q0 -17 -3 -36l-52 -288q-1 -5 -1 -14 q0 -39 47 -39h26z" />
<glyph unicode="|" horiz-adv-x="242" d="M117 -77h-20l146 830h20z" />
<glyph unicode="}" horiz-adv-x="200" d="M140 735l4 20h26q62 0 62 -59q0 -5 -2 -23l-50 -285q-4 -28 -4 -37q0 -42 25 -65q-25 -17 -37 -39.5t-20 -63.5l-50 -280q-7 -40 -31 -57t-70 -17h-13l4 20h13q35 0 53.5 12.5t24.5 45.5l49 276q8 43 18.5 64.5t34.5 39.5q-20 26 -20 65q0 16 3 36l52 294q1 5 1 14 q0 39 -47 39h-26z" />
<glyph unicode="~" horiz-adv-x="573" d="M535 317l13 -13q-62 -73 -112 -73q-37 0 -95.5 36t-97.5 36q-35 0 -69 -23t-57 -58l-17 10q27 40 66 65.5t80 25.5q46 0 111 -40q54 -32 83 -32q38 0 95 66z" />
<glyph unicode="&#xa1;" horiz-adv-x="194" d="M71 -172h-20l95 540h20zM160 485q0 17 17 17t17 -17t-17 -17t-17 17z" />
<glyph unicode="&#xa2;" horiz-adv-x="412" d="M457 469l-8 -18q-52 24 -97 27l-83 -468q47 1 121 32l8 -18q-74 -33 -133 -34v-2l-14 -80h-21l15 84l-1 -2q-76 5 -121 56t-45 148q0 72 30.5 139.5t90.5 114.5t135 50v-1l16 89h21l-16 -88q49 -3 102 -29zM98 194q0 -86 41.5 -132.5t108.5 -51.5l83 468q-69 -3 -124 -47 t-82 -107t-27 -130z" />
<glyph unicode="&#xa3;" horiz-adv-x="500" d="M393 317l-3 -20h-209q-48 -149 -104 -277h376l-3 -20h-404q60 131 114 297h-83l3 20h85l64 198q29 91 72 132.5t132 41.5q67 0 129 -31l-11 -18q-60 29 -119 29q-80 0 -117.5 -36.5t-64.5 -119.5l-64 -196h207z" />
<glyph unicode="&#xa4;" horiz-adv-x="699" d="M425 277q0 -86 -63 -151l81 -100l-16 -12l-80 98q-53 -45 -120 -45q-69 0 -112 45l-117 -100l-14 16l117 101q-25 36 -25 87q0 88 62 152l-77 95l16 12l76 -93q53 43 119 43q74 0 117 -48l116 100l14 -16l-117 -101q23 -36 23 -83zM405 277q0 60 -38.5 94t-94.5 34 q-76 0 -126 -57.5t-50 -131.5q0 -59 38 -94t93 -35q75 0 126.5 58.5t51.5 131.5z" />
<glyph unicode="&#xa5;" horiz-adv-x="564" d="M613 677h24l-272 -348h179l-4 -20h-192l-20 -112h192l-3 -20h-192l-31 -177h-20l31 177h-194l3 20h194l20 112h-194l4 20h180l-156 348h24l156 -348z" />
<glyph unicode="&#xa6;" horiz-adv-x="241" d="M206 426h-20l58 329h20zM155 253h20l-58 -330h-20z" />
<glyph unicode="&#xa7;" horiz-adv-x="573" d="M134 302q0 55 36.5 98.5t103.5 89.5q-54 47 -54 108q0 66 53 107.5t129 41.5q89 0 156 -39l-10 -17q-67 36 -146 36q-64 0 -113 -33t-49 -96q0 -58 55 -100q21 -16 92 -56q34 -19 54 -31.5t43.5 -34t34.5 -48.5t11 -61q0 -57 -36 -101t-101 -88q53 -48 53 -107 q0 -70 -54 -110t-130 -40q-96 0 -153 39l10 17q55 -36 143 -36q66 0 115 33t49 97q0 59 -62 105q-25 19 -76 46q-37 19 -57.5 32t-46.5 35.5t-38 50t-12 62.5zM299 139q47 -27 78 -48q60 38 96.5 79t36.5 97q0 30 -11.5 54.5t-36.5 46t-43.5 33t-53.5 31.5q-42 23 -76 46 q-30 -20 -47.5 -34t-41 -37t-35 -49.5t-11.5 -55.5q0 -30 11 -54.5t36 -45.5t43 -32t55 -31z" />
<glyph unicode="&#xa8;" horiz-adv-x="538" d="M276 667q0 17 17 17t17 -17t-17 -17t-17 17zM469 667q0 17 17 17t17 -17t-17 -17t-17 17z" />
<glyph unicode="&#xa9;" horiz-adv-x="799" d="M579 550l-10 -16q-49 31 -111 31q-96 0 -154.5 -71.5t-58.5 -165.5q0 -96 58.5 -158t155.5 -62q63 0 110 28l10 -18q-49 -30 -120 -30q-106 0 -170 67.5t-64 172.5q0 101 64.5 179t168.5 78q67 0 121 -35zM808 339q0 -67 -22.5 -128.5t-65 -111.5t-111 -80t-153.5 -30 q-112 0 -194.5 52t-120.5 130t-38 168q0 66 22.5 127.5t64.5 111t111 79t155 29.5q85 0 154 -29.5t111 -79t64.5 -111t22.5 -127.5zM788 339q0 62 -21 120t-61 104.5t-105 74.5t-145 28q-81 0 -146 -28t-105 -74.5t-61 -104.5t-21 -120q0 -85 36 -158.5t113.5 -122.5 t183.5 -49q156 0 244 98.5t88 231.5z" />
<glyph unicode="&#xaa;" horiz-adv-x="386" d="M215 708l-8 18q65 25 111 25q20 0 35 -3t32 -12.5t26.5 -31.5t9.5 -55q0 -19 -5 -51l-35 -197h-22l10 57q-46 -65 -130 -65q-46 0 -71.5 24t-25.5 60q0 126 255 130q4 32 4 42q0 27 -7.5 44.5t-21.5 25t-26 10t-28 2.5q-48 0 -103 -23zM239 413q51 0 91.5 29t49.5 78 l13 67q-231 -4 -231 -110q0 -27 20.5 -45.5t56.5 -18.5z" />
<glyph unicode="&#xab;" horiz-adv-x="458" d="M245 71l-18 -10l-133 204l205 204l14 -14l-193 -192zM398 71l-18 -10l-133 204l205 204l14 -14l-193 -192z" />
<glyph unicode="&#xac;" horiz-adv-x="630" d="M561 53h-20l38 218h-461l4 20h481z" />
<glyph unicode="&#xad;" horiz-adv-x="257" d="M63 251l3 20h215l-3 -20h-215z" />
<glyph unicode="&#xae;" horiz-adv-x="799" d="M800 339q0 -67 -22.5 -128.5t-65 -111.5t-111 -80t-153.5 -30q-112 0 -194.5 52t-120.5 130t-38 168q0 66 22.5 127.5t64.5 111t111 79t155 29.5q85 0 154 -29.5t111 -79t64.5 -111t22.5 -127.5zM780 339q0 62 -21 120t-61 104.5t-105 74.5t-145 28q-81 0 -146 -28 t-105 -74.5t-61 -104.5t-21 -120q0 -85 36 -158.5t113.5 -122.5t183.5 -49q156 0 244 98.5t88 231.5zM614 108h-23l-109 189h-145v-189h-20v472h142q76 0 116 -36.5t40 -100.5q0 -49 -28.5 -89.5t-84.5 -53.5q50 -80 112 -192zM337 560v-243h150q39 0 73.5 37t34.5 89 q0 54 -35 85.5t-101 31.5h-122z" />
<glyph unicode="&#xaf;" horiz-adv-x="298" d="M138 627l4 20h241l-4 -20h-241z" />
<glyph unicode="&#xb0;" horiz-adv-x="375" d="M389 543q0 -63 -40.5 -98t-94.5 -35t-93.5 35.5t-39.5 97.5t39.5 97.5t93.5 35.5t94.5 -35.5t40.5 -97.5zM369 543q0 52 -34.5 82.5t-80.5 30.5q-45 0 -79 -30t-34 -83t34 -83t79 -30q46 0 80.5 30t34.5 83z" />
<glyph unicode="&#xb1;" horiz-adv-x="630" d="M68 0l3 20h492l-3 -20h-492zM124 320l3 20h236l44 247h20l-44 -247h236l-3 -20h-236l-44 -247h-20l44 247h-236z" />
<glyph unicode="&#xb2;" horiz-adv-x="356" d="M130 686l-12 16q67 52 136 52q47 0 76.5 -27.5t29.5 -76.5q0 -46 -25 -91q-26 -47 -74.5 -96t-78.5 -71l-99 -74l-4 -3h232l-2 -21h-267l2 19q109 78 176 139t97 117q22 42 22 81t-23 61t-62 22q-65 0 -124 -47z" />
<glyph unicode="&#xb3;" horiz-adv-x="352" d="M359 644q0 -41 -26 -72.5t-68 -41.5q34 -10 53 -38t19 -61q0 -65 -45 -104.5t-113 -39.5q-58 0 -115 35l11 17q49 -32 104 -32q60 0 99 34t39 90q0 38 -26 63.5t-74 25.5h-69l4 20h66q58 0 89.5 31.5t31.5 72.5q0 43 -26.5 66.5t-67.5 23.5q-58 0 -114 -34l-10 17 q61 37 124 37q51 0 82.5 -28t31.5 -82z" />
<glyph unicode="&#xb4;" horiz-adv-x="538" d="M448 709h24l-108 -155h-24z" />
<glyph unicode="&#xb5;" horiz-adv-x="467" d="M50 -172h-20l116 662h20l-55 -314q-3 -16 -3 -32q0 -58 38 -96.5t104 -38.5q143 0 173 173l54 308h20l-54 -308q-33 -193 -196 -193q-62 0 -101 31t-49 81z" />
<glyph unicode="&#xb6;" horiz-adv-x="473" d="M354 -172h-20l145 828h-93l-145 -828h-20l70 403q-97 3 -146.5 60.5t-49.5 140.5q0 105 83 174.5t203 69.5h186l-4 -20h-64zM366 656q-102 -5 -176.5 -64.5t-74.5 -159.5q0 -77 45 -128t135 -53z" />
<glyph unicode="&#xb7;" horiz-adv-x="258" d="M191 340q0 -17 -17 -17t-17 17t17 17t17 -17z" />
<glyph unicode="&#xb8;" horiz-adv-x="538" d="M139 -159l8 18q43 -17 80 -17q33 0 53.5 12.5t20.5 33.5q0 44 -87 60l-15 2l30 50h22l-22 -37q92 -17 92 -75q0 -32 -26.5 -49t-67.5 -17q-43 0 -88 19z" />
<glyph unicode="&#xb9;" horiz-adv-x="215" d="M157 294h-20l75 433h-106l2 20h129z" />
<glyph unicode="&#xba;" horiz-adv-x="429" d="M480 600q0 -73 -53 -138.5t-134 -65.5q-73 0 -107.5 43.5t-34.5 112.5q0 72 53 137t133 65q67 0 105 -41.5t38 -112.5zM460 600q0 62 -32.5 98t-90.5 36q-72 0 -119 -58.5t-47 -123.5q0 -60 29.5 -98t92.5 -38q72 0 119.5 59t47.5 125z" />
<glyph unicode="&#xbb;" horiz-adv-x="458" d="M311 459l18 10l133 -204l-205 -204l-14 14l193 192zM158 459l18 10l133 -204l-205 -204l-14 14l193 192z" />
<glyph unicode="&#xbc;" horiz-adv-x="888" d="M657 0h-20l21 115h-211l3 17l269 323h18l-56 -320h76l-3 -20h-76zM710 414l-232 -279h183zM264 294h-20l75 433h-106l2 20h129zM699 747h24l-514 -747h-24z" />
<glyph unicode="&#xbd;" horiz-adv-x="888" d="M264 294h-20l75 433h-106l2 20h129zM587 392l-12 16q67 52 136 52q47 0 76.5 -27.5t29.5 -76.5q0 -46 -25 -91q-26 -47 -74.5 -96t-77.5 -71l-100 -74l-4 -3h232l-2 -21h-267l2 19q109 78 176 139t97 117q22 42 22 81t-23 61t-62 22q-65 0 -124 -47zM699 747h24 l-514 -747h-24z" />
<glyph unicode="&#xbe;" horiz-adv-x="888" d="M401 638q0 -41 -26 -72.5t-68 -41.5q34 -10 53 -38t19 -61q0 -65 -45 -104.5t-113 -39.5q-58 0 -115 35l11 17q49 -32 104 -32q60 0 99 34t39 90q0 38 -26 63.5t-74 25.5h-69l4 20h66q58 0 89.5 31.5t31.5 72.5q0 43 -26.5 66.5t-67.5 23.5q-58 0 -114 -34l-10 17 q61 37 124 37q51 0 82.5 -28t31.5 -82zM689 0h-20l21 115h-211l3 17l269 323h18l-56 -320h76l-3 -20h-76zM742 414l-232 -279h183zM729 747h24l-514 -747h-24z" />
<glyph unicode="&#xbf;" horiz-adv-x="437" d="M354 369h21q-25 -106 -74 -161q-31 -36 -93 -87q-36 -30 -56.5 -50t-38 -51t-17.5 -63q0 -60 41 -90t108 -30q81 0 169 58l10 -16q-92 -62 -179 -62q-76 0 -122.5 35.5t-46.5 104.5q0 28 8.5 52t28.5 48t35.5 38.5t47.5 41.5q57 47 89 84q42 48 69 148zM366 485 q0 17 17 17t17 -17t-17 -17t-17 17z" />
<glyph unicode="&#xc0;" horiz-adv-x="531" d="M371 677h29l131 -677h-20l-48 246h-306l-134 -246h-23zM383 659l-216 -393h291zM304 889h23l63 -155h-21z" />
<glyph unicode="&#xc1;" horiz-adv-x="531" d="M371 677h29l131 -677h-20l-48 246h-306l-134 -246h-23zM383 659l-216 -393h291zM507 889h24l-108 -155h-24z" />
<glyph unicode="&#xc2;" horiz-adv-x="531" d="M371 677h29l131 -677h-20l-48 246h-306l-134 -246h-23zM383 659l-216 -393h291zM403 888h22l63 -155h-21l-55 136l-103 -136h-25z" />
<glyph unicode="&#xc3;" horiz-adv-x="531" d="M371 677h29l131 -677h-20l-48 246h-306l-134 -246h-23zM383 659l-216 -393h291zM546 847q-16 -89 -80 -89q-30 0 -67 35.5t-59 35.5q-46 0 -58 -69h-20q16 88 80 88q30 0 67 -35.5t59 -35.5q46 0 58 70h20z" />
<glyph unicode="&#xc4;" horiz-adv-x="531" d="M371 677h29l131 -677h-20l-48 246h-306l-134 -246h-23zM383 659l-216 -393h291zM281 799q0 17 17 17t17 -17t-17 -17t-17 17zM474 799q0 17 17 17t17 -17t-17 -17t-17 17z" />
<glyph unicode="&#xc5;" horiz-adv-x="531" d="M371 677h29l131 -677h-20l-48 246h-306l-134 -246h-23zM383 659l-216 -393h291zM316 811q0 31 22.5 53.5t53.5 22.5t53.5 -22.5t22.5 -53.5t-22.5 -53.5t-53.5 -22.5t-53.5 22.5t-22.5 53.5zM336 811q0 -23 16.5 -39.5t39.5 -16.5t39.5 16.5t16.5 39.5t-16.5 39.5 t-39.5 16.5t-39.5 -16.5t-16.5 -39.5z" />
<glyph unicode="&#xc6;" horiz-adv-x="799" d="M786 348l-4 -20h-288l-54 -308h327l-3 -20h-347l41 236h-251l-181 -236h-24l521 677h353l-4 -20h-320l-54 -309h288zM223 256h239l71 402z" />
<glyph unicode="&#xc7;" horiz-adv-x="510" d="M222 -159l8 18q43 -17 80 -17q33 0 53.5 12.5t20.5 33.5q0 44 -87 60l-15 2l24 41q-108 6 -162 78t-54 188q0 105 40 202.5t119.5 162.5t180.5 65q82 0 142 -41l-9 -16q-53 37 -133 37q-72 0 -134 -36.5t-101.5 -95.5t-62 -131.5t-22.5 -146.5q0 -112 54.5 -179.5 t163.5 -67.5q67 0 149 43l8 -18q-84 -45 -157 -45l-16 -27q92 -17 92 -75q0 -32 -26.5 -49t-67.5 -17q-43 0 -88 19z" />
<glyph unicode="&#xc8;" horiz-adv-x="452" d="M439 348l-4 -20h-288l-54 -308h327l-3 -20h-347l119 677h340l-4 -20h-320l-54 -309h288zM331 889h23l63 -155h-21z" />
<glyph unicode="&#xc9;" horiz-adv-x="452" d="M439 348l-4 -20h-288l-54 -308h327l-3 -20h-347l119 677h340l-4 -20h-320l-54 -309h288zM457 889h24l-108 -155h-24z" />
<glyph unicode="&#xca;" horiz-adv-x="452" d="M439 348l-4 -20h-288l-54 -308h327l-3 -20h-347l119 677h340l-4 -20h-320l-54 -309h288zM387 888h22l63 -155h-21l-55 136l-103 -136h-25z" />
<glyph unicode="&#xcb;" horiz-adv-x="452" d="M439 348l-4 -20h-288l-54 -308h327l-3 -20h-347l119 677h340l-4 -20h-320l-54 -309h288zM269 800q0 17 17 17t17 -17t-17 -17t-17 17zM462 800q0 17 17 17t17 -17t-17 -17t-17 17z" />
<glyph unicode="&#xcc;" d="M80 0h-20l119 677h20zM124 889h23l63 -155h-21z" />
<glyph unicode="&#xcd;" d="M90 0h-20l119 677h20zM310 889h24l-108 -155h-24z" />
<glyph unicode="&#xce;" d="M90 0h-20l119 677h20zM225 888h22l63 -155h-21l-55 136l-103 -136h-25z" />
<glyph unicode="&#xcf;" d="M126 803q0 17 17 17t17 -17t-17 -17t-17 17zM279 803q0 17 17 17t17 -17t-17 -17t-17 17zM90 0h-20l119 677h20z" />
<glyph unicode="&#xd0;" horiz-adv-x="571" d="M593 404q0 -104 -44 -195.5t-130.5 -150t-197.5 -58.5h-154l59 335h-71l3 20h71l57 322h111q82 0 142.5 -24t92.5 -65t46.5 -86.5t14.5 -97.5zM573 404q0 48 -13.5 90t-43.5 80t-86 60.5t-133 22.5h-93l-54 -302h157l-3 -20h-157l-56 -315h130q105 0 187 56t123.5 142.5 t41.5 185.5z" />
<glyph unicode="&#xd1;" horiz-adv-x="605" d="M515 0h-28l-291 658l-116 -658h-20l119 677h30l290 -655l115 655h20zM582 844q-16 -89 -80 -89q-30 0 -67 35.5t-59 35.5q-46 0 -58 -69h-20q16 88 80 88q30 0 67 -35.5t59 -35.5q46 0 58 70h20z" />
<glyph unicode="&#xd2;" horiz-adv-x="637" d="M90 267q0 98 28.5 179t75 132.5t104.5 79.5t120 28q99 0 170 -71t71 -203q0 -191 -100.5 -307t-234.5 -116q-97 0 -165.5 71t-68.5 207zM110 267q0 -126 62.5 -192t151.5 -66q59 0 115 27.5t101 77.5t72 127.5t27 170.5q0 122 -65 188t-156 66q-58 0 -112.5 -26.5 t-98.5 -75.5t-70.5 -126t-26.5 -171zM355 889h23l63 -155h-21z" />
<glyph unicode="&#xd3;" horiz-adv-x="637" d="M90 267q0 98 28.5 179t75 132.5t104.5 79.5t120 28q99 0 170 -71t71 -203q0 -191 -100.5 -307t-234.5 -116q-97 0 -165.5 71t-68.5 207zM110 267q0 -126 62.5 -192t151.5 -66q59 0 115 27.5t101 77.5t72 127.5t27 170.5q0 122 -65 188t-156 66q-58 0 -112.5 -26.5 t-98.5 -75.5t-70.5 -126t-26.5 -171zM526 889h24l-108 -155h-24z" />
<glyph unicode="&#xd4;" horiz-adv-x="637" d="M90 267q0 98 28.5 179t75 132.5t104.5 79.5t120 28q99 0 170 -71t71 -203q0 -191 -100.5 -307t-234.5 -116q-97 0 -165.5 71t-68.5 207zM110 267q0 -126 62.5 -192t151.5 -66q59 0 115 27.5t101 77.5t72 127.5t27 170.5q0 122 -65 188t-156 66q-58 0 -112.5 -26.5 t-98.5 -75.5t-70.5 -126t-26.5 -171zM438 888h22l63 -155h-21l-55 136l-103 -136h-25z" />
<glyph unicode="&#xd5;" horiz-adv-x="637" d="M90 267q0 98 28.5 179t75 132.5t104.5 79.5t120 28q99 0 170 -71t71 -203q0 -191 -100.5 -307t-234.5 -116q-97 0 -165.5 71t-68.5 207zM110 267q0 -126 62.5 -192t151.5 -66q59 0 115 27.5t101 77.5t72 127.5t27 170.5q0 122 -65 188t-156 66q-58 0 -112.5 -26.5 t-98.5 -75.5t-70.5 -126t-26.5 -171zM609 846q-16 -89 -80 -89q-25 0 -46.5 17.5t-41 35.5t-38.5 18q-46 0 -58 -69h-20q16 88 80 88q25 0 46.5 -17.5t41 -35.5t38.5 -18q46 0 58 70h20z" />
<glyph unicode="&#xd6;" horiz-adv-x="637" d="M90 267q0 98 28.5 179t75 132.5t104.5 79.5t120 28q99 0 170 -71t71 -203q0 -191 -100.5 -307t-234.5 -116q-97 0 -165.5 71t-68.5 207zM110 267q0 -126 62.5 -192t151.5 -66q59 0 115 27.5t101 77.5t72 127.5t27 170.5q0 122 -65 188t-156 66q-58 0 -112.5 -26.5 t-98.5 -75.5t-70.5 -126t-26.5 -171zM326 800q0 17 17 17t17 -17t-17 -17t-17 17zM519 800q0 17 17 17t17 -17t-17 -17t-17 17z" />
<glyph unicode="&#xd7;" horiz-adv-x="630" d="M610 494l14 -16l-253 -218l177 -217l-16 -12l-176 216l-253 -218l-14 16l254 219h-1l-176 216l16 12l175 -215v-1z" />
<glyph unicode="&#xd8;" horiz-adv-x="637" d="M656 687l16 -14l-65 -75q52 -73 52 -185q0 -96 -31.5 -178.5t-81.5 -134.5t-110.5 -81t-121.5 -29q-104 0 -166 78l-67 -78l-16 14l70 81h1q-46 71 -46 183q0 98 30.5 180t80 132.5t108.5 78.5t119 28q102 0 166 -72zM639 413q0 104 -46 169l-431 -498v-1q57 -73 152 -73 q57 0 114 27.5t104.5 77t77 128t29.5 170.5zM110 268q0 -99 39 -166v-1l431 498q-56 68 -152 68q-56 0 -111.5 -26.5t-102 -75t-75.5 -126.5t-29 -171z" />
<glyph unicode="&#xd9;" horiz-adv-x="593" d="M188 677h20l-78 -435q-4 -21 -4 -47q0 -80 46.5 -132.5t132.5 -52.5q84 0 153 60t88 168l76 439h20l-76 -443q-20 -117 -94.5 -180.5t-166.5 -63.5q-93 0 -146.5 58t-53.5 146q0 22 5 52zM351 889h23l63 -155h-21z" />
<glyph unicode="&#xda;" horiz-adv-x="593" d="M188 677h20l-78 -435q-4 -21 -4 -47q0 -80 46.5 -132.5t132.5 -52.5q84 0 153 60t88 168l76 439h20l-76 -443q-20 -117 -94.5 -180.5t-166.5 -63.5q-93 0 -146.5 58t-53.5 146q0 22 5 52zM513 889h24l-108 -155h-24z" />
<glyph unicode="&#xdb;" horiz-adv-x="593" d="M188 677h20l-78 -435q-4 -21 -4 -47q0 -80 46.5 -132.5t132.5 -52.5q84 0 153 60t88 168l76 439h20l-76 -443q-20 -117 -94.5 -180.5t-166.5 -63.5q-93 0 -146.5 58t-53.5 146q0 22 5 52zM444 888h22l63 -155h-21l-55 136l-103 -136h-25z" />
<glyph unicode="&#xdc;" horiz-adv-x="593" d="M188 677h20l-78 -435q-4 -21 -4 -47q0 -80 46.5 -132.5t132.5 -52.5q84 0 153 60t88 168l76 439h20l-76 -443q-20 -117 -94.5 -180.5t-166.5 -63.5q-93 0 -146.5 58t-53.5 146q0 22 5 52zM320 800q0 17 17 17t17 -17t-17 -17t-17 17zM513 800q0 17 17 17t17 -17t-17 -17 t-17 17z" />
<glyph unicode="&#xdd;" horiz-adv-x="487" d="M117 677h21l155 -375l283 375h25l-301 -397l-49 -280h-20l49 282zM467 890h24l-108 -155h-24z" />
<glyph unicode="&#xde;" horiz-adv-x="464" d="M90 0h-20l119 677h20l-22 -124h109q87 0 138.5 -45.5t51.5 -118.5q0 -91 -68.5 -156.5t-167.5 -65.5h-131zM296 533h-113l-60 -346h127q91 0 153.5 59.5t62.5 142.5q0 64 -46 104t-124 40z" />
<glyph unicode="&#xdf;" horiz-adv-x="501" d="M227 383l4 20h91q66 0 122 52.5t56 134.5q0 71 -40 111t-100 40q-58 0 -105 -37t-60 -108l-105 -596h-20l105 600q14 76 67 118.5t118 42.5q68 0 114 -46t46 -125q0 -69 -39 -122t-100 -72q62 -14 92.5 -62.5t30.5 -113.5q0 -102 -67 -166t-160 -64q-79 0 -133 40l10 17 q59 -37 123 -37q84 0 145.5 57.5t61.5 152.5q0 69 -37 116t-118 47h-102z" />
<glyph unicode="&#xe0;" horiz-adv-x="456" d="M446 357q0 -32 -7 -74l-50 -283h-20l18 100q-63 -110 -199 -110q-64 0 -100 34t-36 83q0 180 367 184l1 6q6 32 6 60q0 40 -11 66.5t-32 37.5t-38.5 14.5t-42.5 3.5q-70 0 -154 -35l-5 19q86 36 159 36q22 0 39 -2t37.5 -11t34.5 -23.5t23.5 -41.5t9.5 -64zM416 271 q-344 -4 -344 -164q0 -41 31.5 -69t87.5 -28q78 0 137.5 47t73.5 130zM269 709h23l63 -155h-21z" />
<glyph unicode="&#xe1;" horiz-adv-x="456" d="M446 357q0 -32 -7 -74l-50 -283h-20l18 100q-63 -110 -199 -110q-64 0 -100 34t-36 83q0 180 367 184l1 6q6 32 6 60q0 40 -11 66.5t-32 37.5t-38.5 14.5t-42.5 3.5q-70 0 -154 -35l-5 19q86 36 159 36q22 0 39 -2t37.5 -11t34.5 -23.5t23.5 -41.5t9.5 -64zM416 271 q-344 -4 -344 -164q0 -41 31.5 -69t87.5 -28q78 0 137.5 47t73.5 130zM405 709h24l-108 -155h-24z" />
<glyph unicode="&#xe2;" horiz-adv-x="456" d="M446 357q0 -32 -7 -74l-50 -283h-20l18 100q-63 -110 -199 -110q-64 0 -100 34t-36 83q0 180 367 184l1 6q6 32 6 60q0 40 -11 66.5t-32 37.5t-38.5 14.5t-42.5 3.5q-70 0 -154 -35l-5 19q86 36 159 36q22 0 39 -2t37.5 -11t34.5 -23.5t23.5 -41.5t9.5 -64zM416 271 q-344 -4 -344 -164q0 -41 31.5 -69t87.5 -28q78 0 137.5 47t73.5 130zM333 709h22l63 -155h-21l-55 136l-103 -136h-25z" />
<glyph unicode="&#xe3;" horiz-adv-x="456" d="M446 357q0 -32 -7 -74l-50 -283h-20l18 100q-63 -110 -199 -110q-64 0 -100 34t-36 83q0 180 367 184l1 6q6 32 6 60q0 40 -11 66.5t-32 37.5t-38.5 14.5t-42.5 3.5q-70 0 -154 -35l-5 19q86 36 159 36q22 0 39 -2t37.5 -11t34.5 -23.5t23.5 -41.5t9.5 -64zM416 271 q-344 -4 -344 -164q0 -41 31.5 -69t87.5 -28q78 0 137.5 47t73.5 130zM475 669q-16 -89 -80 -89q-25 0 -47 18l-40 36q-20 17 -39 17q-46 0 -58 -69h-20q16 88 80 88q25 0 47 -18l40 -36q20 -17 39 -17q46 0 58 70h20z" />
<glyph unicode="&#xe4;" horiz-adv-x="456" d="M446 357q0 -32 -7 -74l-50 -283h-20l18 100q-63 -110 -199 -110q-64 0 -100 34t-36 83q0 180 367 184l1 6q6 32 6 60q0 40 -11 66.5t-32 37.5t-38.5 14.5t-42.5 3.5q-70 0 -154 -35l-5 19q86 36 159 36q22 0 39 -2t37.5 -11t34.5 -23.5t23.5 -41.5t9.5 -64zM416 271 q-344 -4 -344 -164q0 -41 31.5 -69t87.5 -28q78 0 137.5 47t73.5 130zM233 667q0 17 17 17t17 -17t-17 -17t-17 17zM426 667q0 17 17 17t17 -17t-17 -17t-17 17z" />
<glyph unicode="&#xe5;" horiz-adv-x="456" d="M446 357q0 -32 -7 -74l-50 -283h-20l18 100q-63 -110 -199 -110q-64 0 -100 34t-36 83q0 180 367 184l1 6q6 32 6 60q0 40 -11 66.5t-32 37.5t-38.5 14.5t-42.5 3.5q-70 0 -154 -35l-5 19q86 36 159 36q22 0 39 -2t37.5 -11t34.5 -23.5t23.5 -41.5t9.5 -64zM416 271 q-344 -4 -344 -164q0 -41 31.5 -69t87.5 -28q78 0 137.5 47t73.5 130zM257 632q0 31 22.5 53.5t53.5 22.5t53.5 -22.5t22.5 -53.5t-22.5 -53.5t-53.5 -22.5t-53.5 22.5t-22.5 53.5zM277 632q0 -23 16.5 -39.5t39.5 -16.5t39.5 16.5t16.5 39.5t-16.5 39.5t-39.5 16.5 t-39.5 -16.5t-16.5 -39.5z" />
<glyph unicode="&#xe6;" horiz-adv-x="758" d="M150 445l-6 18q97 36 156 36q125 0 125 -139v-11q32 73 87 111.5t114 38.5q62 0 103.5 -46t41.5 -132q0 -30 -7 -71h-351q-6 -44 -6 -68q0 -88 38.5 -130t100.5 -42q82 0 160 59l12 -16q-86 -63 -172 -63q-63 0 -104.5 36t-49.5 115q-21 -72 -80 -112t-123 -40 q-58 0 -97.5 31t-39.5 87q0 38 13 66.5t40 46t55 28t73.5 15.5t78 6t84.5 1q11 63 11 90q0 119 -107 119q-59 0 -150 -34zM189 9q69 0 125.5 46t69.5 131l9 64q-48 0 -79 -1t-72.5 -5.5t-68 -14t-52 -24.5t-37.5 -40t-12 -58q0 -46 33.5 -72t83.5 -26zM626 479 q-66 0 -127.5 -56t-82.5 -153h330q5 35 5 51q0 77 -35.5 117.5t-89.5 40.5z" />
<glyph unicode="&#xe7;" horiz-adv-x="410" d="M145 -159l8 18q43 -17 80 -17q33 0 53.5 12.5t20.5 33.5q0 44 -87 60l-15 2l24 41q-71 7 -111 57.5t-40 145.5q0 114 77.5 209t193.5 95q50 0 106 -29l-8 -18q-56 27 -98 27q-72 0 -131 -43.5t-89.5 -108t-30.5 -132.5q0 -92 41 -138t112 -46q59 0 137 32l8 -18 q-78 -34 -145 -34l-16 -27q92 -17 92 -75q0 -32 -26.5 -49t-67.5 -17q-43 0 -88 19z" />
<glyph unicode="&#xe8;" horiz-adv-x="473" d="M475 250h-372q-5 -37 -5 -68q0 -87 43 -129.5t111 -42.5q89 0 166 58l12 -16q-83 -62 -178 -62q-76 0 -125 47.5t-49 144.5q0 75 23.5 136.5t61 100t81.5 59t89 20.5q66 0 109.5 -43t43.5 -123q0 -32 -11 -82zM333 478q-72 0 -137.5 -55.5t-88.5 -152.5h352q7 31 7 62 q0 70 -38 108t-95 38zM286 709h23l63 -155h-21z" />
<glyph unicode="&#xe9;" horiz-adv-x="473" d="M475 250h-372q-5 -37 -5 -68q0 -87 43 -129.5t111 -42.5q89 0 166 58l12 -16q-83 -62 -178 -62q-76 0 -125 47.5t-49 144.5q0 75 23.5 136.5t61 100t81.5 59t89 20.5q66 0 109.5 -43t43.5 -123q0 -32 -11 -82zM333 478q-72 0 -137.5 -55.5t-88.5 -152.5h352q7 31 7 62 q0 70 -38 108t-95 38zM452 709h24l-108 -155h-24z" />
<glyph unicode="&#xea;" horiz-adv-x="473" d="M475 250h-372q-5 -37 -5 -68q0 -87 43 -129.5t111 -42.5q89 0 166 58l12 -16q-83 -62 -178 -62q-76 0 -125 47.5t-49 144.5q0 75 23.5 136.5t61 100t81.5 59t89 20.5q66 0 109.5 -43t43.5 -123q0 -32 -11 -82zM333 478q-72 0 -137.5 -55.5t-88.5 -152.5h352q7 31 7 62 q0 70 -38 108t-95 38zM367 709h22l63 -155h-21l-55 136l-103 -136h-25z" />
<glyph unicode="&#xeb;" horiz-adv-x="473" d="M475 250h-372q-5 -37 -5 -68q0 -87 43 -129.5t111 -42.5q89 0 166 58l12 -16q-83 -62 -178 -62q-76 0 -125 47.5t-49 144.5q0 75 23.5 136.5t61 100t81.5 59t89 20.5q66 0 109.5 -43t43.5 -123q0 -32 -11 -82zM333 478q-72 0 -137.5 -55.5t-88.5 -152.5h352q7 31 7 62 q0 70 -38 108t-95 38zM244 667q0 17 17 17t17 -17t-17 -17t-17 17zM437 667q0 17 17 17t17 -17t-17 -17t-17 17z" />
<glyph unicode="&#xec;" d="M90 0h-20l86 489h20zM100 709h23l63 -155h-21z" />
<glyph unicode="&#xed;" d="M90 0h-20l86 489h20zM276 709h24l-108 -155h-24z" />
<glyph unicode="&#xee;" d="M90 0h-20l86 489h20zM192 709h22l63 -155h-21l-55 136l-103 -136h-25z" />
<glyph unicode="&#xef;" d="M103 667q0 17 17 17t17 -17t-17 -17t-17 17zM256 667q0 17 17 17t17 -17t-17 -17t-17 17zM90 0h-20l86 489h20z" />
<glyph unicode="&#xf0;" horiz-adv-x="537" d="M267 607l-8 18l126 62h-2q-57 38 -129 47l2 20q87 -11 150 -58v1l113 55l8 -18l-104 -51h-1q120 -105 120 -307q0 -68 -15.5 -133.5t-47 -123.5t-86.5 -93.5t-127 -35.5q-90 0 -136.5 63.5t-46.5 154.5q0 119 77.5 205t192.5 86q70 0 113.5 -37t57.5 -91q0 95 -32 174.5 t-91 127.5zM266 10q50 0 91.5 19t67.5 49.5t45.5 65.5t29 70.5t14 60t4.5 38.5q0 24 -9 51t-27.5 53.5t-52 44t-76.5 17.5q-106 0 -178 -80t-72 -191q0 -83 41.5 -140.5t121.5 -57.5z" />
<glyph unicode="&#xf1;" horiz-adv-x="487" d="M140 284l-50 -284h-20l86 489h20l-18 -104q63 114 176 114q65 0 108.5 -41.5t43.5 -113.5q0 -33 -10 -95l-44 -249h-20l44 253q10 54 10 91q0 64 -37.5 99.5t-94.5 35.5q-68 0 -123 -50t-71 -145zM507 669q-16 -89 -80 -89q-25 0 -47 18l-40 36q-20 17 -39 17 q-46 0 -58 -69h-20q16 88 80 88q25 0 47 -18l40 -36q20 -17 39 -17q46 0 58 70h20z" />
<glyph unicode="&#xf2;" horiz-adv-x="500" d="M339 497q79 0 126.5 -57t47.5 -141q0 -72 -30.5 -141.5t-93 -118t-140.5 -48.5q-80 0 -125.5 57t-45.5 142q0 116 73 211.5t188 95.5zM339 477q-72 0 -128.5 -44.5t-84.5 -109t-28 -133.5q0 -77 40 -128t111 -51q73 0 130.5 45.5t85.5 110.5t28 132q0 76 -41.5 127 t-112.5 51zM292 709h23l63 -155h-21z" />
<glyph unicode="&#xf3;" horiz-adv-x="500" d="M339 497q79 0 126.5 -57t47.5 -141q0 -72 -30.5 -141.5t-93 -118t-140.5 -48.5q-80 0 -125.5 57t-45.5 142q0 116 73 211.5t188 95.5zM339 477q-72 0 -128.5 -44.5t-84.5 -109t-28 -133.5q0 -77 40 -128t111 -51q73 0 130.5 45.5t85.5 110.5t28 132q0 76 -41.5 127 t-112.5 51zM448 709h24l-108 -155h-24z" />
<glyph unicode="&#xf4;" horiz-adv-x="500" d="M339 497q79 0 126.5 -57t47.5 -141q0 -72 -30.5 -141.5t-93 -118t-140.5 -48.5q-80 0 -125.5 57t-45.5 142q0 116 73 211.5t188 95.5zM339 477q-72 0 -128.5 -44.5t-84.5 -109t-28 -133.5q0 -77 40 -128t111 -51q73 0 130.5 45.5t85.5 110.5t28 132q0 76 -41.5 127 t-112.5 51zM363 709h22l63 -155h-21l-55 136l-103 -136h-25z" />
<glyph unicode="&#xf5;" horiz-adv-x="500" d="M339 497q79 0 126.5 -57t47.5 -141q0 -72 -30.5 -141.5t-93 -118t-140.5 -48.5q-80 0 -125.5 57t-45.5 142q0 116 73 211.5t188 95.5zM339 477q-72 0 -128.5 -44.5t-84.5 -109t-28 -133.5q0 -77 40 -128t111 -51q73 0 130.5 45.5t85.5 110.5t28 132q0 76 -41.5 127 t-112.5 51zM510 669q-16 -89 -80 -89q-30 0 -67 35.5t-59 35.5q-46 0 -58 -69h-20q16 88 80 88q30 0 67 -35.5t59 -35.5q46 0 58 70h20z" />
<glyph unicode="&#xf6;" horiz-adv-x="500" d="M339 497q79 0 126.5 -57t47.5 -141q0 -72 -30.5 -141.5t-93 -118t-140.5 -48.5q-80 0 -125.5 57t-45.5 142q0 116 73 211.5t188 95.5zM339 477q-72 0 -128.5 -44.5t-84.5 -109t-28 -133.5q0 -77 40 -128t111 -51q73 0 130.5 45.5t85.5 110.5t28 132q0 76 -41.5 127 t-112.5 51zM253 667q0 17 17 17t17 -17t-17 -17t-17 17zM446 667q0 17 17 17t17 -17t-17 -17t-17 17z" />
<glyph unicode="&#xf7;" horiz-adv-x="630" d="M113 251l3 20h492l-3 -20h-492zM341 74q0 -17 -17 -17t-17 17t17 17t17 -17zM407 448q0 -17 -17 -17t-17 17t17 17t17 -17z" />
<glyph unicode="&#xf8;" horiz-adv-x="500" d="M339 497q73 0 119 -49l44 51l14 -14l-45 -52q42 -54 42 -134q0 -72 -30.5 -142t-93 -118.5t-140.5 -48.5q-72 0 -119 50l-44 -51l-14 14l45 52h1q-40 55 -40 135q0 116 73 211.5t188 95.5zM493 299q0 70 -35 119l-315 -363h1q40 -45 105 -45q73 0 130.5 45.5t85.5 111 t28 132.5zM339 477q-72 0 -128.5 -44.5t-84.5 -109t-28 -133.5q0 -71 33 -119l314 362q-42 44 -106 44z" />
<glyph unicode="&#xf9;" horiz-adv-x="488" d="M151 489h21l-51 -279q-6 -33 -6 -64q0 -136 134 -136q161 0 195 191l51 288h20l-51 -292q-36 -207 -215 -207q-80 0 -117.5 41.5t-37.5 114.5q0 26 7 68zM276 709h23l63 -155h-21z" />
<glyph unicode="&#xfa;" horiz-adv-x="488" d="M151 489h21l-51 -279q-6 -33 -6 -64q0 -136 134 -136q161 0 195 191l51 288h20l-51 -292q-36 -207 -215 -207q-80 0 -117.5 41.5t-37.5 114.5q0 26 7 68zM428 709h24l-108 -155h-24z" />
<glyph unicode="&#xfb;" horiz-adv-x="488" d="M151 489h21l-51 -279q-6 -33 -6 -64q0 -136 134 -136q161 0 195 191l51 288h20l-51 -292q-36 -207 -215 -207q-80 0 -117.5 41.5t-37.5 114.5q0 26 7 68zM358 709h22l63 -155h-21l-55 136l-103 -136h-25z" />
<glyph unicode="&#xfc;" horiz-adv-x="488" d="M151 489h21l-51 -279q-6 -33 -6 -64q0 -136 134 -136q161 0 195 191l51 288h20l-51 -292q-36 -207 -215 -207q-80 0 -117.5 41.5t-37.5 114.5q0 26 7 68zM243 667q0 17 17 17t17 -17t-17 -17t-17 17zM436 667q0 17 17 17t17 -17t-17 -17t-17 17z" />
<glyph unicode="&#xfd;" horiz-adv-x="427" d="M91 489h21l112 -460l262 460h22l-378 -661h-23l103 178zM406 709h24l-108 -155h-24z" />
<glyph unicode="&#xfe;" horiz-adv-x="491" d="M203 755h20l-68 -381q32 61 82.5 92.5t103.5 31.5q67 0 111.5 -49.5t44.5 -142.5q0 -142 -87.5 -229t-212.5 -87q-51 0 -106 18l-32 -180h-20zM138 270l-43 -243q51 -17 102 -17q117 0 198.5 81t81.5 215q0 84 -39 128t-97 44q-68 0 -127 -55.5t-76 -152.5z" />
<glyph unicode="&#xff;" horiz-adv-x="427" d="M91 489h21l112 -460l262 460h22l-378 -661h-23l103 178zM209 667q0 17 17 17t17 -17t-17 -17t-17 17zM402 667q0 17 17 17t17 -17t-17 -17t-17 17z" />
<glyph unicode="&#x152;" horiz-adv-x="941" d="M323 -10q-118 0 -175.5 72.5t-57.5 194.5q0 105 40 202.5t119.5 162.5t180.5 65q88 0 141 -44.5t66 -118.5l26 153h355l-4 -20h-335l-54 -309h303l-4 -20h-303l-54 -308h342l-3 -20h-362l26 147q-37 -72 -102 -114.5t-145 -42.5zM430 667q-72 0 -134 -36.5t-101.5 -95.5 t-62 -131.5t-22.5 -146.5q0 -113 53.5 -180t162.5 -67q101 0 172.5 71.5t86.5 156.5l34 191q4 23 4 49q0 85 -52 137t-141 52z" />
<glyph unicode="&#x153;" horiz-adv-x="857" d="M78 190q0 137 79.5 223t174.5 86q66 0 110 -46t48 -135q32 84 96.5 132.5t132.5 48.5q65 0 108 -45.5t43 -132.5q0 -30 -7 -71h-373q-5 -28 -5 -68q0 -87 43.5 -129.5t111.5 -42.5q88 0 165 58l12 -16q-83 -62 -177 -62q-73 0 -121.5 44t-52.5 133q-32 -82 -96 -129.5 t-132 -47.5q-69 0 -114.5 51t-45.5 149zM98 190q0 -88 39.5 -134t100.5 -46q88 0 161.5 80.5t73.5 208.5q0 88 -40 134t-101 46q-87 0 -160.5 -80.5t-73.5 -208.5zM719 479q-71 0 -137 -56.5t-89 -152.5h352q5 35 5 51q0 77 -37 117.5t-94 40.5z" />
<glyph unicode="&#x178;" horiz-adv-x="487" d="M117 677h21l155 -375l283 375h25l-301 -397l-49 -280h-20l49 282zM263 801q0 17 17 17t17 -17t-17 -17t-17 17zM456 801q0 17 17 17t17 -17t-17 -17t-17 17z" />
<glyph unicode="&#x2c6;" horiz-adv-x="538" d="M383 709h22l63 -155h-21l-55 136l-103 -136h-25z" />
<glyph unicode="&#x2dc;" horiz-adv-x="538" d="M520 669q-16 -89 -80 -89q-30 0 -67 35.5t-59 35.5q-46 0 -58 -69h-20q16 88 80 88q30 0 67 -35.5t59 -35.5q46 0 58 70h20z" />
<glyph unicode="&#x2000;" horiz-adv-x="445" />
<glyph unicode="&#x2001;" horiz-adv-x="890" />
<glyph unicode="&#x2002;" horiz-adv-x="445" />
<glyph unicode="&#x2003;" horiz-adv-x="890" />
<glyph unicode="&#x2004;" horiz-adv-x="296" />
<glyph unicode="&#x2005;" horiz-adv-x="222" />
<glyph unicode="&#x2006;" horiz-adv-x="148" />
<glyph unicode="&#x2007;" horiz-adv-x="148" />
<glyph unicode="&#x2008;" horiz-adv-x="111" />
<glyph unicode="&#x2009;" horiz-adv-x="178" />
<glyph unicode="&#x200a;" horiz-adv-x="49" />
<glyph unicode="&#x2010;" horiz-adv-x="257" d="M63 251l3 20h215l-3 -20h-215z" />
<glyph unicode="&#x2011;" horiz-adv-x="257" d="M63 251l3 20h215l-3 -20h-215z" />
<glyph unicode="&#x2013;" horiz-adv-x="588" d="M112 251l3 20h452l-3 -20h-452z" />
<glyph unicode="&#x2014;" horiz-adv-x="1038" d="M112 251l3 20h902l-3 -20h-902z" />
<glyph unicode="&#x2018;" horiz-adv-x="212" d="M255 755h21l-92 -217h-21z" />
<glyph unicode="&#x2019;" horiz-adv-x="212" d="M255 755h21l-92 -217h-21z" />
<glyph unicode="&#x201a;" horiz-adv-x="257" d="M64 -172h-21l86 201h21z" />
<glyph unicode="&#x201c;" horiz-adv-x="321" d="M172 538h-21l92 217h21zM305 538h-21l92 217h21z" />
<glyph unicode="&#x201d;" horiz-adv-x="321" d="M172 538h-21l92 217h21zM305 538h-21l92 217h21z" />
<glyph unicode="&#x201e;" horiz-adv-x="385" d="M62 -173h-21l86 202h21zM195 -173h-21l86 202h21z" />
<glyph unicode="&#x2022;" horiz-adv-x="296" d="M191 278q22 0 22 -22q0 -9 -6 -16t-16 -7q-22 0 -22 22q0 9 6 16t16 7z" />
<glyph unicode="&#x2026;" horiz-adv-x="582" d="M114 12q0 -17 -17 -17t-17 17t17 17t17 -17zM308 12q0 -17 -17 -17t-17 17t17 17t17 -17zM502 12q0 -17 -17 -17t-17 17t17 17t17 -17z" />
<glyph unicode="&#x202f;" horiz-adv-x="178" />
<glyph unicode="&#x2039;" horiz-adv-x="305" d="M245 71l-18 -10l-133 204l205 204l14 -14l-193 -192z" />
<glyph unicode="&#x203a;" horiz-adv-x="305" d="M158 459l18 10l133 -204l-205 -204l-14 14l193 192z" />
<glyph unicode="&#x205f;" horiz-adv-x="222" />
<glyph unicode="&#x20ac;" horiz-adv-x="699" d="M660 412l-12 -20h-459q-13 -51 -13 -104v-5h408l-12 -20h-395q7 -119 78.5 -185.5t179.5 -66.5q101 0 213 62l10 -18q-113 -64 -223 -64q-117 0 -194 72t-84 200h-97l8 20h88v5q0 52 12 104h-86l8 20h84q35 119 127.5 197t230.5 78q135 0 232 -98l-10 -18q-93 96 -222 96 q-128 0 -215 -72t-122 -183h465z" />
<glyph unicode="&#x2122;" horiz-adv-x="474" d="M533 463h-20l30 169l-82 -111h-19l-42 111l-30 -169h-20l38 214h18l49 -131l96 131h20zM344 677l-4 -20h-76l-34 -194h-20l34 194h-76l4 20h172z" />
</font>
</defs>
</svg>
