<?xml version="1.0" standalone="no"?>
<!DOCTYPE svg PUBLIC "-//W3C//DTD SVG 1.1//EN" "http://www.w3.org/Graphics/SVG/1.1/DTD/svg11.dtd" >
<svg xmlns="http://www.w3.org/2000/svg">
<metadata>
This is a custom SVG webfont generated by Fontspring.
</metadata>
<defs>
<font id="webfontq86vMsLH" horiz-adv-x="537" >
<font-face units-per-em="1000" ascent="769" descent="-231" />
<missing-glyph horiz-adv-x="243" />
<glyph unicode=" "  horiz-adv-x="243" />
<glyph unicode="&#x09;" horiz-adv-x="243" />
<glyph unicode="&#xa0;" horiz-adv-x="243" />
<glyph unicode="!" horiz-adv-x="274" d="M24 101q0 46 33 79t80 33t80 -33t33 -79t-33 -79t-80 -33t-80 33t-33 79zM30 677h214l-19 -437h-176z" />
<glyph unicode="&#x22;" horiz-adv-x="453" d="M209 446h-152v294h152v-294zM396 446h-152v294h152v-294z" />
<glyph unicode="#" horiz-adv-x="721" d="M60 0l42 158h-87v135h120l17 59h-116v135h151l42 158h163l-41 -158h68l42 158h165l-41 -158h84v-135h-117l-17 -59h110v-135h-145l-42 -158h-165l41 158h-67l-43 -158h-164zM302 293h66l15 59h-65z" />
<glyph unicode="$" horiz-adv-x="500" d="M151 -93v100q-68 13 -128 39l46 156q110 -47 165 -47q44 0 44 30q0 17 -28 28q-6 3 -14.5 5.5t-25 7t-34.5 10.5q-72 22 -105.5 63t-33.5 110q0 66 29 115t85 73v99h189v-90q60 -12 112 -35l-40 -149q-92 35 -148 35q-35 0 -35 -24q0 -18 27 -28q33 -12 71 -22 q84 -22 114 -66t30 -115t-34.5 -120.5t-96.5 -69.5v-105h-189z" />
<glyph unicode="%" horiz-adv-x="967" d="M756 678l-362 -678h-174l360 678h176zM233 690q93 0 145.5 -56t52.5 -131t-52 -130t-146 -55q-95 0 -148 55t-53 130t53.5 131t147.5 56zM233 451q18 0 27 15t9 36q0 22 -9 38t-27 16t-28 -16t-10 -39q0 -21 10 -35.5t28 -14.5zM743 360q93 0 145.5 -55.5t52.5 -130.5 q0 -76 -52 -130.5t-146 -54.5q-96 0 -148.5 54.5t-52.5 130.5q0 75 53 130.5t148 55.5zM743 122q17 0 27 15t10 36t-10.5 37t-26.5 16q-18 0 -28 -16t-10 -38q0 -21 10 -35.5t28 -14.5z" />
<glyph unicode="&#x26;" horiz-adv-x="735" d="M697 341q-27 -81 -90 -164l85 -63l-107 -133q-90 60 -105 71q-87 -59 -221 -59q-96 0 -167 49.5t-71 139.5q0 101 109 167q-65 71 -65 144q0 83 66.5 139.5t172.5 56.5q107 0 173.5 -52.5t66.5 -132.5q0 -101 -137 -174l62 -47q20 33 29 58h199zM345 490q0 16 -11 28 t-27 12q-19 0 -30.5 -12t-11.5 -29q0 -28 30 -60q50 23 50 61zM300 148q24 0 43 9q-59 46 -100 85q-11 -16 -11 -36q0 -26 20 -42t48 -16z" />
<glyph unicode="'" horiz-adv-x="258" d="M207 446h-152v294h152v-294z" />
<glyph unicode="(" horiz-adv-x="314" d="M326 740q-120 -213 -120 -456q0 -244 120 -456h-193q-121 206 -121 456q0 248 121 456h193z" />
<glyph unicode=")" horiz-adv-x="314" d="M-7 740h193q121 -208 121 -456q0 -250 -121 -456h-193q120 212 120 456q0 243 -120 456z" />
<glyph unicode="*" horiz-adv-x="502" d="M381 531l87 -46l-70 -118l-76 47l2 -93h-147l4 95l-78 -48l-69 118l87 45l-86 46l70 118l75 -48l-2 93h147l-4 -94l78 50l70 -120z" />
<glyph unicode="+" horiz-adv-x="636" d="M594 193h-197v-193h-162v193h-196v140h196v193h162v-193h197v-140z" />
<glyph unicode="," horiz-adv-x="304" d="M292 188l-103 -312h-177l81 312h199z" />
<glyph unicode="-" horiz-adv-x="308" d="M16 183v160h276v-160h-276z" />
<glyph unicode="." horiz-adv-x="278" d="M139 -11q-47 0 -79.5 32.5t-32.5 79.5t32.5 79.5t79.5 32.5t79.5 -32.5t32.5 -79.5t-32.5 -79.5t-79.5 -32.5z" />
<glyph unicode="/" horiz-adv-x="524" d="M548 740l-370 -814h-203l370 814h203z" />
<glyph unicode="0" horiz-adv-x="574" d="M557 253q0 -128 -82 -196.5t-199 -68.5q-106 0 -182.5 70.5t-76.5 190.5q0 127 82.5 195.5t198.5 68.5q108 0 183.5 -70t75.5 -190zM355 253q0 40 -17.5 70t-48.5 30q-32 0 -51 -27.5t-19 -77.5q0 -41 18 -71.5t49 -30.5t50 29t19 78z" />
<glyph unicode="1" horiz-adv-x="329" d="M106 0v343h-90v160h285v-503h-195z" />
<glyph unicode="2" horiz-adv-x="493" d="M475 150v-150h-459v127l79 54l21 15q19 12 28 19l28 21q18 13 28 22l22 22q12 13 17.5 23.5t5.5 19.5q0 14 -9.5 23t-25.5 9q-8 0 -16.5 -1t-18 -4t-16.5 -5.5t-19 -8.5l-18 -8q-5 -2 -20 -9.5t-20 -10.5l-64 146q112 61 221 61q95 0 148.5 -47.5t53.5 -124.5 q0 -105 -128 -193h162z" />
<glyph unicode="3" horiz-adv-x="470" d="M51 -136h-36v155q231 0 231 63q0 37 -53 37q-14 0 -46.5 -2.5t-53.5 -2.5v148q80 6 112 17t32 41q0 33 -46 33q-47 0 -138 -24l-36 155q103 30 202 30q94 0 155.5 -45.5t61.5 -123.5q0 -85 -84 -136q44 -14 70 -52.5t26 -81.5q0 -81 -66 -135q-94 -76 -331 -76z" />
<glyph unicode="4" horiz-adv-x="550" d="M532 151v-151h-83v-141h-179v141h-254v116l206 387h227v-352h83zM270 151v153l-86 -153h86z" />
<glyph unicode="5" horiz-adv-x="449" d="M435 85q0 -120 -94.5 -177t-305.5 -58v160q102 2 147.5 12.5t45.5 36.5q0 14 -5.5 22t-36 17.5t-90.5 13.5l-68 5l15 386h381v-160h-203l-5 -81q108 -6 163.5 -52t55.5 -125z" />
<glyph unicode="6" horiz-adv-x="529" d="M512 215q0 -90 -64 -158.5t-178 -68.5q-112 0 -179.5 67t-67.5 206q0 145 94 250.5t292 156.5l48 -154q-161 -38 -216 -119q38 14 82 14q81 0 135 -51t54 -143zM320 206q0 22 -14 38t-38 16t-38 -16t-14 -38q0 -26 15.5 -41t36.5 -15t36.5 15t15.5 41z" />
<glyph unicode="7" horiz-adv-x="498" d="M480 394q-59 -111 -273 -563l-172 70l67 139l62 126l46 94l44 83h-236v160h462v-109z" />
<glyph unicode="8" horiz-adv-x="520" d="M503 173q0 -89 -69.5 -137t-173.5 -48q-107 0 -175.5 46t-68.5 139q0 44 26.5 85t64.5 63q-36 21 -59 59t-23 83q0 91 69 137.5t166 46.5t166 -46.5t69 -137.5q0 -43 -23.5 -80.5t-57.5 -59.5q39 -21 64 -60.5t25 -89.5zM309 454q0 21 -14.5 35.5t-34.5 14.5 q-22 0 -35.5 -14t-13.5 -36t13.5 -37.5t35.5 -15.5t35.5 16t13.5 37zM312 199q0 21 -14 36.5t-38 15.5t-38 -15t-14 -37q0 -25 15.5 -39.5t36.5 -14.5t36.5 14.5t15.5 39.5z" />
<glyph unicode="9" horiz-adv-x="529" d="M16 287q0 91 64 159t179 68q112 0 179.5 -67t67.5 -206q0 -145 -94.5 -250.5t-292.5 -156.5l-48 154q163 38 216 119q-39 -15 -81 -15q-81 0 -135.5 51.5t-54.5 143.5zM314 299q0 22 -14 38t-38 16t-38 -16t-14 -38q0 -26 15.5 -41t36.5 -15t36.5 15t15.5 41z" />
<glyph unicode=":" horiz-adv-x="279" d="M139 -11q-47 0 -79.5 32.5t-32.5 79.5t32.5 79.5t79.5 32.5t79.5 -32.5t32.5 -79.5t-32.5 -79.5t-79.5 -32.5zM139 289q-47 0 -79.5 32.5t-32.5 79.5t32.5 79.5t79.5 32.5t79.5 -32.5t32.5 -79.5t-32.5 -79.5t-79.5 -32.5z" />
<glyph unicode=";" horiz-adv-x="309" d="M301 188l-103 -312h-177l81 312h199zM169 289q-47 0 -79.5 32.5t-32.5 79.5t32.5 79.5t79.5 32.5t79.5 -32.5t32.5 -79.5t-32.5 -79.5t-79.5 -32.5z" />
<glyph unicode="&#x3c;" horiz-adv-x="636" d="M523 14l-395 176v143l395 177v-165l-195 -83l195 -84v-164z" />
<glyph unicode="=" horiz-adv-x="636" d="M569 303h-506v141h506v-141zM569 82h-506v140h506v-140z" />
<glyph unicode="&#x3e;" horiz-adv-x="638" d="M523 190l-395 -176v164l195 84l-195 83v165l395 -177v-143z" />
<glyph unicode="?" horiz-adv-x="513" d="M479 491q0 -35 -9 -62t-28 -46.5t-34.5 -31t-41.5 -26.5q-27 -16 -33 -29t-7 -56h-186q-9 38 -9 75q0 50 28 80t81 55q41 19 41 41q0 23 -33 23q-49 0 -156 -57l-64 150q128 82 239 82q92 0 152 -51t60 -147zM125 101q0 47 32.5 79.5t79.5 32.5t80 -33t33 -79t-33 -79 t-80 -33t-79.5 32.5t-32.5 79.5z" />
<glyph unicode="@" horiz-adv-x="852" d="M620 466l-34 -198l-1 -9q0 -12 9 -12q11 0 22 11q39 39 39 111q0 93 -54.5 143.5t-134.5 50.5q-46 0 -90.5 -18t-81.5 -52t-60 -89t-23 -122q0 -95 61.5 -158t178.5 -63q95 0 206 65l61 -112q-138 -89 -273 -89q-95 0 -169.5 28.5t-120.5 77t-70 110.5t-24 132 q0 100 36.5 183t96 135t131.5 80t147 28q65 0 124 -21t105.5 -60.5t74 -102t27.5 -140.5q0 -97 -69 -176.5t-171 -79.5q-55 0 -88 33q-42 -33 -94 -33q-58 0 -97 44.5t-39 115.5q0 94 62 164.5t159 70.5q84 0 154 -48zM447 301l16 85q-4 2 -10 2q-26 0 -41 -37t-15 -75 q0 -29 17 -29q9 0 19 15.5t14 38.5z" />
<glyph unicode="A" horiz-adv-x="713" d="M491 0l-39 120h-199l-40 -120h-220l248 677h237l242 -677h-229zM405 275l-52 155l-52 -155h104z" />
<glyph unicode="B" horiz-adv-x="577" d="M548 194q0 -93 -62 -143.5t-173 -50.5h-276v677h262q117 0 181 -48t64 -138q0 -87 -82 -146q39 -22 62.5 -63.5t23.5 -87.5zM336 467q0 22 -14 37t-38 15h-50v-110h53q20 0 34.5 15.5t14.5 42.5zM343 212q0 58 -63 58h-46v-113h43q32 0 49 14.5t17 40.5z" />
<glyph unicode="C" horiz-adv-x="534" d="M344 -10q-63 0 -119 21t-102 62t-73 109.5t-27 156.5q0 156 94 253.5t236 97.5q82 0 169 -27l-35 -180q-48 20 -90 20q-64 0 -107 -42.5t-43 -121.5t39.5 -121t106.5 -42q43 0 99 18l23 -174q-50 -19 -84.5 -24.5t-86.5 -5.5z" />
<glyph unicode="D" horiz-adv-x="637" d="M611 345q0 -165 -84.5 -255t-256.5 -90h-232v677h217q95 0 165 -25.5t111 -72t60.5 -105t19.5 -129.5zM399 345q0 76 -33 118t-96 42h-30v-333h34q125 0 125 173z" />
<glyph unicode="E" horiz-adv-x="504" d="M474 0h-438v677h424v-170h-218v-83h190v-170h-190v-82h232v-172z" />
<glyph unicode="F" horiz-adv-x="485" d="M468 495h-227v-85h207v-173h-207v-237h-205v677h432v-182z" />
<glyph unicode="G" horiz-adv-x="601" d="M567 23q-66 -33 -190 -33q-164 0 -258 89t-94 260q0 174 99.5 262.5t260.5 88.5q82 0 169 -27l-33 -181q-56 23 -114 23q-69 0 -114 -40.5t-45 -136.5q0 -139 115 -151v161h204v-315z" />
<glyph unicode="H" horiz-adv-x="639" d="M602 0h-204v254h-156v-254h-205v677h205v-253h156v253h204v-677z" />
<glyph unicode="I" horiz-adv-x="273" d="M239 0h-205v677h205v-677z" />
<glyph unicode="J" horiz-adv-x="440" d="M408 677v-431q0 -128 -60 -192.5t-167 -64.5q-80 0 -181 38l47 179q69 -26 100 -26q58 0 58 71v426h203z" />
<glyph unicode="K" horiz-adv-x="627" d="M243 677v-241l147 241h222l-194 -326l200 -351h-237l-138 248v-248h-206v677h206z" />
<glyph unicode="L" horiz-adv-x="465" d="M449 0h-413v677h206v-496h207v-181z" />
<glyph unicode="M" horiz-adv-x="795" d="M753 0h-197v285l-93 -224h-131l-98 223v-284h-195v677h214l143 -343l147 343h210v-677z" />
<glyph unicode="N" horiz-adv-x="638" d="M600 0h-175l-193 316v-316h-195v677h176l193 -311v311h194v-677z" />
<glyph unicode="O" horiz-adv-x="706" d="M681 342q0 -161 -87.5 -257t-242.5 -96q-147 0 -236.5 96.5t-89.5 256.5q0 68 19.5 128.5t58.5 110t103.5 79t147.5 29.5q148 0 237.5 -93t89.5 -254zM458 342q0 74 -28 119.5t-77 45.5t-77 -46t-28 -119q0 -74 28 -119.5t77 -45.5t77 45.5t28 119.5z" />
<glyph unicode="P" horiz-adv-x="569" d="M550 455q0 -111 -71.5 -172t-195.5 -61h-43v-222h-203v677h244q129 0 199 -60t70 -162zM344 454q0 25 -15.5 45.5t-49.5 20.5h-39v-141h43q30 0 45.5 22t15.5 53z" />
<glyph unicode="Q" horiz-adv-x="704" d="M681 342q0 -138 -64 -228l60 -56l-144 -161l-109 102q-40 -7 -73 -7q-147 0 -236.5 95.5t-89.5 254.5q0 68 19.5 128.5t58.5 110t103.5 79t147.5 29.5q148 0 237.5 -93t89.5 -254zM248 342q0 -124 51 -167l114 127l42 -39q3 51 3 62q0 182 -105 182q-50 0 -77.5 -43.5 t-27.5 -121.5z" />
<glyph unicode="R" horiz-adv-x="578" d="M580 0h-229l-110 229v-229h-204v677h242q129 0 197 -59.5t68 -158.5q0 -125 -101 -186zM339 453q0 27 -16.5 47t-45.5 20h-36v-143h30q31 0 49.5 22.5t18.5 53.5z" />
<glyph unicode="S" horiz-adv-x="533" d="M514 223q0 -103 -60 -169t-178 -66q-137 0 -267 54l55 176q49 -22 104 -37.5t85 -15.5q46 0 46 34q0 22 -33 33l-84 27q-82 27 -120 72.5t-38 123.5q0 110 65 172.5t168 62.5q117 0 231 -46l-48 -168q-110 35 -163 35q-18 0 -28.5 -9t-10.5 -21q0 -24 35 -34l78 -22 q163 -46 163 -202z" />
<glyph unicode="T" horiz-adv-x="551" d="M538 496h-155v-496h-205v496h-165v181h525v-181z" />
<glyph unicode="U" horiz-adv-x="632" d="M596 244q0 -122 -72.5 -188t-206.5 -66q-135 0 -207.5 66t-72.5 188v433h206v-417q0 -38 20 -61.5t54 -23.5t53.5 23.5t19.5 61.5v417h206v-433z" />
<glyph unicode="V" horiz-adv-x="672" d="M670 677l-250 -677h-170l-248 677h228l109 -342l111 342h220z" />
<glyph unicode="W" horiz-adv-x="913" d="M906 677l-160 -677h-213l-81 317l-81 -317h-206l-162 677h226l65 -347l85 347h165l96 -347l60 347h206z" />
<glyph unicode="X" horiz-adv-x="593" d="M604 0h-236l-76 138l-76 -138h-226l193 330l-194 347h236l79 -147l78 147h221l-193 -334z" />
<glyph unicode="Y" horiz-adv-x="631" d="M655 677l-233 -432v-245h-206v245l-237 432h236l108 -207l106 207h226z" />
<glyph unicode="Z" horiz-adv-x="546" d="M521 0h-503v165l240 342h-231v170h488v-156l-248 -349h254v-172z" />
<glyph unicode="[" horiz-adv-x="309" d="M297 -172h-280v912h280v-162h-91v-588h91v-162z" />
<glyph unicode="\" horiz-adv-x="524" d="M345 -74l-370 814h203l370 -814h-203z" />
<glyph unicode="]" horiz-adv-x="309" d="M297 -172h-280v162h92v588h-92v162h280v-912z" />
<glyph unicode="^" horiz-adv-x="636" d="M625 222h-212l-88 147l-91 -147h-209l241 381h118z" />
<glyph unicode="_" horiz-adv-x="646" d="M646 -172h-646v145h646v-145z" />
<glyph unicode="`" d="M326 548l-115 192h217l64 -192h-166z" />
<glyph unicode="a" horiz-adv-x="496" d="M468 0h-188v40q-28 -25 -56 -37.5t-73 -12.5q-57 0 -97.5 40t-40.5 107q0 72 56.5 119t202.5 64q-2 21 -12.5 31.5t-35.5 10.5q-49 0 -147 -35l-35 140q107 47 214 47q106 0 159 -53t53 -175v-286zM274 181v32q-34 -3 -57.5 -17t-23.5 -35q0 -17 9 -26.5t21 -9.5 q23 0 37 15.5t14 40.5z" />
<glyph unicode="b" horiz-adv-x="528" d="M225 740v-254q45 28 110 28q84 0 130.5 -65.5t46.5 -183.5q0 -121 -66.5 -199t-180.5 -78q-115 0 -176 62t-61 202v488h197zM223 287v-73q0 -66 40 -66q48 0 48 118q0 44 -13 65.5t-33 21.5q-42 0 -42 -66z" />
<glyph unicode="c" horiz-adv-x="410" d="M391 501l-10 -160q-36 11 -67 11q-92 0 -92 -105q0 -97 88 -97q24 0 67 10l10 -152q-53 -20 -132 -20q-104 0 -171 69.5t-67 188.5q0 70 25 124.5t65 84.5t83 45t86 15q73 0 115 -14z" />
<glyph unicode="d" horiz-adv-x="530" d="M17 240q0 121 63 195.5t183 74.5q12 0 42 -1v231h197v-740h-190v29q-49 -40 -119 -40q-85 0 -130.5 67.5t-45.5 183.5zM307 216v132q-10 5 -23 5q-65 0 -65 -116q0 -44 13 -65.5t33 -21.5q42 0 42 66z" />
<glyph unicode="e" horiz-adv-x="512" d="M496 267q0 -37 -6 -72h-277q19 -48 92 -48q76 0 146 20l28 -139q-107 -38 -207 -38q-116 0 -186 64t-70 192q0 108 70.5 188t185.5 80q107 0 165.5 -70.5t58.5 -176.5zM267 365q-43 0 -55 -62h101q0 26 -12.5 44t-33.5 18z" />
<glyph unicode="f" horiz-adv-x="376" d="M370 734l-11 -141q-24 3 -38 3q-41 0 -41 -52v-41h86v-160h-86v-343h-195v343h-75v160h75v39q0 205 189 205q54 0 96 -13z" />
<glyph unicode="g" horiz-adv-x="524" d="M496 483v-438q0 -112 -61.5 -170.5t-173.5 -58.5q-117 0 -189 31l34 141q71 -20 129 -20q31 0 48.5 16t17.5 44v5q-42 -18 -90 -18q-93 0 -144 63.5t-51 170.5q0 119 79 195q72 69 212 69q93 0 189 -30zM302 225v126q-10 5 -23 5q-65 0 -65 -107q0 -45 13 -67.5t33 -22.5 q42 0 42 66z" />
<glyph unicode="h" horiz-adv-x="513" d="M485 0h-196v292q0 61 -32 61q-33 0 -33 -60v-293h-196v740h196v-256q45 30 100 30q60 0 103 -38.5t53 -113.5q5 -26 5 -75v-287z" />
<glyph unicode="i" horiz-adv-x="252" d="M224 0h-195v503h195v-503zM23 644q0 43 30 73t73 30t73 -30t30 -73t-30 -73t-73 -30t-73 30t-30 73z" />
<glyph unicode="j" horiz-adv-x="252" d="M224 503v-482q0 -205 -193 -205q-35 0 -61 6v132l17 2q42 4 42 58v489h195zM24 644q0 43 30 73t73 30t73 -30t30 -73t-30 -73t-73 -30t-73 30t-30 73z" />
<glyph unicode="k" horiz-adv-x="548" d="M224 740v-401l102 164h219l-161 -243l164 -260h-222l-102 169v-169h-196v740h196z" />
<glyph unicode="l" horiz-adv-x="252" d="M224 0h-196v740h196v-740z" />
<glyph unicode="m" horiz-adv-x="774" d="M550 0v295q0 58 -32 58q-33 0 -33 -60v-293h-196v295q0 58 -32 58q-33 0 -33 -58v-295h-196v503h185v-28q55 39 120 39q79 0 109 -47q52 47 131 47q65 0 111.5 -38t57.5 -114q4 -28 4 -75v-287h-196z" />
<glyph unicode="n" horiz-adv-x="513" d="M485 0h-196v295q0 58 -32 58q-33 0 -33 -58v-295h-196v503h185v-29q19 16 49.5 28t59.5 12q63 0 105.5 -38t52.5 -114q5 -26 5 -75v-287z" />
<glyph unicode="o" d="M520 264q0 -127 -78.5 -201.5t-183.5 -74.5q-98 0 -169.5 67.5t-71.5 186.5q0 127 78.5 199.5t183.5 72.5q99 0 170 -66t71 -184zM319 255q0 41 -12 69.5t-36 28.5q-51 0 -51 -103q0 -42 12 -71t36 -29q51 0 51 105z" />
<glyph unicode="p" horiz-adv-x="530" d="M513 263q0 -120 -63 -191.5t-183 -71.5q-12 0 -42 1v-173h-197v675h190v-29q49 40 119 40q85 0 130.5 -67.5t45.5 -183.5zM223 287v-132q10 -5 23 -5q65 0 65 116q0 44 -13 65.5t-33 21.5q-42 0 -42 -66z" />
<glyph unicode="q" horiz-adv-x="526" d="M498 483v-655h-196v193q-41 -28 -110 -28q-84 0 -130 63.5t-46 181.5q0 128 70.5 202t192.5 74q123 0 219 -31zM306 216v135q-10 5 -23 5q-34 0 -50 -33.5t-16 -85.5q0 -44 13 -65.5t33 -21.5q43 0 43 66z" />
<glyph unicode="r" horiz-adv-x="373" d="M357 342h-20q-114 0 -114 -110v-232h-195v503h185v-37q62 48 144 48v-172z" />
<glyph unicode="s" horiz-adv-x="443" d="M429 158q0 -76 -56 -123t-153 -47q-51 0 -113.5 13t-103.5 31l44 137q101 -38 155 -38q32 0 32 23q0 18 -50 31q-28 7 -45.5 12.5t-43.5 18t-40.5 27.5t-26 40.5t-11.5 57.5q0 76 50.5 125t152.5 49q106 0 188 -39l-40 -128q-92 29 -130 29q-27 0 -27 -20q0 -17 49 -29 q35 -9 57.5 -17.5t52 -27t44.5 -50t15 -75.5z" />
<glyph unicode="t" horiz-adv-x="387" d="M377 343h-97v-343h-195v343h-75v160h75v174h195v-174h97v-160z" />
<glyph unicode="u" horiz-adv-x="513" d="M485 203q0 -102 -68 -158.5t-161 -56.5q-94 0 -161 56t-67 159v300h196v-311q0 -44 33 -44q32 0 32 44v311h196v-300z" />
<glyph unicode="v" d="M548 503l-187 -503h-187l-185 503h213l69 -220l68 220h209z" />
<glyph unicode="w" horiz-adv-x="761" d="M769 503l-170 -503h-154l-64 191l-65 -191h-155l-169 503h195l63 -203l69 203h133l64 -196l54 196h199z" />
<glyph unicode="x" horiz-adv-x="520" d="M532 0h-219l-63 108l-66 -108h-196l169 248l-161 255h213l59 -96l59 96h194l-161 -236z" />
<glyph unicode="y" horiz-adv-x="541" d="M555 503l-252 -675h-217l88 209l-189 466h216l76 -205l69 205h209z" />
<glyph unicode="z" horiz-adv-x="463" d="M435 0h-407v146l171 197h-170v160h406v-146l-174 -199h174v-158z" />
<glyph unicode="{" horiz-adv-x="341" d="M188 740h146v-162h-76q-16 0 -16 -15v-203q0 -31 -7.5 -48.5t-29.5 -32.5q23 -15 30 -31.5t7 -49.5v-203q0 -15 16 -15h76v-161h-146q-134 0 -134 132v232q0 31 -9.5 46t-52.5 50q42 35 52 50.5t10 46.5v232q0 132 134 132z" />
<glyph unicode="|" horiz-adv-x="339" d="M267 -75h-190v815h190v-815z" />
<glyph unicode="}" horiz-adv-x="341" d="M12 740h146q134 0 134 -132v-232q0 -31 9.5 -46.5t50.5 -50.5q-41 -35 -50.5 -50t-9.5 -46v-232q0 -132 -134 -132h-146v161h76q16 0 16 15v203q0 35 6 50t30 31q-24 16 -30 31t-6 50v203q0 15 -16 15h-76v162z" />
<glyph unicode="~" horiz-adv-x="632" d="M223 383q55 0 119 -32q39 -20 58 -20q36 0 36 49h178q0 -106 -50 -166t-138 -60q-55 0 -119 32q-39 20 -58 20q-36 0 -36 -49h-178q0 105 50.5 165.5t137.5 60.5z" />
<glyph unicode="&#xa1;" horiz-adv-x="269" d="M248 -172h-214l19 437h176zM246 403q0 -47 -33 -79.5t-79 -32.5q-47 0 -80 33t-33 79t33 79t80 33q46 0 79 -32.5t33 -79.5z" />
<glyph unicode="&#xa2;" horiz-adv-x="411" d="M405 498l-23 -158q-38 11 -66 11q-46 0 -72.5 -25.5t-26.5 -75.5q0 -43 24.5 -66.5t68.5 -23.5q32 0 72 12l22 -158q-23 -9 -59 -15v-140h-180v150q-71 26 -110.5 87t-39.5 146q0 80 39 147.5t111 100.5v145h180v-126z" />
<glyph unicode="&#xa3;" horiz-adv-x="500" d="M496 639l-53 -142q-54 27 -87 27q-51 0 -57 -58l-6 -56h109v-150h-122l-16 -110h206v-150h-453l18 51q32 92 41 209h-61v150h77l11 91q10 83 63 136t139 53q99 0 191 -51z" />
<glyph unicode="&#xa4;" horiz-adv-x="500" d="M250 441q42 0 73 -12l55 56l101 -102l-48 -49q17 -39 17 -80q0 -43 -18 -82l49 -49l-101 -103l-59 59q-29 -10 -69 -10q-38 0 -70 9l-58 -58l-101 103l47 47q-19 38 -19 84q0 45 19 83l-46 47l100 101l54 -55q35 11 74 11zM250 202q18 0 27 15t9 36q0 22 -9 38t-27 16 t-28 -16t-10 -39q0 -20 10 -35t28 -15z" />
<glyph unicode="&#xa5;" horiz-adv-x="607" d="M556 102h-151v-102h-204v102h-151v141h151v55h-151v141h88l-130 238h214l85 -157l81 157h208l-129 -238h89v-141h-151v-55h151v-141z" />
<glyph unicode="&#xa6;" horiz-adv-x="339" d="M267 401h-190v339h190v-339zM267 -74h-190v339h190v-339z" />
<glyph unicode="&#xa7;" horiz-adv-x="631" d="M365 265q0 19 -7 33.5t-22.5 24.5t-26.5 15t-34 13l-4 1q-15 -24 -15 -56q0 -33 22 -51t70 -36q17 30 17 56zM565 265q0 -77 -63 -154q34 -53 34 -104q0 -90 -60 -139.5t-162 -49.5q-88 0 -223 58l53 157q45 -23 90.5 -38t63.5 -15q37 0 37 27q0 30 -69 55q-39 14 -61 23 t-54.5 29t-50 42t-31 58.5t-13.5 81.5q0 80 63 153q-34 51 -34 106q0 77 60.5 133t161.5 56q86 0 223 -56l-53 -155l-63 25q-60 24 -95 24q-16 0 -24.5 -8t-8.5 -20q0 -10 3 -17t18.5 -17.5t44.5 -20.5l27 -9q40 -13 68.5 -27.5t57.5 -40t44.5 -65t15.5 -92.5z" />
<glyph unicode="&#xa8;" d="M57 639q0 39 27.5 67t66.5 28t67 -28t28 -67t-28 -66.5t-67 -27.5t-66.5 27.5t-27.5 66.5zM288 639q0 39 27.5 67t66.5 28t67 -28t28 -67t-28 -66.5t-67 -27.5t-66.5 27.5t-27.5 66.5z" />
<glyph unicode="&#xa9;" horiz-adv-x="808" d="M765 340q0 -67 -23 -129t-65.5 -112t-111 -80t-153.5 -30t-154 30t-112 80t-66 112t-23 129q0 66 22.5 127.5t65.5 111.5t112 80t155 30q85 0 154 -30t111.5 -80t65 -111.5t22.5 -127.5zM656 340q0 103 -64 178t-180 75q-117 0 -181.5 -75t-64.5 -178q0 -104 65 -180.5 t181 -76.5q115 0 179.5 76t64.5 181zM523 521l-18 -101q-29 12 -58 12q-41 0 -68.5 -24t-27.5 -69q0 -44 24.5 -68.5t68.5 -24.5q26 0 64 11l11 -98q-43 -17 -96 -17q-83 0 -138.5 50t-55.5 147t56.5 147.5t142.5 50.5q44 0 95 -16z" />
<glyph unicode="&#xaa;" horiz-adv-x="407" d="M374 377h-135v32q-39 -36 -93 -36q-42 0 -74 29.5t-32 77.5q0 54 43.5 85t149.5 43q-2 16 -9 23t-25 7q-40 0 -113 -25l-26 101q79 33 162 33q76 0 114 -38t38 -126v-206zM235 508v23q-59 -6 -59 -38q0 -12 6.5 -19t15.5 -7q16 0 26.5 11.5t10.5 29.5z" />
<glyph unicode="&#xab;" horiz-adv-x="548" d="M427 56l-177 210l177 210l103 -79l-105 -131l105 -131zM304 394l-103 -128l103 -128l-100 -83l-177 211l177 211z" />
<glyph unicode="&#xac;" horiz-adv-x="636" d="M587 58h-173v135h-367v140h540v-275z" />
<glyph unicode="&#xad;" horiz-adv-x="303" d="M16 183v160h276v-160h-276z" />
<glyph unicode="&#xae;" horiz-adv-x="808" d="M765 340q0 -67 -23 -129t-65.5 -112t-111 -80t-153.5 -30t-154 30t-112 80t-66 112t-23 129q0 66 22.5 127.5t65.5 111.5t112 80t155 30q85 0 154 -30t111.5 -80t65 -111.5t22.5 -127.5zM656 340q0 103 -64 178t-180 75q-117 0 -181.5 -75t-64.5 -178q0 -104 65 -180.5 t181 -76.5q115 0 179.5 76t64.5 181zM568 158h-119l-60 135v-135h-112v371h142q71 0 108.5 -33t37.5 -87q0 -74 -66 -107zM452 404q0 15 -9 27t-25 12h-29v-83h26q17 0 27 13t10 31z" />
<glyph unicode="&#xaf;" d="M450 579h-365v127h365v-127z" />
<glyph unicode="&#xb0;" horiz-adv-x="453" d="M270 528q0 20 -13 31.5t-31 11.5q-17 0 -29.5 -11.5t-12.5 -31.5q0 -21 13 -33t31 -12q17 0 29.5 11.5t12.5 33.5zM422 528q0 -85 -59 -133.5t-137 -48.5t-135.5 48.5t-57.5 133.5q0 84 57.5 132.5t135.5 48.5t137 -48.5t59 -132.5z" />
<glyph unicode="&#xb1;" horiz-adv-x="636" d="M565 0h-495v141h495v-141zM565 336h-167v-163h-162v163h-166v140h166v163h162v-163h167v-140z" />
<glyph unicode="&#xb2;" horiz-adv-x="463" d="M422 422v-142h-384v100l32 29l54 47l42 38q13 11 26 24.5t17.5 23.5t4.5 21q0 29 -25 29q-6 0 -12 -2t-11 -4t-13.5 -7.5l-13.5 -8.5l-17 -13q-12 -9 -18 -13l-71 128q109 75 202 75q76 0 123 -42.5t47 -103.5q0 -81 -111 -179h128z" />
<glyph unicode="&#xb3;" horiz-adv-x="428" d="M126 457l-1 108h59q12 0 19 7.5t7 17.5t-7.5 17t-20.5 7q-33 0 -97 -28l-46 115q98 46 182 46q66 0 112 -35t46 -92q0 -63 -47 -97q28 -17 43.5 -46t15.5 -60q0 -61 -53 -104.5t-132 -43.5q-87 0 -176 50l56 117q64 -28 101 -28q13 0 20.5 7t7.5 17t-7 17.5t-19 7.5h-63z " />
<glyph unicode="&#xb4;" d="M452 740l-115 -192h-166l64 192h217z" />
<glyph unicode="&#xb5;" horiz-adv-x="525" d="M295 503h196v-287q0 -224 -178 -224q-49 0 -83 17v-182h-196v676h196v-293q0 -58 33 -58q32 0 32 59v292z" />
<glyph unicode="&#xb6;" horiz-adv-x="686" d="M16 458q0 89 66.5 154t187.5 65h386v-158h-61v-691h-177v691h-28v-691h-176v412q-105 15 -151.5 75.5t-46.5 142.5z" />
<glyph unicode="&#xb7;" horiz-adv-x="278" d="M139 230q-47 0 -79.5 33t-32.5 79t32.5 79t79.5 33t79.5 -33t32.5 -79t-32.5 -79t-79.5 -33z" />
<glyph unicode="&#xb8;" d="M341 -37l-48 -147h-171l24 147h195z" />
<glyph unicode="&#xb9;" horiz-adv-x="331" d="M101 285v313h-78v142h267v-455h-189z" />
<glyph unicode="&#xba;" horiz-adv-x="433" d="M401 568q0 -92 -56.5 -144t-132.5 -52q-71 0 -122.5 47.5t-51.5 132.5q0 91 56.5 143t132.5 52q71 0 122.5 -47t51.5 -132zM256 561q0 71 -35 71q-36 0 -36 -74q0 -30 8.5 -51t25.5 -21q37 0 37 75z" />
<glyph unicode="&#xbb;" horiz-adv-x="548" d="M130 476l177 -210l-177 -210l-103 79l105 131l-105 131zM253 138l103 128l-103 128l100 83l177 -211l-177 -211z" />
<glyph unicode="&#xbc;" horiz-adv-x="1000" d="M952 210v-120h-61v-90h-177v90h-168v95l150 284h194v-259h62zM714 210v86l-47 -86h47zM129 285v313h-77v142h266v-455h-189zM522 740h199l-303 -740h-200z" />
<glyph unicode="&#xbd;" horiz-adv-x="1000" d="M119 285v313h-77v142h266v-455h-189zM512 740h199l-303 -740h-200zM945 142v-142h-352v113l17 14q106 88 120 103q24 25 24 48q0 29 -31 29q-20 0 -68 -36l-68 125q98 66 188 66q76 0 123 -42.5t47 -103.5q0 -44 -27 -84t-84 -90h111z" />
<glyph unicode="&#xbe;" horiz-adv-x="1000" d="M549 740h199l-303 -740h-200zM962 210v-120h-51v-90h-177v90h-168v95l150 284h194v-259h52zM113 457l-1 108h59q12 0 19 7.5t7 17.5t-7.5 17t-20.5 7q-33 0 -97 -28l-37 119q90 42 173 42q66 0 112 -35t46 -92q0 -63 -47 -97q28 -17 43.5 -46t15.5 -60q0 -61 -53 -104.5 t-132 -43.5q-86 0 -164 44l44 123q64 -28 101 -28q13 0 20.5 7t7.5 17t-7 17.5t-19 7.5h-63zM734 210v86l-47 -86h47z" />
<glyph unicode="&#xbf;" horiz-adv-x="513" d="M28 14q0 35 9 62t28 46.5t34.5 31t41.5 26.5q27 16 33 29t7 56h186q9 -37 9 -75q0 -50 -28 -80t-81 -55q-41 -19 -41 -41q0 -23 33 -23q49 0 156 57l64 -150q-128 -82 -239 -82q-92 0 -152 51t-60 147zM382 403q0 -47 -33 -79.5t-79 -32.5q-47 0 -80 33t-33 79t33 79 t80 33q46 0 79 -32.5t33 -79.5z" />
<glyph unicode="&#xc0;" horiz-adv-x="713" d="M491 0l-39 120h-199l-40 -120h-220l248 677h237l242 -677h-229zM405 275l-52 155l-52 -155h104zM271 719l-115 192h217l64 -192h-166z" />
<glyph unicode="&#xc1;" horiz-adv-x="713" d="M491 0l-39 120h-199l-40 -120h-220l248 677h237l242 -677h-229zM405 275l-52 155l-52 -155h104zM549 911l-115 -192h-166l64 192h217z" />
<glyph unicode="&#xc2;" horiz-adv-x="713" d="M491 0l-39 120h-199l-40 -120h-220l248 677h237l242 -677h-229zM405 275l-52 155l-52 -155h104zM563 719h-159l-45 67l-46 -67h-159l118 192h173z" />
<glyph unicode="&#xc3;" horiz-adv-x="713" d="M491 0l-39 120h-199l-40 -120h-220l248 677h237l242 -677h-229zM405 275l-52 155l-52 -155h104zM427 894h134v-25q0 -75 -35 -113.5t-84 -38.5q-36 0 -78 18t-52 18q-22 0 -22 -34h-134v24q0 76 35 114.5t84 38.5q33 0 76 -18t54 -18q22 0 22 34z" />
<glyph unicode="&#xc4;" horiz-adv-x="713" d="M491 0l-39 120h-199l-40 -120h-220l248 677h237l242 -677h-229zM405 275l-52 155l-52 -155h104zM149 805q0 39 27.5 67t66.5 28t67 -28t28 -67t-28 -66.5t-67 -27.5t-66.5 27.5t-27.5 66.5zM380 805q0 39 27.5 67t66.5 28t67 -28t28 -67t-28 -66.5t-67 -27.5t-66.5 27.5 t-27.5 66.5z" />
<glyph unicode="&#xc5;" horiz-adv-x="713" d="M491 0l-39 120h-199l-40 -120h-220l248 677h237l242 -677h-229zM405 275l-52 155l-52 -155h104zM245 801q0 47 32.5 78.5t80.5 31.5t81 -31.5t33 -78.5t-33 -78.5t-81 -31.5t-80.5 31.5t-32.5 78.5zM326 801q0 -13 9 -22.5t23 -9.5t23 9.5t9 22.5t-9 22.5t-23 9.5 t-23 -9.5t-9 -22.5z" />
<glyph unicode="&#xc6;" horiz-adv-x="913" d="M883 0h-440v126h-169l-67 -126h-223l378 677h506v-170h-220v-83h192v-170h-192v-83h235v-171zM354 275h89v165z" />
<glyph unicode="&#xc7;" horiz-adv-x="534" d="M344 -10q-63 0 -119 21t-102 62t-73 109.5t-27 156.5q0 156 94 253.5t236 97.5q82 0 169 -27l-35 -180q-48 20 -90 20q-64 0 -107 -42.5t-43 -121.5t39.5 -121t106.5 -42q43 0 99 18l23 -174q-50 -19 -84.5 -24.5t-86.5 -5.5zM380 -37l-48 -147h-171l24 147h195z" />
<glyph unicode="&#xc8;" horiz-adv-x="504" d="M474 0h-438v677h424v-170h-218v-83h190v-170h-190v-82h232v-172zM204 719l-115 192h217l64 -192h-166z" />
<glyph unicode="&#xc9;" horiz-adv-x="504" d="M474 0h-438v677h424v-170h-218v-83h190v-170h-190v-82h232v-172zM430 911l-115 -192h-166l64 192h217z" />
<glyph unicode="&#xca;" horiz-adv-x="504" d="M474 0h-438v677h424v-170h-218v-83h190v-170h-190v-82h232v-172zM464 719h-159l-45 67l-46 -67h-159l118 192h173z" />
<glyph unicode="&#xcb;" horiz-adv-x="504" d="M474 0h-438v677h424v-170h-218v-83h190v-170h-190v-82h232v-172zM49 805q0 39 27.5 67t66.5 28t67 -28t28 -67t-28 -66.5t-67 -27.5t-66.5 27.5t-27.5 66.5zM280 805q0 39 27.5 67t66.5 28t67 -28t28 -67t-28 -66.5t-67 -27.5t-66.5 27.5t-27.5 66.5z" />
<glyph unicode="&#xcc;" horiz-adv-x="264" d="M239 0h-205v677h205v-677zM74 719l-115 192h217l64 -192h-166z" />
<glyph unicode="&#xcd;" horiz-adv-x="264" d="M239 0h-205v677h205v-677zM320 911l-115 -192h-166l64 192h217z" />
<glyph unicode="&#xce;" horiz-adv-x="264" d="M239 0h-205v677h205v-677zM344 719h-159l-45 67l-46 -67h-159l118 192h173z" />
<glyph unicode="&#xcf;" horiz-adv-x="264" d="M239 0h-205v677h205v-677zM-71 805q0 39 27.5 67t66.5 28t67 -28t28 -67t-28 -66.5t-67 -27.5t-66.5 27.5t-27.5 66.5zM160 805q0 39 27.5 67t66.5 28t67 -28t28 -67t-28 -66.5t-67 -27.5t-66.5 27.5t-27.5 66.5z" />
<glyph unicode="&#xd0;" horiz-adv-x="635" d="M-25 412h62v265h211q185 0 273.5 -92t88.5 -240q0 -164 -87 -254.5t-260 -90.5h-226v260h-62v152zM393 345q0 80 -36.5 120t-100.5 40h-17v-93h94v-152h-94v-88h28q68 0 97 44.5t29 128.5z" />
<glyph unicode="&#xd1;" horiz-adv-x="638" d="M600 0h-175l-193 316v-316h-195v677h176l193 -311v311h194v-677zM394 894h134v-25q0 -75 -35 -113.5t-84 -38.5q-36 0 -78 18t-52 18q-22 0 -22 -34h-134v24q0 76 35 114.5t84 38.5q33 0 76 -18t54 -18q22 0 22 34z" />
<glyph unicode="&#xd2;" horiz-adv-x="706" d="M681 342q0 -161 -87.5 -257t-242.5 -96q-147 0 -236.5 96.5t-89.5 256.5q0 68 19.5 128.5t58.5 110t103.5 79t147.5 29.5q148 0 237.5 -93t89.5 -254zM458 342q0 74 -28 119.5t-77 45.5t-77 -46t-28 -119q0 -74 28 -119.5t77 -45.5t77 45.5t28 119.5zM264 719l-115 192 h217l64 -192h-166z" />
<glyph unicode="&#xd3;" horiz-adv-x="706" d="M681 342q0 -161 -87.5 -257t-242.5 -96q-147 0 -236.5 96.5t-89.5 256.5q0 68 19.5 128.5t58.5 110t103.5 79t147.5 29.5q148 0 237.5 -93t89.5 -254zM458 342q0 74 -28 119.5t-77 45.5t-77 -46t-28 -119q0 -74 28 -119.5t77 -45.5t77 45.5t28 119.5zM530 911l-115 -192 h-166l64 192h217z" />
<glyph unicode="&#xd4;" horiz-adv-x="706" d="M681 342q0 -161 -87.5 -257t-242.5 -96q-147 0 -236.5 96.5t-89.5 256.5q0 68 19.5 128.5t58.5 110t103.5 79t147.5 29.5q148 0 237.5 -93t89.5 -254zM458 342q0 74 -28 119.5t-77 45.5t-77 -46t-28 -119q0 -74 28 -119.5t77 -45.5t77 45.5t28 119.5zM560 719h-159 l-45 67l-46 -67h-159l118 192h173z" />
<glyph unicode="&#xd5;" horiz-adv-x="706" d="M681 342q0 -161 -87.5 -257t-242.5 -96q-147 0 -236.5 96.5t-89.5 256.5q0 68 19.5 128.5t58.5 110t103.5 79t147.5 29.5q148 0 237.5 -93t89.5 -254zM458 342q0 74 -28 119.5t-77 45.5t-77 -46t-28 -119q0 -74 28 -119.5t77 -45.5t77 45.5t28 119.5zM428 894h134v-25 q0 -75 -35 -113.5t-84 -38.5q-36 0 -78 18t-52 18q-22 0 -22 -34h-134v24q0 76 35 114.5t84 38.5q33 0 76 -18t54 -18q22 0 22 34z" />
<glyph unicode="&#xd6;" horiz-adv-x="706" d="M681 342q0 -161 -87.5 -257t-242.5 -96q-147 0 -236.5 96.5t-89.5 256.5q0 68 19.5 128.5t58.5 110t103.5 79t147.5 29.5q148 0 237.5 -93t89.5 -254zM458 342q0 74 -28 119.5t-77 45.5t-77 -46t-28 -119q0 -74 28 -119.5t77 -45.5t77 45.5t28 119.5zM150 805 q0 39 27.5 67t66.5 28t67 -28t28 -67t-28 -66.5t-67 -27.5t-66.5 27.5t-27.5 66.5zM381 805q0 39 27.5 67t66.5 28t67 -28t28 -67t-28 -66.5t-67 -27.5t-66.5 27.5t-27.5 66.5z" />
<glyph unicode="&#xd7;" horiz-adv-x="636" d="M537 393l-128 -130l128 -130l-101 -103l-128 129l-128 -129l-101 103l128 130l-127 131l100 101l128 -129l128 129z" />
<glyph unicode="&#xd8;" horiz-adv-x="706" d="M681 338q0 -161 -87.5 -255t-242.5 -94q-71 0 -132 23l-45 -63l-134 89l52 72q-67 96 -67 228q0 68 19.5 129t58.5 111.5t103.5 80.5t147.5 30q72 0 133 -25q45 63 47 66l133 -90l-52 -74q66 -88 66 -228zM468 342v20l-146 -202q12 -4 31 -4q56 0 85.5 49t29.5 137z M238 342v-24l143 201q-9 3 -29 3q-114 0 -114 -180z" />
<glyph unicode="&#xd9;" horiz-adv-x="632" d="M596 244q0 -122 -72.5 -188t-206.5 -66q-135 0 -207.5 66t-72.5 188v433h206v-417q0 -38 20 -61.5t54 -23.5t53.5 23.5t19.5 61.5v417h206v-433zM228 719l-115 192h217l64 -192h-166z" />
<glyph unicode="&#xda;" horiz-adv-x="632" d="M596 244q0 -122 -72.5 -188t-206.5 -66q-135 0 -207.5 66t-72.5 188v433h206v-417q0 -38 20 -61.5t54 -23.5t53.5 23.5t19.5 61.5v417h206v-433zM514 911l-115 -192h-166l64 192h217z" />
<glyph unicode="&#xdb;" horiz-adv-x="632" d="M596 244q0 -122 -72.5 -188t-206.5 -66q-135 0 -207.5 66t-72.5 188v433h206v-417q0 -38 20 -61.5t54 -23.5t53.5 23.5t19.5 61.5v417h206v-433zM523 719h-159l-45 67l-46 -67h-159l118 192h173z" />
<glyph unicode="&#xdc;" horiz-adv-x="632" d="M596 244q0 -122 -72.5 -188t-206.5 -66q-135 0 -207.5 66t-72.5 188v433h206v-417q0 -38 20 -61.5t54 -23.5t53.5 23.5t19.5 61.5v417h206v-433zM113 805q0 39 27.5 67t66.5 28t67 -28t28 -67t-28 -66.5t-67 -27.5t-66.5 27.5t-27.5 66.5zM344 805q0 39 27.5 67t66.5 28 t67 -28t28 -67t-28 -66.5t-67 -27.5t-66.5 27.5t-27.5 66.5z" />
<glyph unicode="&#xdd;" horiz-adv-x="631" d="M645 677l-233 -432v-245h-206v245l-237 432h236l108 -207l106 207h226zM522 911l-115 -192h-166l64 192h217z" />
<glyph unicode="&#xde;" horiz-adv-x="571" d="M551 359q0 -112 -72.5 -180t-194.5 -68h-44v-111h-203v677h203v-83h42q128 0 198.5 -65.5t70.5 -169.5zM345 355q0 26 -15.5 46.5t-49.5 20.5h-40v-142h44q30 0 45.5 22t15.5 53z" />
<glyph unicode="&#xdf;" horiz-adv-x="549" d="M227 0h-197v499q0 246 246 246q100 0 165 -56t65 -146q0 -102 -69 -164q48 -26 73 -75.5t25 -106.5q0 -107 -71 -163q-50 -39 -126 -39q-45 0 -90 13l9 156q12 -2 23 -2q22 0 35 18.5t13 47.5q0 40 -26 58q-14 9 -44 9h-5v150h5q22 0 31 9q19 19 19 66q0 29 -10.5 50 t-30.5 21q-40 0 -40 -64v-527z" />
<glyph unicode="&#xe0;" horiz-adv-x="496" d="M468 0h-188v40q-28 -25 -56 -37.5t-73 -12.5q-57 0 -97.5 40t-40.5 107q0 72 56.5 119t202.5 64q-2 21 -12.5 31.5t-35.5 10.5q-49 0 -147 -35l-35 140q107 47 214 47q106 0 159 -53t53 -175v-286zM274 181v32q-34 -3 -57.5 -17t-23.5 -35q0 -17 9 -26.5t21 -9.5 q23 0 37 15.5t14 40.5zM216 548l-115 192h217l64 -192h-166z" />
<glyph unicode="&#xe1;" horiz-adv-x="496" d="M468 0h-188v40q-28 -25 -56 -37.5t-73 -12.5q-57 0 -97.5 40t-40.5 107q0 72 56.5 119t202.5 64q-2 21 -12.5 31.5t-35.5 10.5q-49 0 -147 -35l-35 140q107 47 214 47q106 0 159 -53t53 -175v-286zM274 181v32q-34 -3 -57.5 -17t-23.5 -35q0 -17 9 -26.5t21 -9.5 q23 0 37 15.5t14 40.5zM413 740l-115 -192h-166l64 192h217z" />
<glyph unicode="&#xe2;" horiz-adv-x="496" d="M468 0h-188v40q-28 -25 -56 -37.5t-73 -12.5q-57 0 -97.5 40t-40.5 107q0 72 56.5 119t202.5 64q-2 21 -12.5 31.5t-35.5 10.5q-49 0 -147 -35l-35 140q107 47 214 47q106 0 159 -53t53 -175v-286zM274 181v32q-34 -3 -57.5 -17t-23.5 -35q0 -17 9 -26.5t21 -9.5 q23 0 37 15.5t14 40.5zM458 548h-159l-45 67l-46 -67h-159l118 192h173z" />
<glyph unicode="&#xe3;" horiz-adv-x="496" d="M468 0h-188v40q-28 -25 -56 -37.5t-73 -12.5q-57 0 -97.5 40t-40.5 107q0 72 56.5 119t202.5 64q-2 21 -12.5 31.5t-35.5 10.5q-49 0 -147 -35l-35 140q107 47 214 47q106 0 159 -53t53 -175v-286zM274 181v32q-34 -3 -57.5 -17t-23.5 -35q0 -17 9 -26.5t21 -9.5 q23 0 37 15.5t14 40.5zM322 731h134v-25q0 -75 -35 -113.5t-84 -38.5q-36 0 -78 18t-52 18q-22 0 -22 -34h-134v24q0 76 35 114.5t84 38.5q33 0 76 -18t54 -18q22 0 22 34z" />
<glyph unicode="&#xe4;" horiz-adv-x="496" d="M468 0h-188v40q-28 -25 -56 -37.5t-73 -12.5q-57 0 -97.5 40t-40.5 107q0 72 56.5 119t202.5 64q-2 21 -12.5 31.5t-35.5 10.5q-49 0 -147 -35l-35 140q107 47 214 47q106 0 159 -53t53 -175v-286zM274 181v32q-34 -3 -57.5 -17t-23.5 -35q0 -17 9 -26.5t21 -9.5 q23 0 37 15.5t14 40.5zM44 639q0 39 27.5 67t66.5 28t67 -28t28 -67t-28 -66.5t-67 -27.5t-66.5 27.5t-27.5 66.5zM275 639q0 39 27.5 67t66.5 28t67 -28t28 -67t-28 -66.5t-67 -27.5t-66.5 27.5t-27.5 66.5z" />
<glyph unicode="&#xe5;" horiz-adv-x="496" d="M468 0h-188v40q-28 -25 -56 -37.5t-73 -12.5q-57 0 -97.5 40t-40.5 107q0 72 56.5 119t202.5 64q-2 21 -12.5 31.5t-35.5 10.5q-49 0 -147 -35l-35 140q107 47 214 47q106 0 159 -53t53 -175v-286zM274 181v32q-34 -3 -57.5 -17t-23.5 -35q0 -17 9 -26.5t21 -9.5 q23 0 37 15.5t14 40.5zM140 644q0 47 32.5 78.5t80.5 31.5t81 -31.5t33 -78.5t-33 -78.5t-81 -31.5t-80.5 31.5t-32.5 78.5zM221 644q0 -14 9.5 -23t22.5 -9t22.5 9t9.5 23t-9.5 23t-22.5 9t-22.5 -9t-9.5 -23z" />
<glyph unicode="&#xe6;" horiz-adv-x="767" d="M751 270q0 -37 -6 -72h-277q19 -48 92 -48q71 0 141 20l28 -142q-101 -36 -202 -36q-111 0 -176 56q-82 -56 -185 -56q-62 0 -107.5 38.5t-45.5 112.5q0 75 58.5 117.5t204.5 59.5q-6 42 -53 42q-49 0 -147 -35l-35 140q107 47 214 47q90 0 138 -38q61 38 134 38 q107 0 165.5 -69.5t58.5 -174.5zM278 181v32q-35 -3 -60.5 -17t-25.5 -35q0 -17 9 -26.5t21 -9.5q23 0 39.5 16t16.5 40zM522 365q-43 0 -55 -59h101q0 26 -12.5 42.5t-33.5 16.5z" />
<glyph unicode="&#xe7;" horiz-adv-x="418" d="M399 501l-10 -160q-36 11 -67 11q-92 0 -92 -105q0 -97 88 -97q24 0 67 10l10 -152q-53 -20 -132 -20q-104 0 -171 69.5t-67 188.5q0 70 25 124.5t65 84.5t83 45t86 15q73 0 115 -14zM337 -37l-48 -147h-171l24 147h195z" />
<glyph unicode="&#xe8;" horiz-adv-x="512" d="M496 267q0 -37 -6 -72h-277q19 -48 92 -48q76 0 146 20l28 -139q-107 -38 -207 -38q-116 0 -186 64t-70 192q0 108 70.5 188t185.5 80q107 0 165.5 -70.5t58.5 -176.5zM267 365q-43 0 -55 -62h101q0 26 -12.5 44t-33.5 18zM199 548l-115 192h217l64 -192h-166z" />
<glyph unicode="&#xe9;" horiz-adv-x="512" d="M496 267q0 -37 -6 -72h-277q19 -48 92 -48q76 0 146 20l28 -139q-107 -38 -207 -38q-116 0 -186 64t-70 192q0 108 70.5 188t185.5 80q107 0 165.5 -70.5t58.5 -176.5zM267 365q-43 0 -55 -62h101q0 26 -12.5 44t-33.5 18zM446 740l-115 -192h-166l64 192h217z" />
<glyph unicode="&#xea;" horiz-adv-x="512" d="M496 267q0 -37 -6 -72h-277q19 -48 92 -48q76 0 146 20l28 -139q-107 -38 -207 -38q-116 0 -186 64t-70 192q0 108 70.5 188t185.5 80q107 0 165.5 -70.5t58.5 -176.5zM267 365q-43 0 -55 -62h101q0 26 -12.5 44t-33.5 18zM471 548h-159l-45 67l-46 -67h-159l118 192h173 z" />
<glyph unicode="&#xeb;" horiz-adv-x="512" d="M496 267q0 -37 -6 -72h-277q19 -48 92 -48q76 0 146 20l28 -139q-107 -38 -207 -38q-116 0 -186 64t-70 192q0 108 70.5 188t185.5 80q107 0 165.5 -70.5t58.5 -176.5zM267 365q-43 0 -55 -62h101q0 26 -12.5 44t-33.5 18zM57 639q0 39 27.5 67t66.5 28t67 -28t28 -67 t-28 -66.5t-67 -27.5t-66.5 27.5t-27.5 66.5zM288 639q0 39 27.5 67t66.5 28t67 -28t28 -67t-28 -66.5t-67 -27.5t-66.5 27.5t-27.5 66.5z" />
<glyph unicode="&#xec;" horiz-adv-x="252" d="M224 0h-195v503h195v-503zM60 548l-115 192h217l64 -192h-166z" />
<glyph unicode="&#xed;" horiz-adv-x="252" d="M224 0h-195v503h195v-503zM312 740l-115 -192h-166l64 192h217z" />
<glyph unicode="&#xee;" horiz-adv-x="252" d="M224 0h-195v503h195v-503zM337 548h-159l-45 67l-46 -67h-159l118 192h173z" />
<glyph unicode="&#xef;" horiz-adv-x="252" d="M224 0h-195v503h195v-503zM-78 639q0 39 27.5 67t66.5 28t67 -28t28 -67t-28 -66.5t-67 -27.5t-66.5 27.5t-27.5 66.5zM153 639q0 39 27.5 67t66.5 28t67 -28t28 -67t-28 -66.5t-67 -27.5t-66.5 27.5t-27.5 66.5z" />
<glyph unicode="&#xf0;" horiz-adv-x="571" d="M527 308q0 -316 -248 -316q-118 0 -181.5 71.5t-63.5 168.5q0 93 56 157t146 64q35 0 69 -10q-7 37 -36 66l-63 -46l-95 89l33 25q-31 7 -77 16l40 155q116 -6 201 -47l61 48l90 -96l-41 -32q109 -117 109 -313zM278 150q47 0 47 89q0 82 -48 82q-38 0 -38 -72 q0 -99 39 -99z" />
<glyph unicode="&#xf1;" horiz-adv-x="513" d="M485 0h-196v295q0 58 -32 58q-33 0 -33 -58v-295h-196v503h185v-29q19 16 49.5 28t59.5 12q63 0 105.5 -38t52.5 -114q5 -26 5 -75v-287zM332 731h134v-25q0 -75 -35 -113.5t-84 -38.5q-36 0 -78 18t-52 18q-22 0 -22 -34h-134v24q0 76 35 114.5t84 38.5q33 0 76 -18 t54 -18q22 0 22 34z" />
<glyph unicode="&#xf2;" d="M520 264q0 -127 -78.5 -201.5t-183.5 -74.5q-98 0 -169.5 67.5t-71.5 186.5q0 127 78.5 199.5t183.5 72.5q99 0 170 -66t71 -184zM319 255q0 41 -12 69.5t-36 28.5q-51 0 -51 -103q0 -42 12 -71t36 -29q51 0 51 105zM178 548l-115 192h217l64 -192h-166z" />
<glyph unicode="&#xf3;" d="M520 264q0 -127 -78.5 -201.5t-183.5 -74.5q-98 0 -169.5 67.5t-71.5 186.5q0 127 78.5 199.5t183.5 72.5q99 0 170 -66t71 -184zM319 255q0 41 -12 69.5t-36 28.5q-51 0 -51 -103q0 -42 12 -71t36 -29q51 0 51 105zM445 740l-115 -192h-166l64 192h217z" />
<glyph unicode="&#xf4;" d="M520 264q0 -127 -78.5 -201.5t-183.5 -74.5q-98 0 -169.5 67.5t-71.5 186.5q0 127 78.5 199.5t183.5 72.5q99 0 170 -66t71 -184zM319 255q0 41 -12 69.5t-36 28.5q-51 0 -51 -103q0 -42 12 -71t36 -29q51 0 51 105zM475 548h-159l-45 67l-46 -67h-159l118 192h173z" />
<glyph unicode="&#xf5;" d="M520 264q0 -127 -78.5 -201.5t-183.5 -74.5q-98 0 -169.5 67.5t-71.5 186.5q0 127 78.5 199.5t183.5 72.5q99 0 170 -66t71 -184zM319 255q0 41 -12 69.5t-36 28.5q-51 0 -51 -103q0 -42 12 -71t36 -29q51 0 51 105zM337 731h134v-25q0 -75 -35 -113.5t-84 -38.5 q-36 0 -78 18t-52 18q-22 0 -22 -34h-134v24q0 76 35 114.5t84 38.5q33 0 76 -18t54 -18q22 0 22 34z" />
<glyph unicode="&#xf6;" d="M520 264q0 -127 -78.5 -201.5t-183.5 -74.5q-98 0 -169.5 67.5t-71.5 186.5q0 127 78.5 199.5t183.5 72.5q99 0 170 -66t71 -184zM319 255q0 41 -12 69.5t-36 28.5q-51 0 -51 -103q0 -42 12 -71t36 -29q51 0 51 105zM58 639q0 39 27.5 67t66.5 28t67 -28t28 -67 t-28 -66.5t-67 -27.5t-66.5 27.5t-27.5 66.5zM289 639q0 39 27.5 67t66.5 28t67 -28t28 -67t-28 -66.5t-67 -27.5t-66.5 27.5t-27.5 66.5z" />
<glyph unicode="&#xf7;" horiz-adv-x="636" d="M579 193h-525v140h525v-140zM225 80q0 38 27 65.5t65 27.5t65.5 -27.5t27.5 -65.5t-27.5 -65t-65.5 -27t-65 27t-27 65zM225 445q0 38 27 65.5t65 27.5t65.5 -27.5t27.5 -65.5t-27.5 -65t-65.5 -27t-65 27t-27 65z" />
<glyph unicode="&#xf8;" d="M237 135q11 -6 24 -6q34 0 54.5 33.5t20.5 92.5v17zM520 264q0 -127 -78.5 -199.5t-183.5 -72.5q-50 0 -90 16l-33 -49l-105 69l37 53q-50 66 -50 161q0 127 78.5 199t183.5 72q50 0 87 -15l33 46l106 -69l-36 -49q51 -67 51 -162zM294 371q-10 6 -24 6 q-34 0 -54.5 -33.5t-20.5 -92.5v-17z" />
<glyph unicode="&#xf9;" horiz-adv-x="513" d="M485 203q0 -102 -68 -158.5t-161 -56.5q-94 0 -161 56t-67 159v300h196v-309q0 -23 9.5 -34.5t23.5 -11.5q13 0 22.5 12t9.5 34v309h196v-300zM176 548l-115 192h217l64 -192h-166z" />
<glyph unicode="&#xfa;" horiz-adv-x="513" d="M485 203q0 -102 -68 -158.5t-161 -56.5q-94 0 -161 56t-67 159v300h196v-309q0 -23 9.5 -34.5t23.5 -11.5q13 0 22.5 12t9.5 34v309h196v-300zM443 740l-115 -192h-166l64 192h217z" />
<glyph unicode="&#xfb;" horiz-adv-x="513" d="M485 203q0 -102 -68 -158.5t-161 -56.5q-94 0 -161 56t-67 159v300h196v-309q0 -23 9.5 -34.5t23.5 -11.5q13 0 22.5 12t9.5 34v309h196v-300zM462 548h-159l-45 67l-46 -67h-159l118 192h173z" />
<glyph unicode="&#xfc;" horiz-adv-x="513" d="M485 203q0 -102 -68 -158.5t-161 -56.5q-94 0 -161 56t-67 159v300h196v-309q0 -23 9.5 -34.5t23.5 -11.5q13 0 22.5 12t9.5 34v309h196v-300zM47 639q0 39 27.5 67t66.5 28t67 -28t28 -67t-28 -66.5t-67 -27.5t-66.5 27.5t-27.5 66.5zM278 639q0 39 27.5 67t66.5 28 t67 -28t28 -67t-28 -66.5t-67 -27.5t-66.5 27.5t-27.5 66.5z" />
<glyph unicode="&#xfd;" horiz-adv-x="541" d="M555 503l-252 -675h-217l88 209l-189 466h216l76 -205l69 205h209zM454 740l-115 -192h-166l64 192h217z" />
<glyph unicode="&#xfe;" horiz-adv-x="531" d="M516 263q0 -122 -69.5 -196t-190.5 -74h-25v-165h-197v912h195v-262q47 36 107 36q84 0 132 -68t48 -183zM229 287v-132q10 -5 22 -5q60 0 60 116q0 87 -43 87q-39 0 -39 -66z" />
<glyph unicode="&#xff;" horiz-adv-x="541" d="M555 503l-252 -675h-217l88 209l-189 466h216l76 -205l69 205h209zM68 639q0 39 27.5 67t66.5 28t67 -28t28 -67t-28 -66.5t-67 -27.5t-66.5 27.5t-27.5 66.5zM299 639q0 39 27.5 67t66.5 28t67 -28t28 -67t-28 -66.5t-67 -27.5t-66.5 27.5t-27.5 66.5z" />
<glyph unicode="&#x152;" horiz-adv-x="931" d="M908 0h-449q-61 -11 -108 -11q-147 0 -236.5 96.5t-89.5 256.5q0 68 19.5 128.5t58.5 110t103.5 79t147.5 29.5q48 0 105 -12h435v-171h-230v-82h202v-170h-202v-83h244v-171zM458 342q0 78 -27.5 121.5t-77.5 43.5t-77.5 -43.5t-27.5 -121.5t27.5 -121.5t77.5 -43.5 t77.5 43.5t27.5 121.5z" />
<glyph unicode="&#x153;" horiz-adv-x="806" d="M790 270q0 -37 -6 -72h-272q19 -48 97 -48q66 0 136 20l28 -142q-107 -38 -197 -38q-105 0 -168 50q-66 -48 -151 -48q-99 0 -170 66t-71 184q0 127 78.5 199t183.5 72q86 0 147 -49q63 50 151 50q106 0 160 -68.5t54 -175.5zM318 255q0 42 -12 73t-36 31q-51 0 -51 -109 q0 -42 12 -71t36 -29q51 0 51 105zM567 361q-44 0 -56 -59h102q0 26 -12.5 42.5t-33.5 16.5z" />
<glyph unicode="&#x178;" horiz-adv-x="631" d="M645 677l-233 -432v-245h-206v245l-237 432h236l108 -207l106 207h226zM112 805q0 39 27.5 67t66.5 28t67 -28t28 -67t-28 -66.5t-67 -27.5t-66.5 27.5t-27.5 66.5zM343 805q0 39 27.5 67t66.5 28t67 -28t28 -67t-28 -66.5t-67 -27.5t-66.5 27.5t-27.5 66.5z" />
<glyph unicode="&#x2c6;" d="M472 548h-159l-45 67l-46 -67h-159l118 192h173z" />
<glyph unicode="&#x2dc;" d="M336 731h134v-25q0 -75 -35 -113.5t-84 -38.5q-36 0 -78 18t-52 18q-22 0 -22 -34h-134v24q0 76 35 114.5t84 38.5q33 0 76 -18t54 -18q22 0 22 34z" />
<glyph unicode="&#x2000;" horiz-adv-x="455" />
<glyph unicode="&#x2001;" horiz-adv-x="911" />
<glyph unicode="&#x2002;" horiz-adv-x="455" />
<glyph unicode="&#x2003;" horiz-adv-x="911" />
<glyph unicode="&#x2004;" horiz-adv-x="303" />
<glyph unicode="&#x2005;" horiz-adv-x="227" />
<glyph unicode="&#x2006;" horiz-adv-x="151" />
<glyph unicode="&#x2007;" horiz-adv-x="151" />
<glyph unicode="&#x2008;" horiz-adv-x="113" />
<glyph unicode="&#x2009;" horiz-adv-x="182" />
<glyph unicode="&#x200a;" horiz-adv-x="50" />
<glyph unicode="&#x2010;" horiz-adv-x="308" d="M16 183v160h276v-160h-276z" />
<glyph unicode="&#x2011;" horiz-adv-x="308" d="M16 183v160h276v-160h-276z" />
<glyph unicode="&#x2013;" horiz-adv-x="589" d="M35 343h516v-160h-516v160z" />
<glyph unicode="&#x2014;" horiz-adv-x="1133" d="M42 343h1030v-160h-1030v160z" />
<glyph unicode="&#x2018;" horiz-adv-x="304" d="M13 446l103 294h178l-72 -294h-209z" />
<glyph unicode="&#x2019;" horiz-adv-x="304" d="M294 740l-103 -294h-178l72 294h209z" />
<glyph unicode="&#x201a;" horiz-adv-x="304" d="M294 187l-103 -294h-178l72 294h209z" />
<glyph unicode="&#x201c;" horiz-adv-x="550" d="M270 446l93 294h177l-60 -294h-210zM13 446l115 294h176l-82 -294h-209z" />
<glyph unicode="&#x201d;" horiz-adv-x="550" d="M283 740l-93 -294h-177l60 294h210zM540 740l-115 -294h-176l82 294h209z" />
<glyph unicode="&#x201e;" horiz-adv-x="550" d="M283 188l-93 -294h-177l60 294h210zM540 188l-115 -294h-176l82 294h209z" />
<glyph unicode="&#x2022;" horiz-adv-x="445" d="M224 439q91 0 140.5 -54.5t49.5 -127.5q0 -76 -50 -130.5t-140 -54.5q-92 0 -141.5 52.5t-49.5 126.5q0 75 51.5 131.5t139.5 56.5z" />
<glyph unicode="&#x2026;" horiz-adv-x="777" d="M17 101q0 47 32.5 79.5t79.5 32.5t80 -33t33 -79t-33 -79t-80 -33t-79.5 32.5t-32.5 79.5zM276 101q0 47 33 79.5t79 32.5q47 0 80 -33t33 -79t-33 -79t-80 -33q-46 0 -79 32.5t-33 79.5zM535 101q0 47 32.5 79.5t79.5 32.5t80 -33t33 -79t-33 -79t-80 -33t-79.5 32.5 t-32.5 79.5z" />
<glyph unicode="&#x202f;" horiz-adv-x="182" />
<glyph unicode="&#x2039;" horiz-adv-x="322" d="M304 394l-103 -128l103 -128l-100 -83l-177 211l177 211z" />
<glyph unicode="&#x203a;" horiz-adv-x="325" d="M130 476l177 -210l-177 -210l-103 79l105 131l-105 131z" />
<glyph unicode="&#x205f;" horiz-adv-x="227" />
<glyph unicode="&#x20ac;" horiz-adv-x="644" d="M491 186l-138 1q30 -40 119 -40q58 0 122 16v-158q-64 -17 -160 -17q-111 1 -186 53t-108 145h-113l32 125h58v34h-93l34 126h76q32 98 108 158t202 60q94 0 173 -33l-43 -155q-60 21 -110 21q-82 0 -110 -51h212l-35 -126h-208v-34h200z" />
<glyph unicode="&#x2122;" horiz-adv-x="545" d="M225 625h-50v-165h-65v165h-53v52h168v-52zM474 460h-63v84l-27 -64h-41l-29 66v-86h-62v217h64l49 -110l47 110h62v-217z" />
</font>
</defs>
</svg>
