<?xml version="1.0" standalone="no"?>
<!DOCTYPE svg PUBLIC "-//W3C//DTD SVG 1.1//EN" "http://www.w3.org/Graphics/SVG/1.1/DTD/svg11.dtd" >
<svg xmlns="http://www.w3.org/2000/svg">
<metadata>
This is a custom SVG webfont generated by Fontspring.
</metadata>
<defs>
<font id="webfont3CBA9qfW" horiz-adv-x="537" >
<font-face units-per-em="1000" ascent="769" descent="-231" />
<missing-glyph horiz-adv-x="243" />
<glyph unicode=" "  horiz-adv-x="243" />
<glyph unicode="&#x09;" horiz-adv-x="243" />
<glyph unicode="&#xa0;" horiz-adv-x="243" />
<glyph unicode="!" horiz-adv-x="269" d="M150 677h214l-96 -437h-176zM44 101q0 47 33 79.5t79 32.5q47 0 80 -33t33 -79t-33 -79t-80 -33q-46 0 -79 32.5t-33 79.5z" />
<glyph unicode="&#x22;" horiz-adv-x="453" d="M290 445h-152l50 295h152zM477 445h-152l50 295h152z" />
<glyph unicode="#" horiz-adv-x="721" d="M115 0l42 158h-109l23 135h119l17 59h-128l23 135h140l42 158h163l-41 -158h68l42 158h165l-41 -158h95l-23 -135h-105l-17 -59h111l-23 -135h-123l-42 -158h-165l41 158h-67l-43 -158h-164zM357 293h66l15 59h-65z" />
<glyph unicode="$" horiz-adv-x="504" d="M134 -93l18 100q-65 13 -121 39l73 156q102 -47 161 -47q20 0 32.5 8.5t12.5 22.5q0 18 -23 27q-7 3 -15 5l-23 8q-15 4 -32 10q-110 37 -110 149q0 69 37.5 129.5t111.5 85.5l17 96h189l-16 -90q56 -11 106 -35l-66 -149q-87 35 -140 35q-19 0 -30 -8t-11 -19 q0 -16 22 -25l33 -11l40 -15q105 -41 105 -149q0 -87 -43 -143.5t-121 -77.5l-18 -102h-189z" />
<glyph unicode="%" horiz-adv-x="967" d="M875 678l-481 -678h-174l479 678h176zM337 690q86 0 133 -49t47 -119q0 -83 -63.5 -143.5t-153.5 -60.5q-75 0 -128.5 46.5t-53.5 124.5q0 74 59 137.5t160 63.5zM313 451q21 0 32.5 20.5t11.5 45.5q0 17 -8 28t-22 11q-21 0 -33.5 -20.5t-12.5 -46.5q0 -16 8.5 -27 t23.5 -11zM795 361q86 0 133 -49t47 -119q0 -83 -63.5 -143.5t-153.5 -60.5q-75 0 -128.5 46.5t-53.5 124.5q0 74 59 137.5t160 63.5zM771 122q21 0 32.5 20.5t11.5 45.5q0 17 -8 28t-22 11q-21 0 -33.5 -20.5t-12.5 -46.5q0 -16 8.5 -27t23.5 -11z" />
<glyph unicode="&#x26;" horiz-adv-x="735" d="M757 341q-62 -103 -119 -164l80 -56l-131 -133q-42 21 -98 64q-98 -59 -209 -59q-109 0 -169 51t-60 117q0 124 140 188q-39 53 -39 125q0 91 71 153.5t187 62.5q104 0 163.5 -51t59.5 -124q0 -66 -44.5 -107.5t-123.5 -77.5q14 -14 53 -47q27 36 39 58h200zM432 494 q0 15 -10 25.5t-26 10.5q-45 0 -45 -45q0 -30 19 -56q62 22 62 65zM266 196q0 -21 16 -34t43 -13q22 0 45 8q-48 43 -85 85q-19 -19 -19 -46z" />
<glyph unicode="'" horiz-adv-x="258" d="M287 445h-152l50 295h152z" />
<glyph unicode="(" horiz-adv-x="314" d="M287 -172h-182q-62 143 -62 313q0 138 52 294.5t165 304.5h195q-220 -312 -220 -610q0 -143 52 -302z" />
<glyph unicode=")" horiz-adv-x="314" d="M131 740h182q62 -143 62 -313q0 -138 -52 -294.5t-165 -304.5h-195q220 312 220 610q0 143 -52 302z" />
<glyph unicode="*" horiz-adv-x="502" d="M512 669l45 -125l-89 -31l75 -58l-84 -103l-67 60l-15 -86h-130l20 108l-85 -36l-45 126l88 30l-73 58l84 103l67 -62l12 86h130l-19 -108z" />
<glyph unicode="+" horiz-adv-x="636" d="M626 193h-197l-34 -193h-158l34 193h-196l24 140h196l34 193h158l-34 -193h197z" />
<glyph unicode="," horiz-adv-x="304" d="M325 188l-158 -312h-176l135 312h199z" />
<glyph unicode="-" horiz-adv-x="308" d="M48 183l28 160h276l-28 -160h-276z" />
<glyph unicode="." horiz-adv-x="278" d="M43 101q0 47 32.5 79.5t79.5 32.5t80 -33t33 -79t-33 -79t-80 -33t-79.5 32.5t-32.5 79.5z" />
<glyph unicode="/" horiz-adv-x="524" d="M678 740l-514 -814h-202l513 814h203z" />
<glyph unicode="0" horiz-adv-x="577" d="M260 225q0 -76 54 -76q39 0 62.5 39t23.5 89q0 76 -54 76q-39 0 -62.5 -39t-23.5 -89zM58 224q0 52 20.5 103t58.5 93t98.5 67.5t134.5 25.5q115 0 174.5 -67t59.5 -159q0 -123 -85 -211t-230 -88q-114 0 -172.5 68t-58.5 168z" />
<glyph unicode="1" horiz-adv-x="329" d="M106 0l61 343h-90l28 160h285l-89 -503h-195z" />
<glyph unicode="2" horiz-adv-x="493" d="M501 150l-26 -150h-459l21 123q194 124 237 161q29 25 29 48q0 25 -35 25q-48 0 -130 -44l-42 148q106 54 224 54q83 0 134.5 -42t51.5 -110q0 -58 -39 -103.5t-137 -109.5h171z" />
<glyph unicode="3" horiz-adv-x="470" d="M498 362q0 -97 -111 -159q35 -12 53.5 -42.5t18.5 -67.5q0 -114 -110 -171.5t-322 -57.5h-35l26 155q120 0 192 24q51 18 51 46q0 31 -50 31q-4 0 -89 -5l26 143q56 3 87 10q59 13 59 54q0 15 -11.5 23.5t-29.5 8.5q-44 0 -142 -25l-9 155q109 30 207 30q83 0 136 -42 t53 -110z" />
<glyph unicode="4" horiz-adv-x="550" d="M558 151l-26 -151h-83l-25 -141h-179l25 141h-254l20 116l274 387h227l-62 -352h83zM296 151l27 153l-113 -153h86z" />
<glyph unicode="5" horiz-adv-x="449" d="M448 94q0 -52 -22 -94t-71 -77t-137 -54t-210 -19l31 164q6 0 24.5 -0.5t31.5 -0.5q144 0 144 54q0 37 -130 46l-61 4l83 386h371l-28 -160h-193l-20 -88q99 -12 143 -56.5t44 -104.5z" />
<glyph unicode="6" horiz-adv-x="529" d="M546 242q0 -100 -75 -177t-189 -77q-104 0 -159.5 61.5t-55.5 157.5q0 180 125.5 299.5t333.5 161.5l21 -154q-81 -20 -149 -57.5t-99 -74.5q38 19 90 19q62 0 109.5 -41t47.5 -118zM296 150q24 0 42.5 19.5t18.5 44.5q0 19 -12.5 32.5t-33.5 13.5q-24 0 -42 -19t-18 -46 q0 -21 13.5 -33t31.5 -12z" />
<glyph unicode="7" horiz-adv-x="498" d="M549 394q-69 -98 -372 -563l-160 70l92 139l83 126l64 94l58 83h-236l28 160h462z" />
<glyph unicode="8" horiz-adv-x="520" d="M534 156q-18 -80 -89.5 -124t-178.5 -44q-96 0 -156.5 43.5t-60.5 117.5q0 57 33 102.5t88 71.5q-63 48 -63 126q0 79 69 138.5t192 59.5q97 0 151.5 -47t54.5 -114q0 -47 -28 -90.5t-81 -72.5q73 -46 73 -128q0 -22 -4 -39zM334 401q23 0 39 18.5t16 41.5 q0 18 -11.5 30.5t-33.5 12.5q-23 0 -38.5 -18t-15.5 -40q0 -18 11.5 -31.5t32.5 -13.5zM288 145q26 0 42.5 19t16.5 42q0 20 -12 32.5t-35 12.5q-25 0 -41 -19t-16 -41q0 -20 11.5 -33t33.5 -13z" />
<glyph unicode="9" horiz-adv-x="529" d="M68 261q0 100 75 177t189 77q104 0 159.5 -61.5t55.5 -157.5q0 -180 -125.5 -299.5t-333.5 -161.5l-21 154q81 20 149 57.5t99 74.5q-38 -19 -90 -19q-62 0 -109.5 41t-47.5 118zM318 353q-24 0 -42.5 -19.5t-18.5 -44.5q0 -19 12.5 -32.5t33.5 -13.5q24 0 42 19t18 46 q0 21 -13.5 33t-31.5 12z" />
<glyph unicode=":" horiz-adv-x="279" d="M43 101q0 47 32.5 79.5t79.5 32.5t80 -33t33 -79t-33 -79t-80 -33t-79.5 32.5t-32.5 79.5zM95 401q0 47 32.5 79.5t79.5 32.5t80 -33t33 -79t-33 -79t-80 -33t-79.5 32.5t-32.5 79.5z" />
<glyph unicode=";" horiz-adv-x="309" d="M334 188l-158 -312h-176l135 312h199zM125 401q0 47 32.5 79.5t79.5 32.5t80 -33t33 -79t-33 -79t-80 -33t-79.5 32.5t-32.5 79.5z" />
<glyph unicode="&#x3c;" horiz-adv-x="636" d="M525 14l-364 176l25 143l426 177l-29 -165l-209 -83l180 -84z" />
<glyph unicode="=" horiz-adv-x="636" d="M622 303h-506l25 141h506zM583 82h-506l25 140h506z" />
<glyph unicode="&#x3e;" horiz-adv-x="638" d="M556 190l-426 -176l29 164l210 84l-181 83l29 165l364 -177z" />
<glyph unicode="?" horiz-adv-x="513" d="M564 517q0 -69 -35 -114.5t-112 -79.5q-30 -13 -41.5 -30t-15.5 -52h-181q-1 12 -1 46q0 66 33 103.5t103 63.5q49 18 49 41q0 22 -34 22q-49 0 -161 -46l-36 152q129 67 235 67q96 0 146.5 -50t50.5 -123zM141 101q0 47 32.5 79.5t79.5 32.5t80 -33t33 -79t-33 -79 t-80 -33t-79.5 32.5t-32.5 79.5z" />
<glyph unicode="@" horiz-adv-x="852" d="M665 466l-34 -198l-1 -9q0 -12 9 -12q11 0 22 11q39 39 39 111q0 93 -54.5 143.5t-134.5 50.5q-46 0 -90.5 -18t-81.5 -52t-60 -89t-23 -122q0 -95 61.5 -158t178.5 -63q95 0 206 65l61 -112q-138 -89 -273 -89q-95 0 -169.5 28.5t-120.5 77t-70 110.5t-24 132 q0 100 36.5 183t96 135t131.5 80t147 28q65 0 124 -21t105.5 -60.5t74 -102t27.5 -140.5q0 -97 -69 -176.5t-171 -79.5q-55 0 -88 33q-42 -33 -94 -33q-58 0 -97 44.5t-39 115.5q0 94 62 164.5t159 70.5q84 0 154 -48zM492 301l16 85q-4 2 -10 2q-26 0 -41 -37t-15 -75 q0 -29 17 -29q9 0 19 15.5t14 38.5z" />
<glyph unicode="A" horiz-adv-x="712" d="M490 0l-18 121h-189l-61 -121h-229l367 677h236l123 -677h-229zM430 418l-72 -142h94z" />
<glyph unicode="B" horiz-adv-x="577" d="M585 210q0 -100 -71.5 -155t-179.5 -55h-297l119 677h240q106 0 165 -44.5t59 -122.5q0 -113 -105 -169q31 -20 50.5 -56t19.5 -75zM356 409q24 0 41.5 17t17.5 44q0 20 -11 34.5t-32 14.5h-47l-19 -110h50zM304 157q32 0 54 16t22 50q0 21 -14.5 34t-38.5 13h-46 l-20 -113h43z" />
<glyph unicode="C" horiz-adv-x="523" d="M352 -10q-119 0 -196 75.5t-77 224.5q0 103 42 192.5t129.5 148.5t204.5 59q99 0 173 -27l-67 -181q-54 21 -97 21q-76 0 -118 -55.5t-42 -136.5q0 -67 27.5 -100.5t90.5 -33.5q43 0 95 14l-9 -171q-50 -19 -78.5 -24.5t-77.5 -5.5z" />
<glyph unicode="D" horiz-adv-x="631" d="M664 402q0 -186 -100.5 -294t-287.5 -108h-238l119 677h211q154 0 225 -76.5t71 -198.5zM299 172q75 2 117.5 58t42.5 157q0 120 -110 120h-19l-59 -335h28z" />
<glyph unicode="E" horiz-adv-x="504" d="M474 0h-438l119 677h423l-30 -170h-218l-14 -83h190l-30 -170h-190l-14 -82h232z" />
<glyph unicode="F" horiz-adv-x="485" d="M554 495h-226l-15 -85h206l-30 -173h-206l-42 -237h-205l119 677h431z" />
<glyph unicode="G" horiz-adv-x="601" d="M670 663l-64 -181q-59 22 -112 22q-93 0 -141.5 -59t-48.5 -149q0 -115 89 -124l29 166h204l-56 -323q-77 -25 -165 -25q-156 0 -241 73.5t-85 217.5q0 179 106 294t305 115q99 0 180 -27z" />
<glyph unicode="H" horiz-adv-x="639" d="M602 0h-204l44 254h-156l-44 -254h-205l119 677h205l-45 -253h156l45 253h204z" />
<glyph unicode="I" horiz-adv-x="273" d="M239 0h-205l119 677h205z" />
<glyph unicode="J" horiz-adv-x="440" d="M527 677l-76 -431q-23 -133 -90 -195t-182 -62q-81 0 -175 38l79 179q65 -26 95 -26q59 0 71 71l75 426h203z" />
<glyph unicode="K" horiz-adv-x="635" d="M362 677l-42 -236l177 236h232l-251 -338l148 -339h-227l-109 267l-47 -267h-206l119 677h206z" />
<glyph unicode="L" horiz-adv-x="465" d="M449 0h-413l119 677h205l-85 -496h208z" />
<glyph unicode="M" horiz-adv-x="795" d="M753 0h-197l50 286l-133 -225h-131l-58 222l-50 -283h-195l119 677h212l82 -343l208 343h212z" />
<glyph unicode="N" horiz-adv-x="638" d="M600 0h-175l-138 316l-55 -316h-195l119 677h176l138 -311l55 311h194z" />
<glyph unicode="O" horiz-adv-x="706" d="M524 390q0 54 -24 85.5t-63 31.5q-63 0 -100.5 -66.5t-37.5 -152.5q0 -54 24 -85.5t65 -31.5q62 0 99 66.5t37 152.5zM360 -11q-130 0 -203 81t-73 212q0 83 23 155t68 129t119 90t169 33q130 0 203 -81t73 -212q0 -83 -23 -155t-68 -129t-119 -90t-169 -33z" />
<glyph unicode="P" horiz-adv-x="569" d="M628 477q0 -119 -83.5 -180.5t-220.5 -61.5h-43l-41 -235h-203l119 677h244q112 0 170 -54t58 -146zM351 389q32 0 53 21t21 55q0 22 -14 38.5t-44 16.5h-36l-23 -131h43z" />
<glyph unicode="Q" horiz-adv-x="706" d="M500 10q-63 -22 -129 -22q-123 0 -205 77t-82 217q0 83 23 155t68 129t119 90t169 33q130 0 203 -81t73 -212q0 -163 -80 -271l47 -50l-152 -127zM437 507q-63 0 -100.5 -66.5t-37.5 -152.5q0 -51 21 -84.5t56 -39.5l-25 31l136 116l22 -24q15 40 15 96q0 57 -22 90.5 t-65 33.5z" />
<glyph unicode="R" horiz-adv-x="578" d="M570 0h-219l-70 230l-40 -230h-204l119 677h226q112 0 177 -49.5t65 -139.5q0 -150 -140 -224zM339 387q32 0 56.5 20t24.5 54q0 24 -14.5 41.5t-43.5 17.5h-30l-23 -133h30z" />
<glyph unicode="S" horiz-adv-x="533" d="M306 234l-74 34q-70 32 -101 73.5t-31 103.5q0 39 15.5 80.5t45 79t82 61.5t117.5 24q124 0 229 -49l-61 -175q-95 44 -165 44q-21 0 -34 -9.5t-13 -22.5q0 -22 33 -36l71 -30q75 -32 104.5 -77t29.5 -110q0 -99 -70 -168.5t-195 -69.5q-129 0 -252 60l61 177 q44 -23 100.5 -40t89.5 -17q22 0 35 9.5t13 22.5q0 21 -30 35z" />
<glyph unicode="T" horiz-adv-x="551" d="M624 496h-155l-86 -496h-205l86 496h-165l33 181h525z" />
<glyph unicode="U" horiz-adv-x="632" d="M639 244q-22 -123 -101.5 -188.5t-212.5 -65.5q-119 0 -182 53t-63 161q0 39 7 78l69 395h206l-72 -399q-3 -16 -3 -29q0 -35 17 -54t46 -19q33 0 55 23t29 61l75 417h206z" />
<glyph unicode="V" horiz-adv-x="681" d="M797 677l-369 -677h-178l-129 677h224l53 -331l167 331h232z" />
<glyph unicode="W" horiz-adv-x="903" d="M1015 677l-279 -677h-203l-27 307l-135 -307h-206l-43 677h216l6 -335l144 335h165l36 -339l120 339h206z" />
<glyph unicode="X" horiz-adv-x="593" d="M604 0h-236l-52 138l-100 -138h-226l251 330l-133 347h236l53 -147l104 147h221l-252 -334z" />
<glyph unicode="Y" horiz-adv-x="631" d="M774 677l-309 -432l-43 -245h-206l43 245l-161 432h236l71 -207l143 207h226z" />
<glyph unicode="Z" horiz-adv-x="567" d="M542 0h-524l25 145l300 362h-227l30 170h509l-24 -136l-309 -369h251z" />
<glyph unicode="[" horiz-adv-x="309" d="M268 -171h-279l158 912h280l-28 -162h-91l-103 -588h91z" />
<glyph unicode="\" horiz-adv-x="524" d="M331 -74l-226 815h203l226 -815h-203z" />
<glyph unicode="]" horiz-adv-x="309" d="M266 -171h-279l27 162h92l105 588h-92l28 162h280z" />
<glyph unicode="^" horiz-adv-x="636" d="M664 222h-212l-62 147l-117 -147h-209l308 381h118z" />
<glyph unicode="_" horiz-adv-x="646" d="M615 -171h-648l24 145h649z" />
<glyph unicode="`" d="M422 548l-81 192h217l30 -192h-166z" />
<glyph unicode="a" horiz-adv-x="496" d="M468 0h-188l7 40q-65 -50 -130 -50q-59 0 -89 35.5t-30 87.5q0 184 289 203q0 2 0.5 5t0.5 5q0 36 -41 36q-53 0 -154 -28l-18 141q105 39 221 39q89 0 136.5 -41t47.5 -138q0 -39 -9 -90zM305 181l5 28q-90 -9 -90 -56q0 -13 7.5 -20.5t17.5 -7.5q23 0 39.5 15.5 t20.5 40.5z" />
<glyph unicode="b" horiz-adv-x="528" d="M355 740l-45 -254q50 28 109 28q68 0 103 -49t35 -134q0 -43 -9 -91q-20 -118 -95 -185t-191 -67q-194 0 -194 194q0 44 8 87l82 471h197zM273 287l-9 -54q-6 -32 -6 -41q0 -44 34 -44q29 0 48 48t19 99q0 58 -35 58q-39 0 -51 -66z" />
<glyph unicode="c" horiz-adv-x="410" d="M479 501l-38 -160q-33 11 -64 11q-54 0 -84 -35t-30 -85q0 -82 83 -82q24 0 59 8l-17 -150q-60 -20 -117 -20q-93 0 -153 53.5t-60 161.5q0 30 6 63q12 70 46 121.5t78 78t86 38t83 11.5q82 0 122 -14z" />
<glyph unicode="d" horiz-adv-x="530" d="M63 259q21 119 94.5 185t194.5 66q12 0 42 -1l41 231h197l-130 -740h-190l5 29q-57 -40 -118 -40q-72 0 -108 50t-36 135q0 37 8 85zM345 216l23 132q-10 5 -22 5q-65 0 -84 -106q-4 -28 -4 -37q0 -28 9 -44t24 -16q42 0 54 66z" />
<glyph unicode="e" horiz-adv-x="512" d="M546 319q0 -62 -22 -121h-277q11 -48 84 -48q58 0 137 19l15 -147q-83 -32 -178 -32q-49 0 -90.5 10.5t-78 34.5t-57.5 69t-21 108q0 73 31.5 140.5t98.5 114.5t155 47q103 0 153 -54t50 -141zM325 365q-43 0 -67 -59h108q1 4 1 12q0 20 -11.5 33.5t-30.5 13.5z" />
<glyph unicode="f" horiz-adv-x="376" d="M499 734l-36 -141q-24 3 -37 3q-41 0 -51 -52l-7 -41h86l-28 -160h-86l-60 -343h-195l60 343h-75l28 160h75l7 39q37 205 225 205q55 0 94 -13z" />
<glyph unicode="g" horiz-adv-x="524" d="M581 483l-78 -438q-21 -117 -87.5 -173t-162.5 -56q-120 0 -207 36l54 143q79 -27 126 -27q69 0 79 60l1 5q-44 -18 -87 -18q-70 0 -116 47.5t-46 140.5q0 132 84.5 221.5t223.5 89.5q123 0 216 -31zM341 225l22 126q-8 5 -22 5q-65 0 -83 -99q-3 -19 -3 -36 q0 -29 10 -45.5t27 -16.5q37 0 49 66z" />
<glyph unicode="h" horiz-adv-x="513" d="M485 0h-196l47 266q7 43 7 53q0 34 -24 34q-33 0 -44 -60l-51 -293h-196l130 741h196l-45 -257q49 30 105 30q57 0 93 -35.5t36 -104.5q0 -37 -8 -87z" />
<glyph unicode="i" horiz-adv-x="252" d="M224 0h-195l88 503h195zM136 644q0 43 30 73t73 30t73 -30t30 -73t-30 -73t-73 -30t-73 30t-30 73z" />
<glyph unicode="j" horiz-adv-x="252" d="M312 503l-85 -482q-36 -205 -228 -205q-41 0 -75 8l26 142q10 -1 35 -1q38 0 46 49l86 489h195zM136 644q0 43 30 73t73 30t73 -30t30 -73t-30 -73t-73 -30t-73 30t-30 73z" />
<glyph unicode="k" horiz-adv-x="548" d="M354 740l-71 -401l131 164h219l-204 -243l119 -260h-212l-80 186l-32 -186h-196l130 740h196z" />
<glyph unicode="l" horiz-adv-x="252" d="M224 0h-196l130 740h196z" />
<glyph unicode="m" horiz-adv-x="774" d="M550 0l45 256q9 53 9 61q0 36 -24 36q-33 0 -44 -60l-51 -293h-196l46 262q8 47 8 55q0 36 -24 36q-34 0 -43 -58l-52 -295h-196l88 503h185l-5 -28q62 39 127 39q34 0 62 -12t39 -35q59 47 139 47q63 0 102.5 -36t39.5 -107q0 -32 -9 -84l-50 -287h-196z" />
<glyph unicode="n" horiz-adv-x="513" d="M485 0h-196l46 264q8 45 8 53q0 36 -24 36q-34 0 -43 -58l-52 -295h-196l88 503h185l-5 -29q54 40 116 40q60 0 95.5 -35t35.5 -104q0 -38 -8 -88z" />
<glyph unicode="o" d="M296 149q30 0 50.5 42.5t20.5 92.5q0 68 -40 68q-30 0 -50.5 -42.5t-20.5 -92.5q0 -68 40 -68zM272 -12q-100 0 -156 63.5t-56 158.5q0 57 17 109t50.5 97t91.5 71.5t133 26.5q100 0 156 -63.5t56 -158.5q0 -57 -17 -109t-50.5 -97t-91.5 -71.5t-133 -26.5z" />
<glyph unicode="p" horiz-adv-x="530" d="M557 249q-21 -118 -94.5 -183.5t-195.5 -65.5q-12 0 -42 1l-31 -173h-196l118 675h190l-5 -29q57 40 126 40q68 0 103 -48.5t35 -132.5q0 -36 -8 -84zM273 287l-23 -132q8 -5 22 -5q66 0 85 108q4 19 4 37q0 28 -9.5 43t-24.5 15q-42 0 -54 -66z" />
<glyph unicode="q" horiz-adv-x="526" d="M583 483l-116 -655h-196l34 193q-53 -28 -106 -28q-65 0 -105.5 46t-40.5 133q0 64 17 122t53 109t99 81t147 30q121 0 214 -31zM344 216l23 135q-8 5 -22 5q-66 0 -86 -110q-3 -20 -3 -36q0 -28 9 -44t24 -16q43 0 55 66z" />
<glyph unicode="r" horiz-adv-x="373" d="M417 342h-20q-114 0 -134 -110l-40 -232h-195l88 503h185l-6 -37q70 48 152 48z" />
<glyph unicode="s" horiz-adv-x="443" d="M458 175q0 -82 -59 -134.5t-157 -52.5q-116 0 -218 55l48 136q94 -48 156 -48q35 0 35 25q0 17 -46 29q-144 39 -144 146q0 31 11.5 62t35.5 59t68.5 45.5t102.5 17.5q111 0 195 -38l-51 -135q-91 35 -135 35q-30 0 -30 -19q0 -16 51 -34q28 -10 45.5 -18t42 -25t37 -44 t12.5 -62z" />
<glyph unicode="t" horiz-adv-x="376" d="M426 343h-86l-60 -343h-195l60 343h-75l28 160h75l31 174h195l-31 -174h86z" />
<glyph unicode="u" horiz-adv-x="513" d="M520 203q-18 -102 -87 -158.5t-172 -56.5q-84 0 -141 47t-57 142q0 27 6 60l47 266h196l-51 -290q-4 -23 -4 -31q0 -16 8.5 -24.5t20.5 -8.5q29 0 37 45l54 309h196z" />
<glyph unicode="v" d="M636 503l-275 -503h-187l-97 503h213l30 -220l107 220h209z" />
<glyph unicode="w" horiz-adv-x="761" d="M857 503l-258 -503h-154l-31 191l-98 -191h-155l-81 503h195l27 -203l105 203h133l30 -196l88 196h199z" />
<glyph unicode="x" horiz-adv-x="520" d="M532 0h-219l-44 108l-85 -108h-196l212 248l-62 138l-54 117h213l42 -96l76 96h194l-202 -236z" />
<glyph unicode="y" horiz-adv-x="541" d="M643 503l-371 -675h-217l125 209l-107 466h216l40 -205l105 205h209z" />
<glyph unicode="z" horiz-adv-x="463" d="M435 0h-407l25 146l196 197h-160l28 160h406l-26 -146l-199 -199h164z" />
<glyph unicode="{" horiz-adv-x="341" d="M306 740h158l-28 -162h-76q-16 0 -19 -15l-34 -195q-5 -31 -15.5 -48.5t-35.5 -32.5q26 -21 26 -50q0 -14 -6 -45l-34 -188v-4q0 -11 13 -11h76l-28 -161h-121q-136 0 -136 111q0 18 5 46l37 206q3 15 3 25q0 16 -9.5 29.5t-38.5 41.5q49 35 61.5 50.5t17.5 46.5l41 237 q9 54 46 86.5t97 32.5z" />
<glyph unicode="|" horiz-adv-x="339" d="M253 -75h-190l144 815h190z" />
<glyph unicode="}" horiz-adv-x="341" d="M139 -172h-158l28 162h76q16 0 19 15l34 195q5 31 15.5 48.5t35.5 32.5q-26 21 -26 50q0 14 6 45l34 188v4q0 11 -13 11h-76l28 161h121q136 0 136 -111q0 -18 -5 -46l-37 -206q-3 -15 -3 -25q0 -16 9.5 -29.5t38.5 -41.5q-49 -35 -61.5 -50.5t-17.5 -46.5l-41 -237 q-9 -54 -46 -86.5t-97 -32.5z" />
<glyph unicode="~" horiz-adv-x="632" d="M269 383q45 0 85.5 -13t66.5 -26t37 -13q36 0 45 49h178q-40 -226 -207 -226q-45 0 -85.5 13t-67 26t-36.5 13q-36 0 -45 -49h-178q40 226 207 226z" />
<glyph unicode="&#xa1;" horiz-adv-x="269" d="M217 -172h-214l96 437h176zM317 403q0 -47 -32.5 -79.5t-79.5 -32.5t-80 33t-33 79t33 79t80 33t79.5 -32.5t32.5 -79.5z" />
<glyph unicode="&#xa2;" horiz-adv-x="411" d="M492 498l-51 -158q-30 9 -61 9q-52 0 -86 -27t-34 -82q0 -35 21 -57t64 -22q31 0 67 11l-6 -158q-5 -2 -60 -11l-26 -144h-180l27 157q-53 20 -82 73t-29 123q0 99 51.5 176.5t146.5 113.5l22 133h180l-23 -129q32 0 59 -8z" />
<glyph unicode="&#xa3;" horiz-adv-x="536" d="M623 639l-78 -142q-49 27 -82 27q-54 0 -70 -58l-16 -56h112l-27 -150h-122l-30 -110h231l-26 -150h-461l22 51q31 72 63 209h-64l27 150h77l27 91q24 83 86.5 136t148.5 53q99 0 182 -51z" />
<glyph unicode="&#xa4;" horiz-adv-x="500" d="M328 439q38 0 69 -11l72 61l91 -111l-61 -52q9 -27 9 -55q0 -53 -28 -98l37 -44l-110 -93l-38 45q-37 -14 -78 -14q-40 0 -76 14l-57 -48l-92 111l50 43q-7 21 -7 51q0 60 39 114l-36 44l109 92l46 -56q33 7 61 7zM304 200q21 0 32.5 20.5t11.5 45.5q0 17 -8 28t-22 11 q-21 0 -33.5 -20.5t-12.5 -46.5q0 -16 8.5 -27t23.5 -11z" />
<glyph unicode="&#xa5;" horiz-adv-x="607" d="M573 102h-151l-17 -102h-204l17 102h-151l25 141h151l10 55h-151l25 141h88l-88 238h214l57 -157l109 157h208l-171 -238h89l-25 -141h-151l-10 -55h151z" />
<glyph unicode="&#xa6;" horiz-adv-x="339" d="M337 401h-190l60 339h190zM253 -74h-190l60 339h190z" />
<glyph unicode="&#xa7;" horiz-adv-x="631" d="M382 210q28 39 28 70q0 15 -5.5 26.5t-19 20.5t-22.5 13t-29 12l-4 1q-26 -32 -26 -70q0 -26 18.5 -41t59.5 -32zM614 316q0 -105 -96 -204q18 -38 18 -78q0 -89 -64 -152t-173 -63t-233 58l81 157q40 -23 83 -38t61 -15q16 0 29.5 8.5t13.5 24.5q0 26 -60 49 q-32 12 -50.5 20t-45.5 24.5t-41.5 33.5t-25.5 45t-11 62q0 107 95 202q-17 34 -17 78q0 95 68.5 156t170.5 61q66 0 115 -13t116 -43l-80 -155l-59 25q-55 24 -91 24q-15 0 -26.5 -10t-11.5 -27q0 -26 57 -46l25 -9q33 -11 56.5 -23.5t47 -32.5t36 -50t12.5 -69z" />
<glyph unicode="&#xa8;" d="M169 639q0 39 27.5 67t66.5 28t67 -28t28 -67t-28 -66.5t-67 -27.5t-66.5 27.5t-27.5 66.5zM400 639q0 39 27.5 67t66.5 28t67 -28t28 -67t-28 -66.5t-67 -27.5t-66.5 27.5t-27.5 66.5z" />
<glyph unicode="&#xa9;" horiz-adv-x="808" d="M765 340q0 -67 -23 -129t-65.5 -112t-111 -80t-153.5 -30t-154 30t-112 80t-66 112t-23 129q0 66 22.5 127.5t65.5 111.5t112 80t155 30q85 0 154 -30t111.5 -80t65 -111.5t22.5 -127.5zM656 340q0 103 -64 178t-180 75q-117 0 -181.5 -75t-64.5 -178q0 -104 65 -180.5 t181 -76.5q115 0 179.5 76t64.5 181zM523 521l-18 -101q-29 12 -58 12q-41 0 -68.5 -24t-27.5 -69q0 -44 24.5 -68.5t68.5 -24.5q26 0 64 11l11 -98q-43 -17 -96 -17q-83 0 -138.5 50t-55.5 147t56.5 147.5t142.5 50.5q44 0 95 -16z" />
<glyph unicode="&#xaa;" horiz-adv-x="407" d="M434 378h-135l5 29q-48 -36 -93 -36q-42 0 -63.5 25t-21.5 63q0 133 207 146q0 1 0.5 3.5t0.5 3.5q0 26 -30 26q-32 0 -110 -20l-13 101q76 27 158 27q64 0 98 -29t34 -99q0 -28 -6 -64zM317 508l4 20q-65 -6 -65 -40q0 -20 18 -20q17 0 29 11t14 29z" />
<glyph unicode="&#xab;" horiz-adv-x="548" d="M436 56l-140 210l214 210l90 -79l-129 -131l82 -131zM373 394l-126 -128l81 -128l-115 -83l-140 211l215 211z" />
<glyph unicode="&#xac;" horiz-adv-x="636" d="M597 58h-173l24 135h-367l24 140h540z" />
<glyph unicode="&#xad;" horiz-adv-x="303" d="M48 183l28 160h276l-28 -160h-276z" />
<glyph unicode="&#xae;" horiz-adv-x="808" d="M765 340q0 -67 -23 -129t-65.5 -112t-111 -80t-153.5 -30t-154 30t-112 80t-66 112t-23 129q0 66 22.5 127.5t65.5 111.5t112 80t155 30q85 0 154 -30t111.5 -80t65 -111.5t22.5 -127.5zM656 340q0 103 -64 178t-180 75q-117 0 -181.5 -75t-64.5 -178q0 -104 65 -180.5 t181 -76.5q115 0 179.5 76t64.5 181zM568 158h-119l-60 135v-135h-112v371h142q71 0 108.5 -33t37.5 -87q0 -74 -66 -107zM452 404q0 15 -9 27t-25 12h-29v-83h26q17 0 27 13t10 31z" />
<glyph unicode="&#xaf;" d="M552 579h-365l22 127h365z" />
<glyph unicode="&#xb0;" horiz-adv-x="453" d="M363 528q0 20 -13 31.5t-31 11.5q-17 0 -29.5 -11.5t-12.5 -31.5q0 -21 13 -33t31 -12q17 0 29.5 11.5t12.5 33.5zM515 528q0 -85 -59 -133.5t-137 -48.5t-135.5 48.5t-57.5 133.5q0 84 57.5 132.5t135.5 48.5t137 -48.5t59 -132.5z" />
<glyph unicode="&#xb1;" horiz-adv-x="636" d="M564 0h-495l24 141h495zM623 336h-167l-29 -163h-162l29 163h-166l24 140h166l29 163h162l-29 -163h167z" />
<glyph unicode="&#xb2;" horiz-adv-x="463" d="M494 422l-25 -142h-384l17 100l37 29q30 24 63 48l51 37q17 12 32.5 25t21.5 23t6 21q0 29 -25 29q-7 0 -13.5 -2t-16 -7l-16.5 -9l-22 -14l-23 -16l-48 128q121 75 215 75q67 0 106 -39t39 -94q0 -28 -8.5 -52t-31.5 -49t-43 -41l-60 -50h128z" />
<glyph unicode="&#xb3;" horiz-adv-x="428" d="M203 457l18 108h63q13 0 20 8t7 19q0 22 -24 22q-31 0 -102 -28l-26 115q106 46 190 46q58 0 98 -31.5t40 -80.5q0 -7 -2 -21q-11 -57 -64 -91q38 -30 38 -90q0 -9 -2 -25q-10 -61 -68.5 -100t-138.5 -39q-87 0 -167 50q4 7 11 17l25 39l40 61q59 -28 96 -28q15 0 24 8.5 t9 19.5q0 21 -22 21h-63z" />
<glyph unicode="&#xb4;" d="M582 740l-149 -192h-166l98 192h217z" />
<glyph unicode="&#xb5;" horiz-adv-x="525" d="M383 503h196l-50 -287q-17 -98 -70 -161t-148 -63q-49 0 -80 17l-32 -181h-195l118 675h196l-51 -293q-2 -9 -2 -25q0 -33 24 -33q32 0 43 59z" />
<glyph unicode="&#xb6;" horiz-adv-x="686" d="M97 432q0 104 75 174.5t217 70.5h386l-28 -158h-61l-122 -691h-177l122 691h-28l-122 -691h-176l73 412q-79 14 -119 68t-40 124z" />
<glyph unicode="&#xb7;" horiz-adv-x="278" d="M84 342q0 46 33 79t79 33q47 0 80 -33t33 -79t-33 -79t-80 -33q-46 0 -79 33t-33 79z" />
<glyph unicode="&#xb8;" d="M350 -27l-104 -156h-177l82 156h199z" />
<glyph unicode="&#xb9;" horiz-adv-x="331" d="M151 280l55 318h-78l25 142h267l-80 -460h-189z" />
<glyph unicode="&#xba;" horiz-adv-x="433" d="M307 486q21 0 35.5 30.5t14.5 66.5q0 48 -28 48q-21 0 -36 -30.5t-15 -65.5q0 -49 29 -49zM289 371q-71 0 -111 45.5t-40 113.5q0 88 52.5 152.5t156.5 64.5q71 0 111 -45.5t40 -113.5q0 -88 -52.5 -152.5t-156.5 -64.5z" />
<glyph unicode="&#xbb;" horiz-adv-x="548" d="M213 476l140 -210l-214 -210l-89 79l128 131l-81 131zM277 138l125 128l-80 128l115 83l139 -211l-214 -211z" />
<glyph unicode="&#xbc;" horiz-adv-x="1036" d="M1014 210l-22 -120h-61l-15 -90h-177l15 90h-168l17 95l200 284h194l-45 -259h62zM776 210l15 86l-62 -86h47zM177 285l55 313h-77l25 142h266l-80 -455h-189zM656 740h199l-433 -740h-200z" />
<glyph unicode="&#xbd;" horiz-adv-x="1036" d="M1014 142l-25 -142h-384l17 100l37 29q30 24 63 48l51 37q17 12 32.5 25t21.5 23t6 21q0 29 -25 29q-7 0 -13.5 -2t-16 -7l-16.5 -9l-22 -14l-23 -16l-48 128q121 75 215 75q67 0 106 -39t39 -94q0 -28 -8.5 -52t-31.5 -49t-43 -41l-60 -50h128zM177 285l55 313h-77 l25 142h266l-80 -455h-189zM656 740h199l-433 -740h-200z" />
<glyph unicode="&#xbe;" horiz-adv-x="1036" d="M695 740h199l-433 -740h-200zM1029 210l-22 -120h-61l-15 -90h-177l15 90h-168l17 95l200 284h194l-45 -259h62zM203 457l18 108h63q13 0 20 8t7 19q0 22 -24 22q-31 0 -102 -28l-26 115q106 46 190 46q58 0 98 -31.5t40 -80.5q0 -7 -2 -21q-11 -57 -64 -91 q38 -30 38 -90q0 -70 -58 -117t-130 -47q-81 0 -173 58l61 109q59 -28 96 -28q15 0 24 8.5t9 19.5q0 21 -22 21h-63zM791 210l15 86l-62 -86h47z" />
<glyph unicode="&#xbf;" horiz-adv-x="513" d="M35 -14q0 70 35 115.5t112 79.5q30 13 41.5 30t15.5 52h181q1 -12 1 -46q0 -66 -33 -104t-103 -64q-49 -18 -49 -41q0 -22 34 -22q49 0 161 46l36 -149q-129 -67 -235 -67q-97 0 -147 48.5t-50 121.5zM458 403q0 -47 -33 -79.5t-79 -32.5q-47 0 -80 33t-33 79t33 79 t80 33q46 0 79 -32.5t33 -79.5z" />
<glyph unicode="&#xc0;" horiz-adv-x="712" d="M490 0l-18 121h-189l-61 -121h-229l367 677h236l123 -677h-229zM430 418l-72 -142h94zM397 719l-81 192h217l30 -192h-166z" />
<glyph unicode="&#xc1;" horiz-adv-x="712" d="M490 0l-18 121h-189l-61 -121h-229l367 677h236l123 -677h-229zM430 418l-72 -142h94zM708 911l-149 -192h-166l98 192h217z" />
<glyph unicode="&#xc2;" horiz-adv-x="712" d="M490 0l-18 121h-189l-61 -121h-229l367 677h236l123 -677h-229zM430 418l-72 -142h94zM688 719h-159l-33 67l-58 -67h-159l152 192h173z" />
<glyph unicode="&#xc3;" horiz-adv-x="712" d="M490 0l-18 121h-189l-61 -121h-229l367 677h236l123 -677h-229zM430 418l-72 -142h94zM582 894h134l-4 -25q-13 -75 -55 -113.5t-91 -38.5q-36 0 -74.5 18t-48.5 18q-22 0 -28 -34h-134l4 24q13 76 55 114.5t91 38.5q33 0 72.5 -18t50.5 -18q22 0 28 34z" />
<glyph unicode="&#xc4;" horiz-adv-x="712" d="M490 0l-18 121h-189l-61 -121h-229l367 677h236l123 -677h-229zM430 418l-72 -142h94zM289 805q0 39 27.5 67t66.5 28t67 -28t28 -67t-28 -66.5t-67 -27.5t-66.5 27.5t-27.5 66.5zM520 805q0 39 27.5 67t66.5 28t67 -28t28 -67t-28 -66.5t-67 -27.5t-66.5 27.5 t-27.5 66.5z" />
<glyph unicode="&#xc5;" horiz-adv-x="712" d="M490 0l-18 121h-189l-61 -121h-229l367 677h236l123 -677h-229zM430 418l-72 -142h94zM381 801q0 47 32.5 78.5t80.5 31.5t81 -31.5t33 -78.5t-33 -78.5t-81 -31.5t-80.5 31.5t-32.5 78.5zM462 801q0 -13 9 -22.5t23 -9.5t23 9.5t9 22.5t-9 22.5t-23 9.5t-23 -9.5 t-9 -22.5z" />
<glyph unicode="&#xc6;" horiz-adv-x="935" d="M893 0h-450l21 121h-169l-81 -121h-230l497 677h516l-31 -170h-230l-14 -83h202l-28 -170h-202l-15 -82h245zM522 453l-125 -177h94z" />
<glyph unicode="&#xc7;" horiz-adv-x="544" d="M352 -10q-119 0 -196 75.5t-77 224.5q0 103 42 192.5t129.5 148.5t204.5 59q99 0 173 -27l-67 -181q-54 21 -97 21q-76 0 -118 -55.5t-42 -136.5q0 -67 27.5 -100.5t90.5 -33.5q43 0 95 14l-9 -171q-50 -19 -78.5 -24.5t-77.5 -5.5zM389 -27l-104 -156h-177l82 156h199z " />
<glyph unicode="&#xc8;" horiz-adv-x="504" d="M474 0h-438l119 677h423l-30 -170h-218l-14 -83h190l-30 -170h-190l-14 -82h232zM331 719l-81 192h217l30 -192h-166z" />
<glyph unicode="&#xc9;" horiz-adv-x="504" d="M474 0h-438l119 677h423l-30 -170h-218l-14 -83h190l-30 -170h-190l-14 -82h232zM590 911l-149 -192h-166l98 192h217z" />
<glyph unicode="&#xca;" horiz-adv-x="504" d="M474 0h-438l119 677h423l-30 -170h-218l-14 -83h190l-30 -170h-190l-14 -82h232zM590 719h-159l-33 67l-58 -67h-159l152 192h173z" />
<glyph unicode="&#xcb;" horiz-adv-x="504" d="M474 0h-438l119 677h423l-30 -170h-218l-14 -83h190l-30 -170h-190l-14 -82h232zM190 805q0 39 27.5 67t66.5 28t67 -28t28 -67t-28 -66.5t-67 -27.5t-66.5 27.5t-27.5 66.5zM421 805q0 39 27.5 67t66.5 28t67 -28t28 -67t-28 -66.5t-67 -27.5t-66.5 27.5t-27.5 66.5z " />
<glyph unicode="&#xcc;" horiz-adv-x="264" d="M239 0h-205l119 677h205zM201 719l-81 192h217l30 -192h-166z" />
<glyph unicode="&#xcd;" horiz-adv-x="264" d="M239 0h-205l119 677h205zM481 911l-149 -192h-166l98 192h217z" />
<glyph unicode="&#xce;" horiz-adv-x="264" d="M239 0h-205l119 677h205zM471 719h-159l-33 67l-58 -67h-159l152 192h173z" />
<glyph unicode="&#xcf;" horiz-adv-x="264" d="M239 0h-205l119 677h205zM71 805q0 39 27.5 67t66.5 28t67 -28t28 -67t-28 -66.5t-67 -27.5t-66.5 27.5t-27.5 66.5zM302 805q0 39 27.5 67t66.5 28t67 -28t28 -67t-28 -66.5t-67 -27.5t-66.5 27.5t-27.5 66.5z" />
<glyph unicode="&#xd0;" horiz-adv-x="675" d="M87 412h62l47 265h211q155 0 224.5 -79.5t69.5 -206.5q0 -183 -101.5 -287t-306.5 -104h-216l45 260h-62zM337 172q80 0 120.5 62.5t40.5 149.5q0 59 -28 91t-73 32h-29l-17 -95h94l-27 -152h-94l-15 -88h28z" />
<glyph unicode="&#xd1;" horiz-adv-x="638" d="M600 0h-175l-138 316l-55 -316h-195l119 677h176l138 -311l55 311h194zM550 894h134l-4 -25q-13 -75 -55 -113.5t-91 -38.5q-36 0 -74.5 18t-48.5 18q-22 0 -28 -34h-134l4 24q13 76 55 114.5t91 38.5q33 0 72.5 -18t50.5 -18q22 0 28 34z" />
<glyph unicode="&#xd2;" horiz-adv-x="706" d="M524 390q0 54 -24 85.5t-63 31.5q-63 0 -100.5 -66.5t-37.5 -152.5q0 -54 24 -85.5t65 -31.5q62 0 99 66.5t37 152.5zM360 -11q-130 0 -203 81t-73 212q0 83 23 155t68 129t119 90t169 33q130 0 203 -81t73 -212q0 -83 -23 -155t-68 -129t-119 -90t-169 -33zM391 719 l-81 192h217l30 -192h-166z" />
<glyph unicode="&#xd3;" horiz-adv-x="706" d="M524 390q0 54 -24 85.5t-63 31.5q-63 0 -100.5 -66.5t-37.5 -152.5q0 -54 24 -85.5t65 -31.5q62 0 99 66.5t37 152.5zM360 -11q-130 0 -203 81t-73 212q0 83 23 155t68 129t119 90t169 33q130 0 203 -81t73 -212q0 -83 -23 -155t-68 -129t-119 -90t-169 -33zM690 911 l-149 -192h-166l98 192h217z" />
<glyph unicode="&#xd4;" horiz-adv-x="706" d="M524 390q0 54 -24 85.5t-63 31.5q-63 0 -100.5 -66.5t-37.5 -152.5q0 -54 24 -85.5t65 -31.5q62 0 99 66.5t37 152.5zM360 -11q-130 0 -203 81t-73 212q0 83 23 155t68 129t119 90t169 33q130 0 203 -81t73 -212q0 -83 -23 -155t-68 -129t-119 -90t-169 -33zM686 719 h-159l-33 67l-58 -67h-159l152 192h173z" />
<glyph unicode="&#xd5;" horiz-adv-x="706" d="M524 390q0 54 -24 85.5t-63 31.5q-63 0 -100.5 -66.5t-37.5 -152.5q0 -54 24 -85.5t65 -31.5q62 0 99 66.5t37 152.5zM360 -11q-130 0 -203 81t-73 212q0 83 23 155t68 129t119 90t169 33q130 0 203 -81t73 -212q0 -83 -23 -155t-68 -129t-119 -90t-169 -33zM584 894h134 l-4 -25q-13 -75 -55 -113.5t-91 -38.5q-36 0 -74.5 18t-48.5 18q-22 0 -28 -34h-134l4 24q13 76 55 114.5t91 38.5q33 0 72.5 -18t50.5 -18q22 0 28 34z" />
<glyph unicode="&#xd6;" horiz-adv-x="706" d="M524 390q0 54 -24 85.5t-63 31.5q-63 0 -100.5 -66.5t-37.5 -152.5q0 -54 24 -85.5t65 -31.5q62 0 99 66.5t37 152.5zM360 -11q-130 0 -203 81t-73 212q0 83 23 155t68 129t119 90t169 33q130 0 203 -81t73 -212q0 -83 -23 -155t-68 -129t-119 -90t-169 -33zM291 805 q0 39 27.5 67t66.5 28t67 -28t28 -67t-28 -66.5t-67 -27.5t-66.5 27.5t-27.5 66.5zM522 805q0 39 27.5 67t66.5 28t67 -28t28 -67t-28 -66.5t-67 -27.5t-66.5 27.5t-27.5 66.5z" />
<glyph unicode="&#xd7;" horiz-adv-x="636" d="M601 379l-145 -125l102 -124l-110 -93l-102 123l-147 -126l-92 111l148 127l-102 125l109 92l102 -123l146 124z" />
<glyph unicode="&#xd8;" horiz-adv-x="706" d="M360 -11q-75 0 -133 28l-62 -68l-119 89l75 82q-37 68 -37 162q0 83 23 155t68 129t119 90t169 33q76 0 136 -30l63 71l117 -90l-75 -86q35 -68 35 -158q0 -83 -23 -155t-68 -129t-119 -90t-169 -33zM388 156q53 0 91.5 61t46.5 139l-173 -193q17 -7 35 -7zM437 522 q-55 0 -94.5 -61.5t-46.5 -140.5l173 195q-17 7 -32 7z" />
<glyph unicode="&#xd9;" horiz-adv-x="632" d="M639 244q-22 -123 -101.5 -188.5t-212.5 -65.5q-119 0 -182 53t-63 161q0 39 7 78l69 395h206l-72 -399q-3 -16 -3 -29q0 -35 17 -54t46 -19q33 0 55 23t29 61l75 417h206zM355 719l-81 192h217l30 -192h-166z" />
<glyph unicode="&#xda;" horiz-adv-x="632" d="M639 244q-22 -123 -101.5 -188.5t-212.5 -65.5q-119 0 -182 53t-63 161q0 39 7 78l69 395h206l-72 -399q-3 -16 -3 -29q0 -35 17 -54t46 -19q33 0 55 23t29 61l75 417h206zM674 911l-149 -192h-166l98 192h217z" />
<glyph unicode="&#xdb;" horiz-adv-x="632" d="M639 244q-22 -123 -101.5 -188.5t-212.5 -65.5q-119 0 -182 53t-63 161q0 39 7 78l69 395h206l-72 -399q-3 -16 -3 -29q0 -35 17 -54t46 -19q33 0 55 23t29 61l75 417h206zM649 719h-159l-33 67l-58 -67h-159l152 192h173z" />
<glyph unicode="&#xdc;" horiz-adv-x="632" d="M639 244q-22 -123 -101.5 -188.5t-212.5 -65.5q-119 0 -182 53t-63 161q0 39 7 78l69 395h206l-72 -399q-3 -16 -3 -29q0 -35 17 -54t46 -19q33 0 55 23t29 61l75 417h206zM254 805q0 39 27.5 67t66.5 28t67 -28t28 -67t-28 -66.5t-67 -27.5t-66.5 27.5t-27.5 66.5z M485 805q0 39 27.5 67t66.5 28t67 -28t28 -67t-28 -66.5t-67 -27.5t-66.5 27.5t-27.5 66.5z" />
<glyph unicode="&#xdd;" horiz-adv-x="631" d="M764 677l-309 -432l-43 -245h-206l43 245l-161 432h236l71 -207l143 207h226zM682 911l-149 -192h-166l98 192h217z" />
<glyph unicode="&#xde;" horiz-adv-x="571" d="M614 384q0 -122 -79 -187.5t-228 -65.5h-44l-23 -131h-203l119 677h203l-18 -103h42q113 0 172 -52t59 -138zM334 285q31 0 52 21.5t21 56.5q0 22 -12.5 38t-41.5 16h-40l-23 -132h44z" />
<glyph unicode="&#xdf;" horiz-adv-x="549" d="M227 0h-197l87 499q44 246 276 246q95 0 152.5 -55t57.5 -135q0 -110 -100 -176q68 -40 68 -151q0 -102 -67 -167.5t-167 -65.5q-46 0 -88 13l36 156q12 -2 23 -2q26 0 42.5 21t16.5 51q0 27 -15 44t-42 17h-5l26 150h5q52 0 63 70q3 13 3 26q0 23 -9 36.5t-25 13.5 q-19 0 -31.5 -17.5t-20.5 -64.5z" />
<glyph unicode="&#xe0;" horiz-adv-x="496" d="M468 0h-188l7 40q-65 -50 -130 -50q-59 0 -89 35.5t-30 87.5q0 184 289 203q0 2 0.5 5t0.5 5q0 36 -41 36q-53 0 -154 -28l-18 141q105 39 221 39q89 0 136.5 -41t47.5 -138q0 -39 -9 -90zM305 181l5 28q-90 -9 -90 -56q0 -13 7.5 -20.5t17.5 -7.5q23 0 39.5 15.5 t20.5 40.5zM312 548l-81 192h217l30 -192h-166z" />
<glyph unicode="&#xe1;" horiz-adv-x="496" d="M468 0h-188l7 40q-65 -50 -130 -50q-59 0 -89 35.5t-30 87.5q0 184 289 203q0 2 0.5 5t0.5 5q0 36 -41 36q-53 0 -154 -28l-18 141q105 39 221 39q89 0 136.5 -41t47.5 -138q0 -39 -9 -90zM305 181l5 28q-90 -9 -90 -56q0 -13 7.5 -20.5t17.5 -7.5q23 0 39.5 15.5 t20.5 40.5zM543 740l-149 -192h-166l98 192h217z" />
<glyph unicode="&#xe2;" horiz-adv-x="496" d="M468 0h-188l7 40q-65 -50 -130 -50q-59 0 -89 35.5t-30 87.5q0 184 289 203q0 2 0.5 5t0.5 5q0 36 -41 36q-53 0 -154 -28l-18 141q105 39 221 39q89 0 136.5 -41t47.5 -138q0 -39 -9 -90zM305 181l5 28q-90 -9 -90 -56q0 -13 7.5 -20.5t17.5 -7.5q23 0 39.5 15.5 t20.5 40.5zM554 548h-159l-33 67l-58 -67h-159l152 192h173z" />
<glyph unicode="&#xe3;" horiz-adv-x="496" d="M468 0h-188l7 40q-65 -50 -130 -50q-59 0 -89 35.5t-30 87.5q0 184 289 203q0 2 0.5 5t0.5 5q0 36 -41 36q-53 0 -154 -28l-18 141q105 39 221 39q89 0 136.5 -41t47.5 -138q0 -39 -9 -90zM305 181l5 28q-90 -9 -90 -56q0 -13 7.5 -20.5t17.5 -7.5q23 0 39.5 15.5 t20.5 40.5zM450 731h134l-4 -25q-13 -75 -55 -113.5t-91 -38.5q-36 0 -74.5 18t-48.5 18q-22 0 -28 -34h-134l4 24q13 76 55 114.5t91 38.5q33 0 72.5 -18t50.5 -18q22 0 28 34z" />
<glyph unicode="&#xe4;" horiz-adv-x="496" d="M468 0h-188l7 40q-65 -50 -130 -50q-59 0 -89 35.5t-30 87.5q0 184 289 203q0 2 0.5 5t0.5 5q0 36 -41 36q-53 0 -154 -28l-18 141q105 39 221 39q89 0 136.5 -41t47.5 -138q0 -39 -9 -90zM305 181l5 28q-90 -9 -90 -56q0 -13 7.5 -20.5t17.5 -7.5q23 0 39.5 15.5 t20.5 40.5zM156 639q0 39 27.5 67t66.5 28t67 -28t28 -67t-28 -66.5t-67 -27.5t-66.5 27.5t-27.5 66.5zM387 639q0 39 27.5 67t66.5 28t67 -28t28 -67t-28 -66.5t-67 -27.5t-66.5 27.5t-27.5 66.5z" />
<glyph unicode="&#xe5;" horiz-adv-x="496" d="M468 0h-188l7 40q-65 -50 -130 -50q-59 0 -89 35.5t-30 87.5q0 184 289 203q0 2 0.5 5t0.5 5q0 36 -41 36q-53 0 -154 -28l-18 141q105 39 221 39q89 0 136.5 -41t47.5 -138q0 -39 -9 -90zM305 181l5 28q-90 -9 -90 -56q0 -13 7.5 -20.5t17.5 -7.5q23 0 39.5 15.5 t20.5 40.5zM253 644q0 47 32.5 78.5t80.5 31.5t81 -31.5t33 -78.5t-33 -78.5t-81 -31.5t-80.5 31.5t-32.5 78.5zM334 644q0 -14 9 -23t23 -9t23 9t9 23t-9 23t-23 9t-23 -9t-9 -23z" />
<glyph unicode="&#xe6;" horiz-adv-x="763" d="M797 319q0 -62 -22 -121h-277q11 -48 84 -48q58 0 137 19l15 -147q-83 -32 -178 -32q-127 0 -188 65q-72 -65 -177 -65q-75 0 -114 37t-39 94q0 176 289 195q0 2 0.5 5t0.5 5q0 36 -41 36q-53 0 -154 -28l-18 141q105 39 221 39q86 0 124 -39q65 39 142 39 q97 0 146 -54.5t49 -140.5zM305 181l5 28q-90 -9 -90 -56q0 -28 30 -28q19 0 35 16t20 40zM576 365q-43 0 -67 -59h108q1 4 1 12q0 20 -11.5 33.5t-30.5 13.5z" />
<glyph unicode="&#xe7;" horiz-adv-x="418" d="M487 501l-38 -160q-33 11 -64 11q-54 0 -84 -35t-30 -85q0 -82 83 -82q24 0 59 8l-17 -150q-60 -20 -117 -20q-93 0 -153 53.5t-60 161.5q0 30 6 63q12 70 46 121.5t78 78t86 38t83 11.5q82 0 122 -14zM346 -27l-104 -156h-177l82 156h199z" />
<glyph unicode="&#xe8;" horiz-adv-x="512" d="M546 319q0 -62 -22 -121h-277q11 -48 84 -48q58 0 137 19l15 -147q-83 -32 -178 -32q-49 0 -90.5 10.5t-78 34.5t-57.5 69t-21 108q0 73 31.5 140.5t98.5 114.5t155 47q103 0 153 -54t50 -141zM325 365q-43 0 -67 -59h108q1 4 1 12q0 20 -11.5 33.5t-30.5 13.5zM295 548 l-81 192h217l30 -192h-166z" />
<glyph unicode="&#xe9;" horiz-adv-x="512" d="M546 319q0 -62 -22 -121h-277q11 -48 84 -48q58 0 137 19l15 -147q-83 -32 -178 -32q-49 0 -90.5 10.5t-78 34.5t-57.5 69t-21 108q0 73 31.5 140.5t98.5 114.5t155 47q103 0 153 -54t50 -141zM325 365q-43 0 -67 -59h108q1 4 1 12q0 20 -11.5 33.5t-30.5 13.5zM576 740 l-149 -192h-166l98 192h217z" />
<glyph unicode="&#xea;" horiz-adv-x="512" d="M546 319q0 -62 -22 -121h-277q11 -48 84 -48q58 0 137 19l15 -147q-83 -32 -178 -32q-49 0 -90.5 10.5t-78 34.5t-57.5 69t-21 108q0 73 31.5 140.5t98.5 114.5t155 47q103 0 153 -54t50 -141zM325 365q-43 0 -67 -59h108q1 4 1 12q0 20 -11.5 33.5t-30.5 13.5zM567 548 h-159l-33 67l-58 -67h-159l152 192h173z" />
<glyph unicode="&#xeb;" horiz-adv-x="512" d="M546 319q0 -62 -22 -121h-277q11 -48 84 -48q58 0 137 19l15 -147q-83 -32 -178 -32q-49 0 -90.5 10.5t-78 34.5t-57.5 69t-21 108q0 73 31.5 140.5t98.5 114.5t155 47q103 0 153 -54t50 -141zM325 365q-43 0 -67 -59h108q1 4 1 12q0 20 -11.5 33.5t-30.5 13.5zM169 639 q0 39 27.5 67t66.5 28t67 -28t28 -67t-28 -66.5t-67 -27.5t-66.5 27.5t-27.5 66.5zM400 639q0 39 27.5 67t66.5 28t67 -28t28 -67t-28 -66.5t-67 -27.5t-66.5 27.5t-27.5 66.5z" />
<glyph unicode="&#xec;" horiz-adv-x="252" d="M224 0h-195l88 503h195zM156 548l-81 192h217l30 -192h-166z" />
<glyph unicode="&#xed;" horiz-adv-x="252" d="M224 0h-195l88 503h195zM442 740l-149 -192h-166l98 192h217z" />
<glyph unicode="&#xee;" horiz-adv-x="252" d="M224 0h-195l88 503h195zM433 548h-159l-33 67l-58 -67h-159l152 192h173z" />
<glyph unicode="&#xef;" horiz-adv-x="252" d="M224 0h-195l88 503h195zM34 639q0 39 27.5 67t66.5 28t67 -28t28 -67t-28 -66.5t-67 -27.5t-66.5 27.5t-27.5 66.5zM265 639q0 39 27.5 67t66.5 28t67 -28t28 -67t-28 -66.5t-67 -27.5t-66.5 27.5t-27.5 66.5z" />
<glyph unicode="&#xf0;" horiz-adv-x="571" d="M587 404q0 -60 -9 -116t-32 -111t-57.5 -96t-89 -66t-122.5 -25q-102 0 -153.5 59.5t-51.5 145.5q0 101 68.5 178.5t174.5 77.5q6 0 37 -3t31 -4q0 33 -25 63l-71 -46l-79 89l37 25q-30 7 -74 16l67 155q115 -6 193 -47l70 48l73 -96l-47 -32q60 -79 60 -215zM304 148 q33 0 49.5 39t16.5 80q0 52 -37 52q-30 0 -43 -40t-13 -80q0 -51 27 -51z" />
<glyph unicode="&#xf1;" horiz-adv-x="513" d="M485 0h-196l46 264q8 45 8 53q0 36 -24 36q-34 0 -43 -58l-52 -295h-196l88 503h185l-5 -29q54 40 116 40q60 0 95.5 -35t35.5 -104q0 -38 -8 -88zM460 731h134l-4 -25q-13 -75 -55 -113.5t-91 -38.5q-36 0 -74.5 18t-48.5 18q-22 0 -28 -34h-134l4 24q13 76 55 114.5 t91 38.5q33 0 72.5 -18t50.5 -18q22 0 28 34z" />
<glyph unicode="&#xf2;" d="M296 149q30 0 50.5 42.5t20.5 92.5q0 68 -40 68q-30 0 -50.5 -42.5t-20.5 -92.5q0 -68 40 -68zM272 -12q-100 0 -156 63.5t-56 158.5q0 57 17 109t50.5 97t91.5 71.5t133 26.5q100 0 156 -63.5t56 -158.5q0 -57 -17 -109t-50.5 -97t-91.5 -71.5t-133 -26.5zM274 548 l-81 192h217l30 -192h-166z" />
<glyph unicode="&#xf3;" d="M296 149q30 0 50.5 42.5t20.5 92.5q0 68 -40 68q-30 0 -50.5 -42.5t-20.5 -92.5q0 -68 40 -68zM272 -12q-100 0 -156 63.5t-56 158.5q0 57 17 109t50.5 97t91.5 71.5t133 26.5q100 0 156 -63.5t56 -158.5q0 -57 -17 -109t-50.5 -97t-91.5 -71.5t-133 -26.5zM575 740 l-149 -192h-166l98 192h217z" />
<glyph unicode="&#xf4;" d="M296 149q30 0 50.5 42.5t20.5 92.5q0 68 -40 68q-30 0 -50.5 -42.5t-20.5 -92.5q0 -68 40 -68zM272 -12q-100 0 -156 63.5t-56 158.5q0 57 17 109t50.5 97t91.5 71.5t133 26.5q100 0 156 -63.5t56 -158.5q0 -57 -17 -109t-50.5 -97t-91.5 -71.5t-133 -26.5zM571 548h-159 l-33 67l-58 -67h-159l152 192h173z" />
<glyph unicode="&#xf5;" d="M296 149q30 0 50.5 42.5t20.5 92.5q0 68 -40 68q-30 0 -50.5 -42.5t-20.5 -92.5q0 -68 40 -68zM272 -12q-100 0 -156 63.5t-56 158.5q0 57 17 109t50.5 97t91.5 71.5t133 26.5q100 0 156 -63.5t56 -158.5q0 -57 -17 -109t-50.5 -97t-91.5 -71.5t-133 -26.5zM465 731h134 l-4 -25q-13 -75 -55 -113.5t-91 -38.5q-36 0 -74.5 18t-48.5 18q-22 0 -28 -34h-134l4 24q13 76 55 114.5t91 38.5q33 0 72.5 -18t50.5 -18q22 0 28 34z" />
<glyph unicode="&#xf6;" d="M296 149q30 0 50.5 42.5t20.5 92.5q0 68 -40 68q-30 0 -50.5 -42.5t-20.5 -92.5q0 -68 40 -68zM272 -12q-100 0 -156 63.5t-56 158.5q0 57 17 109t50.5 97t91.5 71.5t133 26.5q100 0 156 -63.5t56 -158.5q0 -57 -17 -109t-50.5 -97t-91.5 -71.5t-133 -26.5zM170 639 q0 39 27.5 67t66.5 28t67 -28t28 -67t-28 -66.5t-67 -27.5t-66.5 27.5t-27.5 66.5zM401 639q0 39 27.5 67t66.5 28t67 -28t28 -67t-28 -66.5t-67 -27.5t-66.5 27.5t-27.5 66.5z" />
<glyph unicode="&#xf7;" horiz-adv-x="636" d="M613 193h-525l24 140h525zM239 80q0 38 27 65.5t65 27.5t65.5 -27.5t27.5 -65.5t-27.5 -65t-65.5 -27t-65 27t-27 65zM303 445q0 38 27 65.5t65 27.5t65.5 -27.5t27.5 -65.5t-27.5 -65t-65.5 -27t-65 27t-27 65z" />
<glyph unicode="&#xf8;" d="M588 475l-54 -61q30 -55 30 -122q0 -57 -17 -109t-50.5 -97t-91.5 -71.5t-133 -26.5q-58 0 -102 22l-43 -51l-93 69l54 63q-28 50 -28 119q0 57 17 109t50.5 97t91.5 71.5t133 26.5q55 0 98 -20l44 50zM294 132q33 0 58.5 44.5t28.5 97.5l-114 -133q11 -9 27 -9zM330 367 q-31 0 -55.5 -39t-30.5 -90l107 123q-9 6 -21 6z" />
<glyph unicode="&#xf9;" horiz-adv-x="513" d="M520 203q-18 -102 -87 -158.5t-172 -56.5q-84 0 -141 47t-57 142q0 27 6 60l47 266h196l-51 -290q-4 -23 -4 -31q0 -16 8.5 -24.5t20.5 -8.5q29 0 37 45l54 309h196zM272 548l-81 192h217l30 -192h-166z" />
<glyph unicode="&#xfa;" horiz-adv-x="513" d="M520 203q-18 -102 -87 -158.5t-172 -56.5q-84 0 -141 47t-57 142q0 27 6 60l47 266h196l-51 -290q-4 -23 -4 -31q0 -16 8.5 -24.5t20.5 -8.5q29 0 37 45l54 309h196zM573 740l-149 -192h-166l98 192h217z" />
<glyph unicode="&#xfb;" horiz-adv-x="513" d="M520 203q-18 -102 -87 -158.5t-172 -56.5q-84 0 -141 47t-57 142q0 27 6 60l47 266h196l-51 -290q-4 -23 -4 -31q0 -16 8.5 -24.5t20.5 -8.5q29 0 37 45l54 309h196zM558 548h-159l-33 67l-58 -67h-159l152 192h173z" />
<glyph unicode="&#xfc;" horiz-adv-x="513" d="M520 203q-18 -102 -87 -158.5t-172 -56.5q-84 0 -141 47t-57 142q0 27 6 60l47 266h196l-51 -290q-4 -23 -4 -31q0 -16 8.5 -24.5t20.5 -8.5q29 0 37 45l54 309h196zM159 639q0 39 27.5 67t66.5 28t67 -28t28 -67t-28 -66.5t-67 -27.5t-66.5 27.5t-27.5 66.5zM390 639 q0 39 27.5 67t66.5 28t67 -28t28 -67t-28 -66.5t-67 -27.5t-66.5 27.5t-27.5 66.5z" />
<glyph unicode="&#xfd;" horiz-adv-x="541" d="M643 503l-371 -675h-217l125 209l-107 466h216l40 -205l105 205h209zM584 740l-149 -192h-166l98 192h217z" />
<glyph unicode="&#xfe;" horiz-adv-x="531" d="M566 330q0 -141 -83 -239t-229 -98h-25l-29 -165h-197l161 912h195l-46 -262q53 36 113 36q68 0 104 -49.5t36 -134.5zM279 287l-23 -132q8 -5 21 -5q30 0 49.5 27t26.5 58t7 63q0 55 -30 55q-39 0 -51 -66z" />
<glyph unicode="&#xff;" horiz-adv-x="541" d="M643 503l-371 -675h-217l125 209l-107 466h216l40 -205l105 205h209zM180 639q0 39 27.5 67t66.5 28t67 -28t28 -67t-28 -66.5t-67 -27.5t-66.5 27.5t-27.5 66.5zM411 639q0 39 27.5 67t66.5 28t67 -28t28 -67t-28 -66.5t-67 -27.5t-66.5 27.5t-27.5 66.5z" />
<glyph unicode="&#x152;" horiz-adv-x="931" d="M360 -9q-131 0 -203.5 80t-72.5 211q0 83 23 155t68 128.5t119 89t169 32.5q52 0 105 -10h435l-31 -170h-230l-14 -83h202l-30 -170h-202l-14 -82h244l-30 -172h-435q-40 -9 -103 -9zM524 390q0 54 -24 85.5t-63 31.5q-63 0 -100.5 -66.5t-37.5 -152.5q0 -54 24 -85.5 t65 -31.5q62 0 99 66.5t37 152.5z" />
<glyph unicode="&#x153;" horiz-adv-x="814" d="M848 319q0 -62 -22 -121h-277q11 -48 84 -48q58 0 137 19l15 -147q-83 -32 -178 -32q-109 0 -168 47q-65 -49 -167 -49q-100 0 -156 63.5t-56 158.5q0 57 16.5 109.5t49 96.5t88 71t126.5 27q96 0 148 -54q71 54 157 54q105 0 154 -58.5t49 -136.5zM296 149q30 0 50.5 44 t20.5 98q0 27 -10 48t-31 21q-29 0 -49.5 -45t-20.5 -90q0 -76 40 -76zM624 360q-42 0 -64 -54h108q1 4 1 12q0 20 -13 31t-32 11z" />
<glyph unicode="&#x178;" horiz-adv-x="631" d="M764 677l-309 -432l-43 -245h-206l43 245l-161 432h236l71 -207l143 207h226zM253 805q0 39 27.5 67t66.5 28t67 -28t28 -67t-28 -66.5t-67 -27.5t-66.5 27.5t-27.5 66.5zM484 805q0 39 27.5 67t66.5 28t67 -28t28 -67t-28 -66.5t-67 -27.5t-66.5 27.5t-27.5 66.5z" />
<glyph unicode="&#x2c6;" d="M568 548h-159l-33 67l-58 -67h-159l152 192h173z" />
<glyph unicode="&#x2dc;" d="M464 731h134l-4 -25q-13 -75 -55 -113.5t-91 -38.5q-36 0 -74.5 18t-48.5 18q-22 0 -28 -34h-134l4 24q13 76 55 114.5t91 38.5q33 0 72.5 -18t50.5 -18q22 0 28 34z" />
<glyph unicode="&#x2000;" horiz-adv-x="455" />
<glyph unicode="&#x2001;" horiz-adv-x="911" />
<glyph unicode="&#x2002;" horiz-adv-x="455" />
<glyph unicode="&#x2003;" horiz-adv-x="911" />
<glyph unicode="&#x2004;" horiz-adv-x="303" />
<glyph unicode="&#x2005;" horiz-adv-x="227" />
<glyph unicode="&#x2006;" horiz-adv-x="151" />
<glyph unicode="&#x2007;" horiz-adv-x="151" />
<glyph unicode="&#x2008;" horiz-adv-x="113" />
<glyph unicode="&#x2009;" horiz-adv-x="182" />
<glyph unicode="&#x200a;" horiz-adv-x="50" />
<glyph unicode="&#x2010;" horiz-adv-x="308" d="M48 183l28 160h276l-28 -160h-276z" />
<glyph unicode="&#x2011;" horiz-adv-x="308" d="M48 183l28 160h276l-28 -160h-276z" />
<glyph unicode="&#x2013;" horiz-adv-x="589" d="M95 343h516l-28 -160h-516z" />
<glyph unicode="&#x2014;" horiz-adv-x="1133" d="M102 343h1030l-28 -160h-1030z" />
<glyph unicode="&#x2018;" horiz-adv-x="304" d="M91 446l155 294h178l-124 -294h-209z" />
<glyph unicode="&#x2019;" horiz-adv-x="304" d="M424 740l-155 -294h-178l124 294h209z" />
<glyph unicode="&#x201a;" horiz-adv-x="304" d="M327 187l-155 -294h-178l124 294h209z" />
<glyph unicode="&#x201c;" horiz-adv-x="550" d="M348 446l145 294h177l-112 -294h-210zM91 446l167 294h176l-134 -294h-209z" />
<glyph unicode="&#x201d;" horiz-adv-x="550" d="M413 740l-145 -294h-177l112 294h210zM670 740l-167 -294h-176l134 294h209z" />
<glyph unicode="&#x201e;" horiz-adv-x="550" d="M316 188l-145 -294h-177l112 294h210zM573 188l-167 -294h-176l134 294h209z" />
<glyph unicode="&#x2022;" horiz-adv-x="445" d="M268 439q91 0 140.5 -54.5t49.5 -127.5q0 -76 -50 -130.5t-140 -54.5q-92 0 -141.5 52.5t-49.5 126.5q0 75 51.5 131.5t139.5 56.5z" />
<glyph unicode="&#x2026;" horiz-adv-x="834" d="M47 101q0 47 32.5 79.5t79.5 32.5t80 -33t33 -79t-33 -79t-80 -33t-79.5 32.5t-32.5 79.5zM325 101q0 47 32.5 79.5t79.5 32.5t80 -33t33 -79t-33 -79t-80 -33t-79.5 32.5t-32.5 79.5zM603 101q0 47 32.5 79.5t79.5 32.5t80 -33t33 -79t-33 -79t-80 -33t-79.5 32.5 t-32.5 79.5z" />
<glyph unicode="&#x202f;" horiz-adv-x="182" />
<glyph unicode="&#x2039;" horiz-adv-x="322" d="M373 394l-126 -128l81 -128l-115 -83l-140 211l215 211z" />
<glyph unicode="&#x203a;" horiz-adv-x="325" d="M213 476l140 -210l-214 -210l-89 79l128 131l-81 131z" />
<glyph unicode="&#x205f;" horiz-adv-x="227" />
<glyph unicode="&#x20ac;" horiz-adv-x="644" d="M523 181h-138q31 -36 104 -36q55 0 126 18l-27 -155q-66 -20 -129 -20q-100 0 -175.5 49t-102.5 144h-122l50 130h61q2 22 4 34h-96l50 131h81q43 97 125.5 155t192.5 58q105 0 180 -33l-61 -155q-51 21 -114 21q-65 0 -104 -46h208l-51 -131h-211q-3 -14 -3 -34h202z " />
<glyph unicode="&#x2122;" horiz-adv-x="545" d="M335 625h-50l-29 -165h-65l29 165h-53l9 52h168zM555 460h-63l14 84l-38 -64h-41l-17 66l-15 -86h-62l38 217h64l29 -110l67 110h62z" />
</font>
</defs>
</svg>
