<?xml version="1.0" standalone="no"?>
<!DOCTYPE svg PUBLIC "-//W3C//DTD SVG 1.1//EN" "http://www.w3.org/Graphics/SVG/1.1/DTD/svg11.dtd" >
<svg xmlns="http://www.w3.org/2000/svg">
<metadata>
This is a custom SVG webfont generated by Fontspring.
</metadata>
<defs>
<font id="webfontzCENSzuh" horiz-adv-x="653" >
<font-face units-per-em="1000" ascent="769" descent="-231" />
<missing-glyph horiz-adv-x="234" />
<glyph unicode=" "  horiz-adv-x="234" />
<glyph unicode="&#x09;" horiz-adv-x="234" />
<glyph unicode="&#xa0;" horiz-adv-x="234" />
<glyph unicode="!" horiz-adv-x="225" d="M160 154h-45l90 522h50zM82 26q0 14 9.5 24t24.5 10t24.5 -10t9.5 -24t-9.5 -23.5t-24.5 -9.5t-24.5 9.5t-9.5 23.5z" />
<glyph unicode="&#x22;" horiz-adv-x="382" d="M223 505h-43l41 249h47zM379 505h-42l40 249h48z" />
<glyph unicode="#" horiz-adv-x="627" d="M96 0l90 211h-131l11 38h136l75 176h-165l12 38h170l90 212h40l-91 -212h147l91 212h39l-90 -212h128l-12 -38h-133l-74 -176h161l-11 -38h-167l-90 -211h-39l89 211h-146l-90 -211h-40zM242 249h147l75 176h-147z" />
<glyph unicode="$" horiz-adv-x="500" d="M207 -90l15 85l1 1q-43 2 -88.5 24.5t-81.5 55.5l27 33q69 -65 149 -75l51 290q-73 35 -114.5 73.5t-41.5 99.5q0 83 61.5 132.5t157.5 53.5v-1l11 64h37q-3 -21 -11 -63q84 -8 151 -58q-7 -12 -23 -36q-53 44 -135 53q-6 -31 -22.5 -132t-28.5 -155q71 -34 112.5 -72.5 t41.5 -97.5q0 -82 -60.5 -134t-156.5 -57l-15 -84h-37zM266 35q72 2 118.5 41t46.5 108q0 42 -29.5 69t-87.5 56l-43 -244q-1 -6 -3 -15.5t-2 -14.5zM336 642q-74 -5 -120 -42.5t-46 -100.5q0 -44 30.5 -73t87.5 -57z" />
<glyph unicode="%" horiz-adv-x="876" d="M751 676l-462 -676h-43l461 676h44zM337 684q69 0 110.5 -41t41.5 -106q0 -79 -57 -141t-140 -62q-69 0 -110.5 42t-41.5 106q0 80 57 141t140 61zM293 368q64 0 109 51.5t45 117.5q0 51 -30.5 81.5t-79.5 30.5q-65 0 -109.5 -52t-44.5 -118q0 -50 30.5 -80.5t79.5 -30.5 zM701 339q69 0 110.5 -41t41.5 -106q0 -79 -57.5 -140.5t-139.5 -61.5q-69 0 -111 41.5t-42 106.5q0 80 57 140.5t141 60.5zM656 24q64 0 109 51.5t45 117.5q0 50 -30.5 81t-79.5 31q-65 0 -109 -52t-44 -119q0 -49 30 -79.5t79 -30.5z" />
<glyph unicode="&#x26;" d="M659 301q-55 -103 -137 -184q60 -62 92 -92l-34 -34q-22 20 -92 93q-110 -95 -217 -95q-96 0 -144 44t-48 110q0 69 49 115.5t133 84.5q-68 79 -68 162q0 80 60 131.5t146 51.5q73 0 119.5 -39.5t46.5 -103.5q0 -33 -13.5 -61t-33.5 -48t-54 -40t-63 -32.5t-73 -29.5 q87 -106 167 -189q72 74 118 161q13 -1 46 -5zM276 29q90 0 185 83q-103 112 -177 203q-72 -31 -114.5 -70t-42.5 -98q0 -51 38 -84.5t111 -33.5zM396 649q-64 0 -110.5 -40t-46.5 -101q0 -66 66 -146q50 19 81.5 33.5t65.5 37t50.5 50.5t16.5 62q0 48 -34.5 76t-88.5 28z " />
<glyph unicode="'" horiz-adv-x="225" d="M223 505h-43l41 249h47z" />
<glyph unicode="(" horiz-adv-x="234" d="M331 755q-216 -333 -216 -647q0 -148 47 -289h-41q-49 155 -49 306q0 159 56 312.5t160 317.5h43z" />
<glyph unicode=")" horiz-adv-x="234" d="M7 -181q216 332 216 647q0 148 -47 289h42q48 -158 48 -310q0 -158 -55.5 -310.5t-159.5 -315.5h-44z" />
<glyph unicode="*" horiz-adv-x="527" d="M415 547l25 -19l103 -86q-3 -5 -11 -15l-12 -15l-123 110l-3 -25q-4 -29 -12 -82.5t-10 -64.5h-40l34 177l-23 -10l-128 -54l-13 36q22 7 63 23.5t62 23.5l30 10v1l-25 19l-103 86q3 5 11 15l12 15l123 -111l3 26q6 34 22 146h39l-33 -177l28 13l39 17l45 19l39 16 l13 -36l-124 -47l-31 -10v-1z" />
<glyph unicode="+" horiz-adv-x="630" d="M602 241h-226l-42 -237h-40l42 237h-226q3 13 7 39h226l42 238h40l-42 -238h226q-4 -26 -7 -39z" />
<glyph unicode="," horiz-adv-x="222" d="M162 60l-98 -220h-43l90 220h51z" />
<glyph unicode="-" horiz-adv-x="257" d="M276 239h-215q4 28 7 42h215q-3 -14 -7 -42z" />
<glyph unicode="." horiz-adv-x="226" d="M150 26q0 -14 -9.5 -24t-24.5 -10t-24.5 10t-9.5 24t9.5 24t24.5 10t24.5 -10t9.5 -24z" />
<glyph unicode="/" horiz-adv-x="381" d="M527 755l-510 -833h-43l509 833h44z" />
<glyph unicode="0" horiz-adv-x="544" d="M561 289q0 -114 -80.5 -207t-198.5 -93q-89 0 -150.5 57.5t-61.5 155.5q0 115 78.5 206.5t197.5 91.5q91 0 153 -56.5t62 -154.5zM283 29q95 0 162 78t67 176q0 82 -48 129t-119 47q-91 0 -159.5 -74t-68.5 -183q0 -80 48 -126.5t118 -46.5z" />
<glyph unicode="1" horiz-adv-x="254" d="M166 0h-45l82 449h-125l8 40h168z" />
<glyph unicode="2" horiz-adv-x="439" d="M414 0h-388l6 35q30 17 90 55q44 27 72.5 46t71.5 52t69 59.5t45.5 60t19.5 63.5q0 33 -26.5 62.5t-74.5 29.5q-73 0 -155 -45l-13 38q88 48 173 48q69 0 107 -35t38 -92q0 -39 -24.5 -80.5t-57 -74t-85 -70.5t-88.5 -60l-87 -51h315z" />
<glyph unicode="3" horiz-adv-x="400" d="M373 80q0 -111 -94.5 -171.5t-259.5 -60.5h-20l6 42q3 0 8.5 -0.5t8.5 -0.5q153 0 229 51t76 138q0 41 -27 68.5t-75 27.5q-29 0 -97 -4l6 41l87 5q58 0 101.5 43.5t43.5 97.5q0 51 -33 76t-85 25q-69 0 -143 -28q-6 24 -10 36q75 33 160 33q69 0 113.5 -32.5 t44.5 -103.5q0 -55 -37 -101t-92 -65q41 -9 65 -41t24 -76z" />
<glyph unicode="4" horiz-adv-x="528" d="M504 0h-123l-29 -163h-45l29 163h-306l5 33l370 456h62l-80 -448h124zM343 40l70 396l-320 -396h250z" />
<glyph unicode="5" horiz-adv-x="397" d="M441 489l-8 -43h-253l-61 -216h33q106 0 162 -37t56 -104q0 -89 -93 -157.5t-271 -97.5l-3 41q138 23 228.5 77.5t90.5 133.5q0 103 -177 103h-83l84 300h295z" />
<glyph unicode="6" horiz-adv-x="486" d="M489 238q0 -96 -69 -172.5t-171 -76.5q-79 0 -125.5 51t-46.5 140q0 159 114 297.5t306 192.5q5 -13 13 -39q-137 -36 -232 -125t-137 -199q32 44 80.5 70.5t100.5 26.5q77 0 122 -46t45 -120zM250 28q83 0 137.5 64.5t54.5 144.5q0 58 -36.5 92.5t-94.5 34.5 q-73 0 -131 -53t-58 -132q0 -69 35 -110t93 -41z" />
<glyph unicode="7" horiz-adv-x="429" d="M470 454l-412 -627l-39 20l398 601h-326l8 41h377z" />
<glyph unicode="8" horiz-adv-x="496" d="M144 481q0 84 62 140t153 56q72 0 120 -40.5t48 -112.5q0 -61 -42 -111t-114 -69q59 -16 88 -57t29 -91q0 -84 -67.5 -146t-165.5 -62q-87 0 -138 44.5t-51 114.5t49 125.5t129 73.5q-100 31 -100 135zM258 29q80 0 132.5 51.5t52.5 121.5q0 54 -38.5 88t-104.5 34 q-80 0 -133.5 -51.5t-53.5 -121.5q0 -54 39 -88t106 -34zM483 522q0 53 -35 83.5t-92 30.5q-69 0 -119 -44t-50 -114q0 -51 34.5 -82.5t94.5 -31.5q73 0 120 48t47 110z" />
<glyph unicode="9" horiz-adv-x="486" d="M83 250q0 96 69 172.5t171 76.5q79 0 125.5 -51t46.5 -140q0 -160 -114 -297.5t-306 -191.5q-5 13 -13 39q137 36 228 122t141 201q-32 -44 -80.5 -70.5t-100.5 -26.5q-77 0 -122 46t-45 120zM322 460q-83 0 -137.5 -64.5t-54.5 -144.5q0 -59 36.5 -93t94.5 -34 q73 0 131 53t58 132q0 69 -35 110t-93 41z" />
<glyph unicode=":" horiz-adv-x="225" d="M223 436q0 -14 -10 -24t-24 -10q-15 0 -24.5 10t-9.5 24t9.5 24t24.5 10q14 0 24 -10t10 -24zM150 26q0 -14 -9.5 -24t-24.5 -10t-24.5 10t-9.5 24t9.5 24t24.5 10t24.5 -10t9.5 -24z" />
<glyph unicode=";" horiz-adv-x="225" d="M162 60l-99 -220h-43l91 220h51zM155 436q0 14 9.5 24t24.5 10q14 0 24 -10t10 -24t-10 -24t-24 -10q-15 0 -24.5 10t-9.5 24z" />
<glyph unicode="&#x3c;" horiz-adv-x="630" d="M545 17l-416 199l6 36l486 198l-8 -45l-427 -171l367 -173q-6 -32 -8 -44z" />
<glyph unicode="=" horiz-adv-x="630" d="M618 335h-492l7 40h492zM585 147h-492l7 40h492z" />
<glyph unicode="&#x3e;" horiz-adv-x="630" d="M575 216l-486 -199q2 15 8 45l427 172l-367 172l8 44l416 -198z" />
<glyph unicode="?" horiz-adv-x="437" d="M150 630q85 58 179 58q75 0 122.5 -38t47.5 -111q0 -37 -20 -73t-42 -58t-65 -58q-67 -57 -94.5 -97t-42.5 -105h-43q15 104 83 169q17 17 56 51t60.5 54.5t40 52.5t18.5 63q0 50 -34 78.5t-87 28.5q-74 0 -162 -52zM161 26q0 14 9.5 24t24.5 10q14 0 24 -10t10 -24 t-10 -23.5t-24 -9.5q-15 0 -24.5 9.5t-9.5 23.5z" />
<glyph unicode="@" horiz-adv-x="810" d="M650 481l-74 -214q-13 -38 -13 -60q0 -42 53 -42q61 0 112 68t51 175q0 109 -68.5 175.5t-184.5 66.5q-83 0 -154.5 -32.5t-118.5 -86.5t-73.5 -121.5t-26.5 -138.5q0 -124 77.5 -210t221.5 -86q121 0 234 67l18 -32q-121 -74 -257 -74q-163 0 -249 97t-86 237 q0 107 49.5 202t146.5 156t221 61q136 0 215 -79t79 -201q0 -115 -65 -198t-150 -83q-41 0 -63.5 24.5t-22.5 59.5q-40 -42 -80 -63t-68 -21q-48 0 -74.5 31.5t-26.5 82.5q0 99 77.5 180t182.5 81q57 0 117 -22zM540 282l60 172q-37 11 -72 11q-85 0 -149 -68t-64 -152 q0 -35 17.5 -57.5t46.5 -22.5q39 0 81 30.5t80 86.5z" />
<glyph unicode="A" horiz-adv-x="558" d="M507 0l-43 231h-288l-123 -231h-53l374 681h52l132 -681h-51zM391 630l-194 -360h260z" />
<glyph unicode="B" horiz-adv-x="503" d="M493 200q0 -95 -71 -147.5t-171 -52.5h-181l119 677h156q88 0 135.5 -45t47.5 -111q0 -65 -41.5 -113.5t-107.5 -67.5q56 -12 85 -50.5t29 -89.5zM308 358q66 0 118 46t52 114q0 50 -33.5 84t-100.5 34h-114l-49 -278h127zM260 41q76 0 131 42t55 115q0 55 -36.5 88 t-103.5 33h-132l-49 -278h135z" />
<glyph unicode="C" horiz-adv-x="518" d="M495 35q-88 -45 -163 -45q-122 0 -184 73.5t-62 194.5q0 107 41.5 204t125 161.5t190.5 64.5q87 0 147 -41l-18 -37q-53 34 -135 34q-90 0 -160.5 -57.5t-105 -144.5t-34.5 -183q0 -101 50.5 -163.5t145.5 -62.5q71 0 149 38l6 -18q4 -12 7 -18z" />
<glyph unicode="D" horiz-adv-x="583" d="M611 405q0 -105 -44 -196t-130.5 -150t-198.5 -59h-168l119 677h127q82 0 142 -24t92 -65t46.5 -86.5t14.5 -96.5zM561 404q0 101 -58.5 165.5t-186.5 64.5h-86l-105 -592h117q74 0 136 31.5t101 83t60.5 115.5t21.5 132z" />
<glyph unicode="E" horiz-adv-x="471" d="M437 0h-367l119 677h360q-7 -34 -8 -43h-312l-48 -275h280q-6 -28 -8 -42h-280l-48 -275h319q-3 -14 -7 -42z" />
<glyph unicode="F" horiz-adv-x="457" d="M535 634h-306l-50 -283h276l-7 -43h-276l-54 -308h-48l119 677h354q-1 -9 -8 -43z" />
<glyph unicode="G" horiz-adv-x="600" d="M441 644q-90 0 -161 -58t-107 -145t-36 -182q0 -101 52.5 -163.5t150.5 -62.5q83 0 160 39l51 277h46l-54 -301q-103 -58 -209 -58q-121 0 -184.5 74t-63.5 194q0 106 42.5 203t126.5 162t191 65q104 0 171 -43l-19 -38q-67 37 -157 37z" />
<glyph unicode="H" horiz-adv-x="597" d="M527 0h-48l56 317h-362l-56 -317h-47l119 677h47l-56 -318h362l56 318h48z" />
<glyph unicode="I" horiz-adv-x="188" d="M118 0h-48l119 677h48z" />
<glyph unicode="J" horiz-adv-x="386" d="M440 677l-92 -511q-16 -88 -65 -132.5t-119 -44.5q-82 0 -140 48q6 8 26 38q51 -43 112 -43q55 0 91.5 37t47.5 100l91 508h48z" />
<glyph unicode="K" horiz-adv-x="493" d="M481 0h-58l-230 350l342 327h60l-346 -331zM118 0h-48l119 677h48z" />
<glyph unicode="L" horiz-adv-x="429" d="M403 0h-333l119 677h48l-112 -635h285q-3 -14 -7 -42z" />
<glyph unicode="M" horiz-adv-x="710" d="M640 0h-48l105 594l-302 -422h-36l-141 419l-104 -591h-44l119 677h46l151 -451l320 451h53z" />
<glyph unicode="N" horiz-adv-x="610" d="M540 0h-49l-269 611l-107 -611h-45l119 677h54l265 -603l106 603h45z" />
<glyph unicode="O" d="M87 266q0 174 101 298t244 124q109 0 179 -72t70 -204q0 -174 -102.5 -299t-246.5 -125q-108 0 -176.5 72t-68.5 206zM136 268q0 -110 53.5 -173.5t142.5 -63.5q125 0 212.5 110.5t87.5 269.5q0 107 -54.5 170.5t-145.5 63.5q-124 0 -210 -109t-86 -268z" />
<glyph unicode="P" horiz-adv-x="483" d="M536 509q0 -94 -71 -161.5t-173 -67.5h-125l-49 -280h-48l118 677h152q90 0 143 -46.5t53 -121.5zM295 322q80 0 135 52.5t55 132.5q0 58 -39 93t-107 35h-109l-56 -313h121z" />
<glyph unicode="Q" d="M87 266q0 174 101 298t244 124q109 0 179 -72t70 -204q0 -92 -32 -175t-88 -143l65 -75q-4 -3 -17 -14.5t-20 -18.5l-65 73q-86 -70 -192 -70q-108 0 -176.5 71.5t-68.5 205.5zM136 268q0 -110 53.5 -173.5t142.5 -63.5q90 0 164 61l-81 94l37 33l80 -92q100 113 100 284 q0 107 -54.5 170.5t-145.5 63.5q-124 0 -210 -109t-86 -268z" />
<glyph unicode="R" horiz-adv-x="488" d="M444 0h-53q-79 201 -120 294h-103l-51 -294h-47l118 677h153q88 0 137.5 -48.5t49.5 -121.5q0 -78 -55.5 -139t-151.5 -71zM282 334q91 0 143.5 48.5t52.5 123.5q0 57 -37 94t-101 37h-111l-54 -303h107z" />
<glyph unicode="S" horiz-adv-x="465" d="M460 183q0 -85 -62 -139t-154 -54q-110 0 -204 79l27 37q91 -74 184 -74q66 0 113.5 40t47.5 105q0 40 -30 71.5t-73 53.5l-85 46q-43 23 -73 60.5t-30 86.5q0 83 64.5 138t157.5 55q89 0 177 -58l-24 -39q-78 55 -160 55q-67 0 -117 -40t-50 -105q0 -41 30 -72.5 t73 -53.5l85 -45q43 -24 73 -61t30 -86z" />
<glyph unicode="T" horiz-adv-x="486" d="M588 634h-210l-111 -634h-48l111 634h-210q1 9 8 43h468q-7 -34 -8 -43z" />
<glyph unicode="U" horiz-adv-x="605" d="M577 233q-21 -119 -94 -181.5t-172 -62.5q-97 0 -151.5 54.5t-54.5 147.5q0 22 5 52l78 434h48l-80 -452q-3 -17 -3 -31q0 -75 41 -118.5t118 -43.5q82 0 141 54.5t76 151.5l77 439h48z" />
<glyph unicode="V" horiz-adv-x="532" d="M655 677l-366 -679h-50l-125 679h50l109 -624l331 624h51z" />
<glyph unicode="W" horiz-adv-x="793" d="M915 677l-299 -677h-51l-64 603l-275 -603h-49l-62 677h52l47 -606l276 606h47l63 -608l263 608h52z" />
<glyph unicode="X" horiz-adv-x="546" d="M12 0l292 341l-168 336h55l146 -298l252 298h58l-288 -337h-1l174 -340h-56l-152 303q0 -1 0.5 -1t0.5 -1l-255 -301h-58z" />
<glyph unicode="Y" horiz-adv-x="491" d="M614 677l-295 -389l-50 -288h-49l51 289l-160 388h51l140 -344l255 344h57z" />
<glyph unicode="Z" horiz-adv-x="507" d="M470 0h-429l5 26l458 608h-348q7 34 8 43h417l-3 -20l-463 -615h362z" />
<glyph unicode="[" horiz-adv-x="257" d="M173 -172h-155l166 928h155l-7 -36h-114l-153 -856h114z" />
<glyph unicode="\" horiz-adv-x="379" d="M336 -78l-217 833h42l217 -833h-42z" />
<glyph unicode="]" horiz-adv-x="248" d="M166 -172h-155l7 36h113l151 856h-113l6 36h155z" />
<glyph unicode="^" horiz-adv-x="563" d="M558 229h-45l-126 388l-260 -388h-45l300 445h29z" />
<glyph unicode="_" horiz-adv-x="573" d="M550 -125h-570l5 37h571z" />
<glyph unicode="`" horiz-adv-x="538" d="M398 554h-40l-67 155h55z" />
<glyph unicode="a" horiz-adv-x="448" d="M439 358q0 -39 -7 -75l-50 -283h-43l15 83q-30 -44 -77.5 -68t-99.5 -24q-63 0 -97.5 32t-34.5 80q0 45 22 79t54.5 53t81.5 31.5t90.5 16.5t94.5 6l1 6q7 47 7 61q0 60 -29 81t-83 21q-69 0 -139 -31l-9 36q87 37 158 37q145 0 145 -142zM382 253q-292 -5 -292 -145 q0 -33 26 -55t67 -22q69 0 122 40t65 109z" />
<glyph unicode="b" horiz-adv-x="514" d="M524 310q0 -128 -77.5 -224.5t-181.5 -96.5q-74 0 -117 43t-43 121q0 27 7 69l95 533h45l-67 -371q35 54 85.5 84t101.5 30q68 0 110 -51.5t42 -136.5zM478 308q0 76 -32.5 113t-81.5 37q-68 0 -126 -53t-72 -134q-15 -88 -15 -115q0 -60 30 -94.5t84 -34.5 q87 0 150 83.5t63 197.5z" />
<glyph unicode="c" horiz-adv-x="411" d="M398 23q-80 -34 -148 -34q-78 0 -125 51t-47 152q0 118 79.5 213t199.5 95q52 0 107 -30l-17 -36q-52 25 -94 25q-102 0 -166.5 -84t-64.5 -183q0 -80 36 -121.5t101 -41.5q55 0 127 30z" />
<glyph unicode="d" horiz-adv-x="504" d="M433 0h-43l16 94q-67 -104 -179 -104q-65 0 -108.5 47t-43.5 137q0 133 85 228.5t211 95.5q53 0 103 -15l48 272h44zM425 207l42 238q-43 13 -93 13q-108 0 -180.5 -81t-72.5 -201q0 -71 33 -109t84 -38q62 0 116.5 48t70.5 130z" />
<glyph unicode="e" horiz-adv-x="477" d="M478 241h-353q-5 -29 -5 -61q0 -75 38 -112.5t101 -37.5q77 0 158 52q16 -27 19 -31q-89 -61 -185 -61q-77 0 -126.5 48t-49.5 142q0 137 79 227.5t178 90.5q73 0 115 -43.5t42 -124.5q0 -34 -11 -89zM438 279q6 30 6 55q0 60 -31 92t-83 32q-64 0 -121 -51t-76 -128h305 z" />
<glyph unicode="f" horiz-adv-x="262" d="M333 449h-116l-79 -449h-44l78 449h-81l8 40h80l19 103q14 77 58 121t106 44q13 0 29 -2l-8 -41q-7 1 -26 1q-43 0 -73.5 -32.5t-41.5 -93.5l-18 -101l1 1h115z" />
<glyph unicode="g" horiz-adv-x="504" d="M467 445q-50 15 -93 15q-104 0 -178 -81.5t-74 -198.5q0 -72 32.5 -109.5t84.5 -37.5q61 0 116 47.5t70 129.5zM517 475l-76 -435q-39 -224 -230 -224q-59 0 -131 26l15 39q70 -24 115 -24q76 0 122.5 41.5t64.5 141.5l10 57q-32 -52 -80 -78t-100 -26q-65 0 -108 46.5 t-43 134.5q0 137 87.5 231.5t217.5 94.5q63 0 136 -25z" />
<glyph unicode="h" horiz-adv-x="502" d="M496 350q0 -40 -11 -102l-44 -248h-44l46 264q8 48 8 77q0 55 -29 86t-82 31q-61 0 -111 -46.5t-64 -124.5l-50 -287h-45l133 755h45l-63 -355q66 100 168 100q60 0 101.5 -40.5t41.5 -109.5z" />
<glyph unicode="i" horiz-adv-x="185" d="M114 0h-44l86 489h44zM241 655q0 -13 -9 -22.5t-23 -9.5q-15 0 -24 9.5t-9 22.5q0 14 9 23.5t24 9.5q14 0 23 -9.5t9 -23.5z" />
<glyph unicode="j" horiz-adv-x="185" d="M64 -25l91 514h45l-92 -520q-12 -67 -49 -109.5t-91 -42.5q-28 0 -39 3l8 41q15 -3 28 -3q79 0 99 117zM176 655q0 14 9 23.5t24 9.5q14 0 23 -9.5t9 -23.5q0 -13 -9 -22.5t-23 -9.5q-15 0 -24 9.5t-9 22.5z" />
<glyph unicode="k" horiz-adv-x="415" d="M404 0h-51l-183 255l258 234h59l-267 -237zM115 0h-45l133 755h45z" />
<glyph unicode="l" horiz-adv-x="185" d="M115 0h-45l132 755h45z" />
<glyph unicode="m" horiz-adv-x="804" d="M801 350q0 -40 -11 -102l-44 -248h-45l46 264q9 47 9 79q0 55 -27.5 85t-76.5 30q-64 0 -110 -43t-59 -118l-53 -297h-44l49 284q6 33 6 60q0 114 -104 114q-64 0 -111.5 -48.5t-59.5 -118.5l-51 -291h-45l86 489h44l-17 -92q32 50 75.5 76t90.5 26q52 0 87.5 -28.5 t44.5 -82.5q29 54 76 82.5t102 28.5q61 0 101.5 -38.5t40.5 -110.5z" />
<glyph unicode="n" horiz-adv-x="502" d="M497 351q0 -31 -12 -103l-43 -248h-45l46 264q8 48 8 77q0 56 -29 86.5t-81 30.5q-71 0 -117.5 -52t-62.5 -143l-46 -263h-45l86 489h44q-6 -30 -16 -90q62 99 164 99q67 0 108 -38t41 -109z" />
<glyph unicode="o" horiz-adv-x="521" d="M343 499q87 0 137.5 -57.5t50.5 -148.5q0 -70 -31 -139t-94 -117t-142 -48q-91 0 -138.5 58.5t-47.5 147.5q0 72 31 140.5t93.5 116t140.5 47.5zM341 461q-96 0 -156.5 -82.5t-60.5 -183.5q0 -72 37.5 -120t104.5 -48q96 0 157.5 83.5t61.5 182.5q0 71 -38.5 119.5 t-105.5 48.5z" />
<glyph unicode="p" horiz-adv-x="502" d="M513 314q0 -140 -85 -230t-209 -90q-52 0 -103 18l-34 -196h-45l119 673h44q-13 -69 -17 -95q33 51 80 78t95 27q67 0 111 -47.5t44 -137.5zM468 312q0 71 -32.5 108.5t-82.5 37.5q-67 0 -120.5 -48t-68.5 -129l-41 -233q42 -15 94 -15q102 0 176.5 74t74.5 205z" />
<glyph unicode="q" horiz-adv-x="505" d="M467 444q-46 16 -93 16q-108 0 -180.5 -83t-72.5 -200q0 -71 33.5 -109t85.5 -38q64 0 117.5 49t67.5 128zM517 473l-116 -657h-45l49 276q-68 -102 -178 -102q-65 0 -108 47t-43 136q0 137 87.5 231.5t217.5 94.5q58 0 136 -26z" />
<glyph unicode="r" horiz-adv-x="287" d="M344 452q-72 -7 -123 -57t-64 -126l-47 -269h-45l86 489h44l-18 -101q66 102 175 110q-1 -7 -4 -22.5t-4 -23.5z" />
<glyph unicode="s" horiz-adv-x="384" d="M376 134q0 -68 -52 -106t-120 -38q-96 0 -162 54l26 35q78 -49 137 -49q51 0 89 25t38 73q0 29 -24 51t-58 37t-67.5 31.5t-57.5 44t-24 64.5q0 66 50.5 105t122.5 39q76 0 146 -39l-20 -38q-55 36 -127 36q-52 0 -90.5 -24.5t-38.5 -71.5q0 -30 24 -52.5t58 -38.5 l68 -32q34 -16 58 -43t24 -63z" />
<glyph unicode="t" horiz-adv-x="268" d="M337 449h-115l-79 -449h-44l78 449h-81l8 40h81l33 188h44l-33 -188h116z" />
<glyph unicode="u" horiz-adv-x="499" d="M524 489l-52 -292q-37 -208 -220 -208q-76 0 -117.5 38.5t-41.5 115.5q0 35 7 70l50 276h46l-51 -282q-6 -29 -6 -54q0 -126 114 -126q143 0 174 175l51 287h46z" />
<glyph unicode="v" horiz-adv-x="425" d="M508 489l-269 -489h-48l-95 489h48l79 -440l234 440h51z" />
<glyph unicode="w" horiz-adv-x="726" d="M798 489l-243 -489h-51l-63 433l-221 -433h-51l-70 489h49l56 -442l222 440h47l63 -441l213 443h49z" />
<glyph unicode="x" horiz-adv-x="448" d="M522 489l-227 -241h-1l149 -248h-53l-127 214l-201 -214h-55l235 249h1l-142 240h51l122 -206l193 206h55z" />
<glyph unicode="y" horiz-adv-x="445" d="M530 489l-385 -673h-52l112 191l-118 482h51l100 -430l239 430h53z" />
<glyph unicode="z" horiz-adv-x="401" d="M365 0h-335l4 29l347 420h-266l8 40h324q-4 -20 -5 -29l-346 -419h276q-3 -16 -7 -41z" />
<glyph unicode="{" horiz-adv-x="222" d="M180 -172h-31q-79 0 -79 64q0 13 5 42l40 222q9 53 9 66q0 41 -23 68q25 20 36.5 42.5t19.5 64.5l46 257l6 28q8 35 32 54t78 19h25l-7 -35h-31q-26 0 -40.5 -12t-20.5 -46l-48 -274q-7 -39 -18 -60t-35 -39q22 -23 22 -58q0 -19 -4 -39l-44 -248q-6 -36 -6 -49 q0 -31 39 -31h35z" />
<glyph unicode="|" horiz-adv-x="264" d="M139 -77h-42l146 830h42z" />
<glyph unicode="}" horiz-adv-x="218" d="M22 -172h-42l6 36h18q33 0 50 12.5t23 45.5l49 271q7 40 18 60t35 38q-22 23 -22 59q0 21 7 58l42 242q5 27 5 40q0 17 -9.5 23.5t-32.5 6.5h-32l7 35h31q78 0 79 -53q0 -14 -3 -33l-48 -272q-5 -27 -5 -42q0 -37 24 -64q-47 -37 -57 -107l-3 -19q-6 -39 -20 -112 t-20 -112q-10 -60 -31.5 -86.5t-68.5 -26.5z" />
<glyph unicode="~" horiz-adv-x="573" d="M552 297q-59 -79 -124 -79q-42 0 -100.5 36t-92.5 36q-58 0 -117 -78l-20 28q26 39 64 64t77 25q43 0 103.5 -36t90.5 -36q18 0 41 15.5t32.5 25t27.5 29.5z" />
<glyph unicode="&#xa1;" horiz-adv-x="225" d="M150 347h45l-93 -531h-50zM158 468q0 14 10 24t24 10q15 0 24.5 -10t9.5 -24t-9.5 -24t-24.5 -10q-14 0 -24 10t-10 24z" />
<glyph unicode="&#xa2;" horiz-adv-x="419" d="M399 24q-62 -27 -118 -32q0 -4 -2 -12t-2 -10l-10 -61h-39l14 81q-76 4 -120 54t-44 148q0 109 72 202.5t181 102.5l16 89h39l-15 -88q46 -4 94 -29l-17 -36q-44 21 -84 24l-76 -425q41 4 99 27zM122 193q0 -75 34 -116.5t93 -46.5l75 425q-88 -11 -145 -90t-57 -172z " />
<glyph unicode="&#xa3;" horiz-adv-x="519" d="M46 0q63 135 110 286h-81l7 41h87l59 188q26 84 71 129t128 45q69 0 126 -30l-19 -37q-56 28 -110 28q-56 0 -92 -34.5t-60 -110.5l-57 -178h180l-7 -41h-186q-38 -125 -89 -245h344l-7 -41h-404z" />
<glyph unicode="&#xa4;" horiz-adv-x="500" d="M28 44l108 94q-22 38 -22 83q0 81 56 140l-71 87q20 18 30 26l70 -87q51 36 112 36q67 0 110 -40l107 92q1 -1 25 -28l-109 -95q19 -35 19 -76q0 -81 -57 -141l76 -92q-20 -18 -30 -26l-75 92q-51 -36 -111 -36q-64 0 -105 36l-108 -93q-1 1 -25 28zM157 218 q0 -50 30.5 -80.5t79.5 -30.5q64 0 109 51.5t45 117.5q0 51 -30.5 81.5t-79.5 30.5q-65 0 -109.5 -52t-44.5 -118z" />
<glyph unicode="&#xa5;" horiz-adv-x="564" d="M646 677l-267 -340h167l-7 -38h-179l-17 -95h179l-6 -37h-179q-22 -121 -29 -167h-46q22 121 29 167h-181l6 37h182l17 95h-182l7 38h166l-152 340h50l142 -321l247 321h53z" />
<glyph unicode="&#xa6;" horiz-adv-x="263" d="M228 426h-42l58 329h42zM155 253h42l-58 -330h-42z" />
<glyph unicode="&#xa7;" horiz-adv-x="573" d="M374 114q51 31 85.5 76t34.5 98q0 30 -12.5 54t-36 41.5t-46 30t-54.5 28t-49 25.5q-121 -77 -121 -177q0 -28 12 -51.5t37 -42t45.5 -30.5t55 -28t49.5 -24zM560 718q-3 -6 -20 -38q-74 36 -137 36q-54 0 -97.5 -32t-43.5 -87q0 -39 28 -67.5t68 -47.5t80.5 -40.5 t68.5 -59.5t28 -91q0 -109 -130 -199q45 -45 45 -101q0 -72 -55 -119.5t-128 -47.5q-89 0 -157 39l20 37q67 -35 136 -35q55 0 98 32t43 88q0 26 -19 56t-53 47q-106 53 -133 73q-68 50 -68 129q0 108 131 199q-45 43 -45 102q0 69 55 117.5t128 48.5q84 0 157 -39z" />
<glyph unicode="&#xa8;" horiz-adv-x="538" d="M258 649q0 12 8.5 21t21.5 9q12 0 20.5 -9t8.5 -21t-8.5 -21.5t-20.5 -9.5q-13 0 -21.5 9.5t-8.5 21.5zM451 649q0 12 8.5 21t21.5 9q12 0 20.5 -9t8.5 -21t-8.5 -21.5t-20.5 -9.5t-21 9.5t-9 21.5z" />
<glyph unicode="&#xa9;" horiz-adv-x="799" d="M810 338q0 -67 -22.5 -128.5t-65 -111.5t-111 -80t-153.5 -30t-154 30t-111.5 80t-65.5 111.5t-23 128.5q0 66 22.5 127.5t65 111t111.5 79t155 29.5q85 0 154 -29.5t111 -79t64.5 -111t22.5 -127.5zM769 338q0 125 -82 216.5t-229 91.5q-148 0 -230 -91.5t-82 -216.5 q0 -59 20 -114t58 -99.5t98.5 -71t135.5 -26.5q99 0 171.5 46t106 115.5t33.5 149.5zM579 125l-3 -2q-51 -30 -115 -30q-104 0 -166.5 66.5t-62.5 168.5q0 99 63 175.5t165 76.5q57 0 118 -31l-14 -37q-51 27 -107 27q-81 0 -132 -64t-51 -147q0 -86 52 -141t137 -55 q53 0 101 28z" />
<glyph unicode="&#xaa;" horiz-adv-x="386" d="M383 399h-39q1 7 4 22.5t4 23.5q-46 -53 -113 -53q-45 0 -71 23.5t-26 57.5q0 123 239 132q4 32 4 41q0 68 -72 68q-44 0 -97 -22q-2 6 -10 32q67 26 112 26q104 0 104 -101q0 -22 -5 -55q-6 -32 -17 -97zM365 521l10 52q-193 -5 -193 -95q0 -22 17.5 -36t44.5 -14 q44 0 78.5 25t42.5 68z" />
<glyph unicode="&#xab;" horiz-adv-x="491" d="M515 448l-185 -186l119 -186l-35 -21l-142 210l216 210zM342 448l-185 -186l119 -186l-35 -21l-142 210l216 210z" />
<glyph unicode="&#xac;" horiz-adv-x="630" d="M561 58h-41l33 193h-435l8 40h476z" />
<glyph unicode="&#xad;" horiz-adv-x="257" d="M276 239h-215q4 28 7 42h215q-3 -14 -7 -42z" />
<glyph unicode="&#xae;" horiz-adv-x="799" d="M806 338q0 -67 -22.5 -128.5t-65 -111t-111 -79.5t-153.5 -30t-154 30t-111.5 79.5t-65.5 111t-23 128.5q0 66 22.5 127.5t65 111t111.5 79t155 29.5q85 0 154 -29.5t111 -79t64.5 -111t22.5 -127.5zM765 338q0 125 -82 216.5t-229 91.5q-148 0 -230 -91.5t-82 -216.5 q0 -59 20 -114t58 -99.5t98.5 -71t135.5 -26.5q99 0 171.5 46t106 115.5t33.5 149.5zM614 108h-47q-61 110 -110 189h-89v-189h-40v467h137q73 0 112 -35.5t39 -96.5q0 -50 -30 -88.5t-86 -51.5q52 -83 114 -195zM573 441q0 45 -28 71.5t-78 26.5h-99v-206h82 q50 0 86.5 24.5t36.5 83.5z" />
<glyph unicode="&#xaf;" horiz-adv-x="298" d="M377 616h-241q2 14 8 42h241q-6 -28 -8 -42z" />
<glyph unicode="&#xb0;" horiz-adv-x="416" d="M418 543q0 -63 -41 -98.5t-95 -35.5t-94 35.5t-40 98.5t40 98.5t94 35.5t95 -36t41 -98zM377 543q0 44 -28.5 69.5t-66.5 25.5t-66 -25.5t-28 -69.5q0 -45 28 -70t66 -25t66.5 25t28.5 70z" />
<glyph unicode="&#xb1;" horiz-adv-x="630" d="M618 332h-227l-42 -236h-38l42 236h-227l6 38h227l42 237h38l-42 -237h227zM560 2h-492l6 39h492z" />
<glyph unicode="&#xb2;" horiz-adv-x="387" d="M369 296h-296l4 31q81 56 141 110q65 57 103 107.5t38 102.5q0 30 -20.5 52t-53.5 22q-57 0 -119 -45q-12 20 -19 30q75 52 144 52q49 0 79 -30t30 -79q0 -71 -61.5 -143.5t-166.5 -151.5l-28 -21h230z" />
<glyph unicode="&#xb3;" horiz-adv-x="361" d="M391 650q0 -40 -25 -72t-65 -45q31 -10 48.5 -37t17.5 -60q0 -66 -49.5 -106t-117.5 -40q-61 0 -117 38l21 30q50 -33 97 -33q53 0 89 31.5t36 80.5q0 32 -23 54.5t-63 22.5h-71l4 36h70q49 0 78 29.5t29 68.5q0 35 -22.5 55t-57.5 20q-53 0 -107 -32l-15 30 q58 38 125 38q52 0 85 -29.5t33 -79.5z" />
<glyph unicode="&#xb4;" horiz-adv-x="538" d="M489 709l-116 -155h-42l103 155h55z" />
<glyph unicode="&#xb5;" horiz-adv-x="482" d="M468 489h44l-50 -283q-38 -217 -198 -217q-53 0 -92 26.5t-53 71.5l-47 -267h-45l119 669h45l-54 -302q-2 -12 -2 -33q0 -55 32.5 -89.5t92.5 -34.5q126 0 156 168z" />
<glyph unicode="&#xb6;" horiz-adv-x="523" d="M610 638h-69l-143 -814h-42l143 814h-94l-143 -814h-42l73 417q-95 1 -146 58t-51 135q0 118 85 180t212 62h224z" />
<glyph unicode="&#xb7;" horiz-adv-x="258" d="M207 339q0 -14 -9.5 -24t-23.5 -10q-15 0 -24 10t-9 24t9 24t24 10q14 0 23.5 -10t9.5 -24z" />
<glyph unicode="&#xb8;" horiz-adv-x="538" d="M331 -107q0 -38 -30.5 -57.5t-74.5 -19.5q-53 0 -93 20l18 31q39 -18 79 -18q25 0 42.5 11.5t17.5 28.5q0 13 -7.5 22.5t-21 15t-24 8.5t-25.5 5.5t-16 2.5l37 61h40l-24 -38q35 -7 58.5 -25t23.5 -48z" />
<glyph unicode="&#xb9;" horiz-adv-x="245" d="M193 296h-40l73 418h-96l6 36h137z" />
<glyph unicode="&#xba;" horiz-adv-x="429" d="M482 604q0 -77 -53.5 -143.5t-135.5 -66.5q-73 0 -108.5 43t-35.5 108q0 77 53 143t135 66q68 0 106.5 -40.5t38.5 -109.5zM440 602q0 53 -27.5 85.5t-76.5 32.5q-64 0 -105 -55t-41 -118q0 -52 26 -85.5t77 -33.5q64 0 105.5 55t41.5 119z" />
<glyph unicode="&#xbb;" horiz-adv-x="491" d="M256 267l-119 186l35 22l141 -210l-215 -210l-27 26zM429 267l-119 186l35 22l141 -210l-215 -210l-27 26z" />
<glyph unicode="&#xbc;" horiz-adv-x="888" d="M764 115h-67l-21 -115h-40q7 45 20 115h-208q1 9 5 27l261 312h42l-54 -304h68zM662 150l42 239l-200 -239h158zM248 296h-40l73 418h-96l6 36h137zM719 750l-516 -750h-44l516 750h44z" />
<glyph unicode="&#xbd;" horiz-adv-x="888" d="M774 0h-296l5 30q76 53 141 111q64 56 102 106.5t38 103.5q0 31 -20.5 52.5t-53.5 21.5q-57 0 -118 -46q-7 10 -19 30q71 52 143 52q49 0 79 -29.5t30 -78.5q0 -118 -193 -269h1l-63 -47h230zM703 750l-516 -750h-44l516 750h44zM232 296h-40l73 418h-96l6 36h137z" />
<glyph unicode="&#xbe;" horiz-adv-x="888" d="M397 647q0 -40 -25 -72t-65 -45q31 -10 48.5 -37t17.5 -60q0 -66 -49.5 -106t-117.5 -40q-61 0 -117 38l21 30q50 -33 97 -33q53 0 89 31.5t36 80.5q0 32 -23.5 54.5t-62.5 22.5h-71l4 36h70q49 0 78 29.5t29 68.5q0 34 -23 54.5t-57 20.5q-53 0 -107 -32l-15 30 q58 38 125 38q52 0 85 -29.5t33 -79.5zM798 115h-68l-21 -115h-40q13 70 20 115h-208q4 18 5 27l262 312h41l-53 -304h68zM696 150q6 40 20 120l21 119l-200 -239h159zM760 750l-516 -750h-44l516 750h44z" />
<glyph unicode="&#xbf;" horiz-adv-x="437" d="M389 -126q-85 -58 -179 -58q-76 0 -124 34t-48 106q0 37 20 73t42 58t65 58q67 57 94.5 97t42.5 105h43q-15 -104 -83 -169q-17 -17 -56 -51t-60.5 -54.5t-40 -52.5t-18.5 -63q0 -49 34.5 -73.5t88.5 -24.5q74 0 162 52zM376 469q0 -14 -9.5 -24t-24.5 -10q-14 0 -24 10 t-10 24t10 23.5t24 9.5q15 0 24.5 -9.5t9.5 -23.5z" />
<glyph unicode="&#xc0;" horiz-adv-x="558" d="M507 0l-43 231h-288l-123 -231h-53l374 681h52l132 -681h-51zM391 630l-194 -360h260zM419 734h-41l-67 155h55z" />
<glyph unicode="&#xc1;" horiz-adv-x="558" d="M507 0l-43 231h-288l-123 -231h-53l374 681h52l132 -681h-51zM391 630l-194 -360h260zM554 889l-116 -155h-42l103 155h55z" />
<glyph unicode="&#xc2;" horiz-adv-x="558" d="M507 0l-43 231h-288l-123 -231h-53l374 681h52l132 -681h-51zM391 630l-194 -360h260zM517 733h-38l-53 119l-96 -119h-40l115 155h53z" />
<glyph unicode="&#xc3;" horiz-adv-x="558" d="M507 0l-43 231h-288l-123 -231h-53l374 681h52l132 -681h-51zM391 630l-194 -360h260zM567 851q-6 -47 -29.5 -74.5t-62.5 -27.5q-30 0 -65 29t-55 29q-43 0 -50 -57h-37q15 100 93 100q26 0 48 -15.5t39.5 -31t33.5 -15.5q35 0 48 63h37z" />
<glyph unicode="&#xc4;" horiz-adv-x="558" d="M507 0l-43 231h-288l-123 -231h-53l374 681h52l132 -681h-51zM391 630l-194 -360h260zM539 800q0 -12 -8.5 -21.5t-21.5 -9.5q-12 0 -20.5 9.5t-8.5 21.5t8.5 21t20.5 9q13 0 21.5 -9t8.5 -21zM346 800q0 -12 -8.5 -21.5t-21.5 -9.5q-12 0 -21 9.5t-9 21.5t8.5 21t21.5 9 t21.5 -9t8.5 -21z" />
<glyph unicode="&#xc5;" horiz-adv-x="558" d="M507 0l-43 231h-288l-123 -231h-53l374 681h52l132 -681h-51zM391 630l-194 -360h260zM499 806q0 -37 -26 -60.5t-60 -23.5q-35 0 -61 23.5t-26 60.5q0 38 26 61.5t61 23.5t60.5 -23.5t25.5 -61.5zM465 806q0 24 -15.5 39t-36.5 15q-22 0 -37.5 -15t-15.5 -39 q0 -23 15.5 -38t37.5 -15q21 0 36.5 15t15.5 38z" />
<glyph unicode="&#xc6;" horiz-adv-x="823" d="M2 0l521 677h377q-1 -9 -8 -43h-309l-48 -275h277q-2 -14 -8 -42h-277l-48 -275h316q-4 -28 -7 -42h-364l39 224h-235l-170 -224h-56zM257 263h213l64 363z" />
<glyph unicode="&#xc7;" horiz-adv-x="518" d="M398 -109q0 -38 -30.5 -56.5t-74.5 -18.5q-59 0 -93 19l18 31q39 -18 79 -18q25 0 41.5 11.5t18.5 28.5q0 13 -7.5 22.5t-21.5 15.5t-23.5 9t-25.5 5l-16 3l29 50q-102 11 -154 81.5t-52 180.5q0 105 43 203.5t126.5 164t187.5 65.5q87 0 147 -41l-18 -37q-50 34 -135 34 q-89 0 -159 -58.5t-105.5 -146.5t-35.5 -183q0 -101 50 -162t146 -61q71 0 149 38l6 -18q4 -12 7 -18q-80 -43 -167 -44q-2 -4 -6 -11l-6 -10q-2 -3 -2 -4q35 -7 59.5 -26t24.5 -49z" />
<glyph unicode="&#xc8;" horiz-adv-x="466" d="M432 0h-367l119 677h360q-7 -34 -8 -43h-312l-48 -275h280q-6 -28 -8 -42h-280l-48 -275h319q-3 -14 -7 -42zM427 734h-40l-67 155h55z" />
<glyph unicode="&#xc9;" horiz-adv-x="466" d="M432 0h-367l119 677h360q-7 -34 -8 -43h-312l-48 -275h280q-6 -28 -8 -42h-280l-48 -275h319q-3 -14 -7 -42zM498 889l-116 -155h-42l103 155h55z" />
<glyph unicode="&#xca;" horiz-adv-x="466" d="M432 0h-367l119 677h360q-7 -34 -8 -43h-312l-48 -275h280q-6 -28 -8 -42h-280l-48 -275h319q-3 -14 -7 -42zM488 733h-38l-53 119l-96 -119h-40l115 155h53z" />
<glyph unicode="&#xcb;" horiz-adv-x="466" d="M432 0h-367l119 677h360q-7 -34 -8 -43h-312l-48 -275h280q-6 -28 -8 -42h-280l-48 -275h319q-3 -14 -7 -42zM513 801q0 -12 -8.5 -21.5t-20.5 -9.5t-21 9.5t-9 21.5t8.5 21t21.5 9q12 0 20.5 -9t8.5 -21zM320 801q0 -12 -8.5 -21.5t-20.5 -9.5q-13 0 -21.5 9.5 t-8.5 21.5t8.5 21t21.5 9q12 0 20.5 -9t8.5 -21z" />
<glyph unicode="&#xcc;" horiz-adv-x="178" d="M108 0h-48l119 677h48zM235 734h-40l-67 155h55z" />
<glyph unicode="&#xcd;" horiz-adv-x="178" d="M113 0h-48l119 677h48zM356 889l-116 -155h-42l103 155h55z" />
<glyph unicode="&#xce;" horiz-adv-x="178" d="M113 0h-48l119 677h48zM331 733h-38l-53 119l-96 -119h-40l115 155h53z" />
<glyph unicode="&#xcf;" horiz-adv-x="178" d="M113 804q0 12 8.5 21t21.5 9t21.5 -9t8.5 -21t-8.5 -21.5t-21.5 -9.5q-12 0 -21 9.5t-9 21.5zM287 804q0 12 8.5 21t20.5 9q13 0 21.5 -9t8.5 -21t-8.5 -21.5t-21.5 -9.5q-12 0 -20.5 9.5t-8.5 21.5zM113 0h-48l119 677h48z" />
<glyph unicode="&#xd0;" horiz-adv-x="584" d="M606 408q0 -75 -25 -147t-71.5 -130.5t-120 -94.5t-161.5 -36h-165l57 324h-71l6 40h72l55 313h136q65 0 116 -16t83 -42t52.5 -62t28.5 -72.5t8 -76.5zM556 409q0 101 -60 163t-185 62h-88l-48 -270h129l-7 -40h-128l-50 -282h118q96 0 170.5 54.5t111.5 137t37 175.5z " />
<glyph unicode="&#xd1;" horiz-adv-x="605" d="M530 0h-49l-269 611l-107 -611h-45l119 677h54l265 -603l106 603h45zM590 851q-6 -47 -29.5 -74.5t-62.5 -27.5q-30 0 -65 29t-55 29q-43 0 -50 -57h-37q15 100 93 100q26 0 48 -15.5t39.5 -31t33.5 -15.5q35 0 48 63h37z" />
<glyph unicode="&#xd2;" d="M136 268q0 -110 53.5 -173.5t142.5 -63.5q125 0 212.5 110.5t87.5 269.5q0 107 -54.5 170.5t-145.5 63.5q-124 0 -210 -109t-86 -268zM87 266q0 174 101 298t244 124q109 0 179 -72t70 -204q0 -174 -102.5 -298.5t-246.5 -124.5q-108 0 -176.5 71.5t-68.5 205.5zM460 734 h-40l-67 155h55z" />
<glyph unicode="&#xd3;" d="M136 268q0 -110 53.5 -173.5t142.5 -63.5q125 0 212.5 110.5t87.5 269.5q0 107 -54.5 170.5t-145.5 63.5q-124 0 -210 -109t-86 -268zM87 266q0 174 101 298t244 124q109 0 179 -72t70 -204q0 -174 -102.5 -298.5t-246.5 -124.5q-108 0 -176.5 71.5t-68.5 205.5zM581 889 l-116 -155h-42l103 155h55z" />
<glyph unicode="&#xd4;" d="M136 268q0 -110 53.5 -173.5t142.5 -63.5q125 0 212.5 110.5t87.5 269.5q0 107 -54.5 170.5t-145.5 63.5q-124 0 -210 -109t-86 -268zM87 266q0 174 101 298t244 124q109 0 179 -72t70 -204q0 -174 -102.5 -298.5t-246.5 -124.5q-108 0 -176.5 71.5t-68.5 205.5zM553 733 h-38l-53 119l-96 -119h-40l115 155h53z" />
<glyph unicode="&#xd5;" d="M136 268q0 -110 53.5 -173.5t142.5 -63.5q125 0 212.5 110.5t87.5 269.5q0 107 -54.5 170.5t-145.5 63.5q-124 0 -210 -109t-86 -268zM87 266q0 174 101 298t244 124q109 0 179 -72t70 -204q0 -174 -102.5 -298.5t-246.5 -124.5q-108 0 -176.5 71.5t-68.5 205.5zM621 851 q-6 -47 -29.5 -74.5t-62.5 -27.5q-30 0 -65 29t-55 29q-43 0 -50 -57h-37q15 100 93 100q26 0 48 -15.5t39.5 -31t33.5 -15.5q35 0 48 63h37z" />
<glyph unicode="&#xd6;" d="M87 266q0 174 101 298t244 124q109 0 179 -72t70 -204q0 -174 -102.5 -299t-246.5 -125q-108 0 -176.5 72t-68.5 206zM136 268q0 -110 53.5 -173.5t142.5 -63.5q125 0 212.5 110.5t87.5 269.5q0 107 -54.5 170.5t-145.5 63.5q-124 0 -210 -109t-86 -268zM331 802 q0 12 8.5 21t21.5 9t21.5 -9t8.5 -21t-8.5 -21.5t-21.5 -9.5q-12 0 -21 9.5t-9 21.5zM525 802q0 12 8.5 21t20.5 9q13 0 21.5 -9t8.5 -21t-8.5 -21.5t-21.5 -9.5q-12 0 -20.5 9.5t-8.5 21.5z" />
<glyph unicode="&#xd7;" horiz-adv-x="630" d="M620 463l-236 -203l165 -201q-20 -18 -30 -26l-164 202l-235 -203q-1 1 -25 28l236 204l-165 200q20 18 30 26l164 -201v-1l235 203q1 -1 25 -28z" />
<glyph unicode="&#xd8;" d="M87 267q0 174 104 297.5t246 123.5q102 0 168 -64l62 72l31 -23l-68 -78q51 -73 51 -183q0 -172 -106 -297.5t-248 -125.5q-101 0 -164 64l-62 -72l-32 23l67 77h1q-50 72 -50 186zM136 269q0 -90 33 -150l405 469q-51 57 -137 57q-123 0 -212 -109t-89 -267zM632 412 q0 84 -35 144l-404 -468q50 -56 134 -56q124 0 214.5 111t90.5 269z" />
<glyph unicode="&#xd9;" horiz-adv-x="605" d="M577 233q-21 -119 -94 -181t-172 -62q-96 0 -151 53t-55 144q0 31 5 56l78 434h48l-78 -439q-5 -28 -5 -48q0 -72 41.5 -114.5t117.5 -42.5q83 0 141.5 54t75.5 151l77 439h48zM457 734h-40l-67 155h55z" />
<glyph unicode="&#xda;" horiz-adv-x="605" d="M577 233q-21 -119 -94 -181t-172 -62q-96 0 -151 53t-55 144q0 31 5 56l78 434h48l-78 -439q-5 -28 -5 -48q0 -72 41.5 -114.5t117.5 -42.5q83 0 141.5 54t75.5 151l77 439h48zM559 889l-116 -155h-42l103 155h55z" />
<glyph unicode="&#xdb;" horiz-adv-x="605" d="M577 233q-21 -119 -94 -181t-172 -62q-96 0 -151 53t-55 144q0 31 5 56l78 434h48l-78 -439q-5 -28 -5 -48q0 -72 41.5 -114.5t117.5 -42.5q83 0 141.5 54t75.5 151l77 439h48zM545 733h-38l-53 119l-96 -119h-40l115 155h53z" />
<glyph unicode="&#xdc;" horiz-adv-x="605" d="M577 233q-21 -119 -94 -181t-172 -62q-96 0 -151 53t-55 144q0 31 5 56l78 434h48l-78 -439q-5 -28 -5 -48q0 -72 41.5 -114.5t117.5 -42.5q83 0 141.5 54t75.5 151l77 439h48zM568 799q0 -12 -8.5 -21.5t-21.5 -9.5q-12 0 -20.5 9.5t-8.5 21.5t8.5 21t20.5 9 q13 0 21.5 -9t8.5 -21zM375 799q0 -12 -8.5 -21.5t-21.5 -9.5q-12 0 -21 9.5t-9 21.5t8.5 21t21.5 9t21.5 -9t8.5 -21z" />
<glyph unicode="&#xdd;" horiz-adv-x="491" d="M614 677l-295 -389l-50 -288h-49l51 289l-160 388h51l140 -344l255 344h57zM509 889l-117 -155h-42l103 155h56z" />
<glyph unicode="&#xde;" horiz-adv-x="486" d="M513 383q0 -93 -70.5 -162t-174.5 -69h-124l-26 -152h-48l119 677h48l-23 -127h110q87 0 138 -46t51 -121zM273 194q79 0 134 56t55 133q0 58 -38 91.5t-106 33.5h-111l-55 -314h121z" />
<glyph unicode="&#xdf;" horiz-adv-x="522" d="M533 598q0 -63 -35 -114t-93 -73q58 -16 87.5 -63.5t29.5 -111.5q0 -103 -66 -174t-164 -71q-72 0 -129 38q3 6 10 18t10 18q57 -33 111 -33q76 0 129.5 61t53.5 146q0 63 -35 106.5t-105 43.5h-89l7 40h77q61 0 108 47t47 116q0 61 -36 94t-89 33q-54 0 -97 -34.5 t-54 -97.5l-103 -587h-45l104 595q14 80 73.5 123t128.5 43q72 0 118 -45.5t46 -117.5z" />
<glyph unicode="&#xe0;" horiz-adv-x="443" d="M382 0h-43l15 83q-30 -44 -77.5 -68t-99.5 -24q-63 0 -97.5 32t-34.5 80q0 45 22 79t54.5 53t81.5 31.5t90.5 16.5t94.5 6q0 11 4 34t4 33q0 60 -29 81t-83 21q-69 0 -139 -31l-9 36q87 37 158 37q145 0 145 -142q0 -30 -7 -75zM370 180l12 73q-292 -5 -292 -145 q0 -33 27 -55t66 -22q69 0 122 40t65 109zM358 554h-40l-67 155h55z" />
<glyph unicode="&#xe1;" horiz-adv-x="443" d="M382 0h-43l15 83q-30 -44 -77.5 -68t-99.5 -24q-63 0 -97.5 32t-34.5 80q0 45 22 79t54.5 53t81.5 31.5t90.5 16.5t94.5 6q0 11 4 34t4 33q0 60 -29 81t-83 21q-69 0 -139 -31l-9 36q87 37 158 37q145 0 145 -142q0 -30 -7 -75zM370 180l12 73q-292 -5 -292 -145 q0 -33 27 -55t66 -22q69 0 122 40t65 109zM439 709l-116 -155h-42l103 155h55z" />
<glyph unicode="&#xe2;" horiz-adv-x="443" d="M382 0h-43l15 83q-30 -44 -77.5 -68t-99.5 -24q-63 0 -97.5 32t-34.5 80q0 45 22 79t54.5 53t81.5 31.5t90.5 16.5t94.5 6q0 11 4 34t4 33q0 60 -29 81t-83 21q-69 0 -139 -31l-9 36q87 37 158 37q145 0 145 -142q0 -30 -7 -75zM370 180l12 73q-292 -5 -292 -145 q0 -33 27 -55t66 -22q69 0 122 40t65 109zM422 554h-38l-53 119l-96 -119h-40l115 155h53z" />
<glyph unicode="&#xe3;" horiz-adv-x="443" d="M382 0h-43l15 83q-30 -44 -77.5 -68t-99.5 -24q-63 0 -97.5 32t-34.5 80q0 45 22 79t54.5 53t81.5 31.5t90.5 16.5t94.5 6q0 11 4 34t4 33q0 60 -29 81t-83 21q-69 0 -139 -31l-9 36q87 37 158 37q145 0 145 -142q0 -30 -7 -75zM370 180l12 73q-292 -5 -292 -145 q0 -33 27 -55t66 -22q69 0 122 40t65 109zM476 676q-6 -47 -29.5 -74.5t-62.5 -27.5q-30 0 -65 29t-55 29q-43 0 -50 -57h-37q15 100 93 100q26 0 48 -15.5t39.5 -31t33.5 -15.5q35 0 48 63h37z" />
<glyph unicode="&#xe4;" horiz-adv-x="443" d="M439 358q0 -39 -7 -75l-50 -283h-43l15 83q-30 -44 -77.5 -68t-99.5 -24q-63 0 -97.5 32t-34.5 80q0 45 22 79t54.5 53t81.5 31.5t90.5 16.5t94.5 6l1 6q7 35 7 61q0 60 -29 81t-83 21q-69 0 -139 -31l-9 36q87 37 158 37q145 0 145 -142zM382 253q-292 -5 -292 -145 q0 -33 26 -55t67 -22q69 0 122 40t65 109zM203 649q0 12 8.5 21t21.5 9q12 0 20.5 -9t8.5 -21t-8.5 -21.5t-20.5 -9.5q-13 0 -21.5 9.5t-8.5 21.5zM396 649q0 12 8.5 21t21.5 9q12 0 20.5 -9t8.5 -21t-8.5 -21.5t-20.5 -9.5t-21 9.5t-9 21.5z" />
<glyph unicode="&#xe5;" horiz-adv-x="443" d="M439 358q0 -39 -7 -75l-50 -283h-43l15 83q-30 -44 -77.5 -68t-99.5 -24q-63 0 -97.5 32t-34.5 80q0 45 22 79t54.5 53t81.5 31.5t90.5 16.5t94.5 6l1 6q7 35 7 61q0 60 -29 81t-83 21q-69 0 -139 -31l-9 36q87 37 158 37q145 0 145 -142zM382 253q-292 -5 -292 -145 q0 -33 26 -55t67 -22q69 0 122 40t65 109zM235 628q0 37 26 60.5t60 23.5q35 0 61 -23.5t26 -60.5q0 -38 -26 -61.5t-61 -23.5t-60.5 23.5t-25.5 61.5zM269 628q0 -24 15.5 -39t36.5 -15q22 0 37 15t15 39q0 23 -15 38t-37 15q-21 0 -36.5 -15t-15.5 -38z" />
<glyph unicode="&#xe6;" horiz-adv-x="751" d="M754 241h-338q-6 -36 -6 -64q0 -74 34.5 -110.5t93.5 -36.5q73 0 155 53l18 -31q-88 -62 -175 -62q-132 0 -157 122q-27 -56 -83.5 -88.5t-115.5 -32.5q-61 0 -98 31t-37 82q0 38 13.5 67t40.5 47.5t56 30.5t71.5 18t75 8t77.5 3l5 31q4 24 4 46q0 103 -102 103 q-66 0 -143 -31q-3 10 -7 37q89 35 157 35q56 0 88.5 -27.5t44.5 -94.5q33 58 83 89.5t106 31.5q67 0 107 -45.5t40 -130.5q0 -33 -8 -81zM363 180l10 63q-37 -1 -62 -2.5t-61.5 -5.5t-61.5 -13t-49 -23t-36 -37t-12 -53q0 -37 27 -57.5t68 -20.5q63 0 114.5 39.5 t62.5 109.5zM713 279q5 32 5 50q0 63 -29.5 96t-80.5 33q-61 0 -113 -51t-71 -128h289z" />
<glyph unicode="&#xe7;" horiz-adv-x="411" d="M334 -108q0 -39 -32.5 -57.5t-77.5 -18.5q-50 0 -88 20l18 31q39 -18 79 -18q24 0 42 11.5t18 28.5q0 13 -7.5 22.5t-21 15t-24 8.5t-25.5 5.5t-16 2.5q10 16 28 48q-70 7 -109.5 57t-39.5 144q0 73 34.5 143t100 117t144.5 47q47 0 107 -30l-17 -36q-52 25 -94 25 q-98 0 -164.5 -82.5t-66.5 -182.5q0 -80 36.5 -121.5t100.5 -41.5q54 0 127 29l12 -35q-67 -30 -131 -33l-15 -25q35 -7 58.5 -25.5t23.5 -48.5z" />
<glyph unicode="&#xe8;" horiz-adv-x="477" d="M478 241h-353q-5 -29 -5 -61q0 -75 38 -112.5t101 -37.5q77 0 158 52q16 -27 19 -31q-89 -61 -185 -61q-77 0 -126.5 48t-49.5 142q0 137 79 227.5t178 90.5q73 0 115 -43.5t42 -124.5q0 -34 -11 -89zM438 279q6 30 6 55q0 60 -31 92t-83 32q-64 0 -121 -51t-76 -128h305 zM378 554h-40l-67 155h55z" />
<glyph unicode="&#xe9;" horiz-adv-x="477" d="M478 241h-353q-5 -29 -5 -61q0 -75 38 -112.5t101 -37.5q77 0 158 52q16 -27 19 -31q-89 -61 -185 -61q-77 0 -126.5 48t-49.5 142q0 137 79 227.5t178 90.5q73 0 115 -43.5t42 -124.5q0 -34 -11 -89zM438 279q6 30 6 55q0 60 -31 92t-83 32q-64 0 -121 -51t-76 -128h305 zM489 709l-116 -155h-42l103 155h55z" />
<glyph unicode="&#xea;" horiz-adv-x="477" d="M478 241h-353q-5 -29 -5 -61q0 -75 38 -112.5t101 -37.5q77 0 158 52q16 -27 19 -31q-89 -61 -185 -61q-77 0 -126.5 48t-49.5 142q0 137 79 227.5t178 90.5q73 0 115 -43.5t42 -124.5q0 -34 -11 -89zM438 279q6 30 6 55q0 60 -31 92t-83 32q-64 0 -121 -51t-76 -128h305 zM459 554h-38l-53 119l-96 -119h-40l115 155h53z" />
<glyph unicode="&#xeb;" horiz-adv-x="477" d="M478 241h-353q-5 -29 -5 -61q0 -75 38 -112.5t101 -37.5q77 0 158 52q16 -27 19 -31q-89 -61 -185 -61q-77 0 -126.5 48t-49.5 142q0 137 79 227.5t178 90.5q73 0 115 -43.5t42 -124.5q0 -34 -11 -89zM438 279q6 30 6 55q0 60 -31 92t-83 32q-64 0 -121 -51t-76 -128h305 zM484 649q0 -12 -8.5 -21.5t-21.5 -9.5q-12 0 -20.5 9.5t-8.5 21.5t8.5 21t20.5 9q13 0 21.5 -9t8.5 -21zM291 649q0 -12 -8.5 -21.5t-21.5 -9.5q-12 0 -21 9.5t-9 21.5t8.5 21t21.5 9t21.5 -9t8.5 -21z" />
<glyph unicode="&#xec;" horiz-adv-x="166" d="M105 0h-45l86 489h45zM200 554h-40l-67 155h55z" />
<glyph unicode="&#xed;" horiz-adv-x="166" d="M105 0h-45l86 489h45zM317 709l-116 -155h-42l103 155h55z" />
<glyph unicode="&#xee;" horiz-adv-x="166" d="M105 0h-45l86 489h45zM293 554h-38l-54 119l-95 -119h-41l116 155h52z" />
<glyph unicode="&#xef;" horiz-adv-x="166" d="M80 649q0 12 8.5 21t21.5 9q12 0 20.5 -9t8.5 -21t-8.5 -21.5t-20.5 -9.5q-13 0 -21.5 9.5t-8.5 21.5zM253 649q0 12 8.5 21t21.5 9q12 0 20.5 -9t8.5 -21t-8.5 -21.5t-20.5 -9.5t-21 9.5t-9 21.5zM105 0h-45l86 489h45z" />
<glyph unicode="&#xf0;" horiz-adv-x="537" d="M536 317q-12 -136 -84 -232t-186 -96q-91 0 -137.5 63t-46.5 152q0 117 77.5 204t189.5 87q109 0 151 -102q-11 171 -99 250l-123 -61q-2 4 -8 15t-9 17l109 54q-61 36 -143 44l8 37q100 -4 178 -61v1l107 52l15 -33q-62 -32 -93 -45q97 -101 97 -286q0 -30 -3 -60z M489 279q1 6 1 20q0 62 -35.5 109.5t-106.5 47.5q-96 0 -158 -77.5t-62 -177.5q0 -73 35 -123t105 -50q55 0 99 28.5t68.5 72t37 81t16.5 69.5z" />
<glyph unicode="&#xf1;" horiz-adv-x="492" d="M437 0h-45l46 264q6 32 6 69q0 58 -27.5 91.5t-80.5 33.5q-65 0 -113.5 -45.5t-62.5 -125.5l-50 -287h-45l86 489h44q-6 -30 -16 -90q31 50 75.5 75.5t91.5 25.5q65 0 105.5 -39.5t40.5 -109.5q0 -31 -12 -103zM515 676q-6 -47 -29.5 -74.5t-62.5 -27.5q-30 0 -65 29 t-55 29q-43 0 -50 -57h-37q15 100 93 100q26 0 48 -15.5t39.5 -31t33.5 -15.5q35 0 48 63h37z" />
<glyph unicode="&#xf2;" horiz-adv-x="521" d="M528 293q0 -111 -75.5 -207t-191.5 -96q-91 0 -138.5 58.5t-47.5 146.5q0 72 31 140.5t93.5 116t140.5 47.5q86 0 137 -57.5t51 -148.5zM262 27q65 0 116.5 42t77 102t25.5 122q0 72 -38 120t-105 48q-96 0 -156.5 -82.5t-60.5 -183.5q0 -72 37 -120t104 -48zM393 554 h-40l-67 155h55z" />
<glyph unicode="&#xf3;" horiz-adv-x="521" d="M528 293q0 -111 -75.5 -207t-191.5 -96q-91 0 -138.5 58.5t-47.5 146.5q0 72 31 140.5t93.5 116t140.5 47.5q86 0 137 -57.5t51 -148.5zM262 27q65 0 116.5 42t77 102t25.5 122q0 72 -38 120t-105 48q-96 0 -156.5 -82.5t-60.5 -183.5q0 -72 37 -120t104 -48zM489 709 l-116 -155h-42l103 155h55z" />
<glyph unicode="&#xf4;" horiz-adv-x="521" d="M528 293q0 -111 -75.5 -207t-191.5 -96q-91 0 -138.5 58.5t-47.5 146.5q0 72 31 140.5t93.5 116t140.5 47.5q86 0 137 -57.5t51 -148.5zM262 27q65 0 116.5 42t77 102t25.5 122q0 72 -38 120t-105 48q-96 0 -156.5 -82.5t-60.5 -183.5q0 -72 37 -120t104 -48zM469 554 h-38l-53 119l-96 -119h-40l115 155h53z" />
<glyph unicode="&#xf5;" horiz-adv-x="521" d="M528 293q0 -111 -75.5 -207t-191.5 -96q-91 0 -138.5 58.5t-47.5 146.5q0 72 31 140.5t93.5 116t140.5 47.5q86 0 137 -57.5t51 -148.5zM262 27q65 0 116.5 42t77 102t25.5 122q0 72 -38 120t-105 48q-96 0 -156.5 -82.5t-60.5 -183.5q0 -72 37 -120t104 -48zM523 676 q-6 -47 -29.5 -74.5t-62.5 -27.5q-30 0 -65 29t-55 29q-43 0 -50 -57h-37q15 100 93 100q26 0 48 -15.5t39.5 -31t33.5 -15.5q35 0 48 63h37z" />
<glyph unicode="&#xf6;" horiz-adv-x="521" d="M340 499q86 0 137 -57.5t51 -148.5q0 -111 -75.5 -207.5t-191.5 -96.5q-91 0 -138.5 58.5t-47.5 147.5q0 72 31 140.5t93.5 116t140.5 47.5zM338 461q-96 0 -156.5 -82.5t-60.5 -183.5q0 -72 37 -120t104 -48q65 0 116.5 42t77 102t25.5 122q0 72 -38 120t-105 48z M246 649q0 12 8.5 21t21.5 9t21.5 -9t8.5 -21t-8.5 -21.5t-21.5 -9.5q-12 0 -21 9.5t-9 21.5zM440 649q0 12 8.5 21t20.5 9q13 0 21.5 -9t8.5 -21t-8.5 -21.5t-21.5 -9.5q-12 0 -20.5 9.5t-8.5 21.5z" />
<glyph unicode="&#xf7;" horiz-adv-x="630" d="M117 280h492l-6 -39h-492zM358 449q0 13 9 22.5t24 9.5q14 0 23 -9.5t9 -22.5q0 -14 -9 -23.5t-23 -9.5q-15 0 -24 9.5t-9 23.5zM291 72q0 13 9 22.5t24 9.5q14 0 23 -9.5t9 -22.5q0 -14 -9 -23.5t-23 -9.5q-15 0 -24 9.5t-9 23.5z" />
<glyph unicode="&#xf8;" horiz-adv-x="521" d="M531 293q0 -70 -31 -139t-94 -117t-142 -48q-73 0 -119 41l-43 -49l-28 22l45 52h1q-42 57 -42 140q0 72 31 140.5t93.5 116t140.5 47.5q76 0 123 -44l44 51l27 -23l-47 -54q41 -53 41 -136zM124 195q0 -60 26 -104l288 331q-39 39 -97 39q-96 0 -156.5 -82.5 t-60.5 -183.5zM266 27q96 0 157.5 83.5t61.5 182.5q0 57 -26 100l-286 -331q37 -35 93 -35z" />
<glyph unicode="&#xf9;" horiz-adv-x="489" d="M519 489l-52 -292q-36 -208 -220 -208q-77 0 -118 39.5t-41 117.5q0 33 7 67l50 276h46l-51 -282q-4 -22 -4 -64q0 -116 112 -116q143 0 174 175l51 287h46zM372 554h-40l-67 155h55z" />
<glyph unicode="&#xfa;" horiz-adv-x="489" d="M519 489l-52 -292q-36 -208 -220 -208q-77 0 -118 39.5t-41 117.5q0 33 7 67l50 276h46l-51 -282q-4 -22 -4 -64q0 -116 112 -116q143 0 174 175l51 287h46zM464 709l-116 -155h-42l103 155h55z" />
<glyph unicode="&#xfb;" horiz-adv-x="489" d="M519 489l-52 -292q-36 -208 -220 -208q-77 0 -118 39.5t-41 117.5q0 33 7 67l50 276h46l-51 -282q-4 -22 -4 -64q0 -116 112 -116q143 0 174 175l51 287h46zM452 554h-38l-54 119l-95 -119h-41l116 155h52z" />
<glyph unicode="&#xfc;" horiz-adv-x="489" d="M519 489l-52 -292q-36 -208 -220 -208q-77 0 -118 39.5t-41 117.5q0 33 7 67l50 276h46l-51 -282q-4 -22 -4 -64q0 -116 112 -116q143 0 174 175l51 287h46zM482 649q0 -12 -8.5 -21.5t-20.5 -9.5t-21 9.5t-9 21.5t8.5 21t21.5 9q12 0 20.5 -9t8.5 -21zM289 649 q0 -12 -8.5 -21.5t-20.5 -9.5q-13 0 -21.5 9.5t-8.5 21.5t8.5 21t21.5 9q12 0 20.5 -9t8.5 -21z" />
<glyph unicode="&#xfd;" horiz-adv-x="445" d="M530 489l-385 -673h-52l112 191l-118 482h51l100 -430l239 430h53zM447 709l-116 -155h-42l103 155h55z" />
<glyph unicode="&#xfe;" horiz-adv-x="502" d="M512 318q0 -126 -79.5 -224t-208.5 -98q-65 0 -108 16l-33 -196h-45l165 939h44l-64 -361q33 51 80.5 78t96.5 27q66 0 109 -46.5t43 -134.5zM217 33q109 0 179 81.5t70 198.5q0 70 -32.5 107.5t-80.5 37.5q-68 0 -122.5 -52t-66.5 -125l-41 -233q42 -15 94 -15z" />
<glyph unicode="&#xff;" horiz-adv-x="445" d="M530 489l-385 -673h-52l112 191l-118 482h51l100 -430l239 430h53zM462 649q0 -12 -8.5 -21.5t-21.5 -9.5q-12 0 -20.5 9.5t-8.5 21.5t8.5 21t20.5 9q13 0 21.5 -9t8.5 -21zM269 649q0 -12 -8.5 -21.5t-21.5 -9.5q-12 0 -21 9.5t-9 21.5t8.5 21t21.5 9t21.5 -9t8.5 -21z " />
<glyph unicode="&#x152;" horiz-adv-x="936" d="M324 -10q-117 0 -177.5 72.5t-60.5 193.5q0 103 41 200t123.5 164t187.5 67q74 0 123 -33t66 -89l19 112h367l-8 -43h-319l-48 -275h287l-8 -42h-287l-48 -275h326l-7 -42h-374l20 118q-39 -60 -97.5 -94t-125.5 -34zM437 643q-91 0 -162 -59.5t-105.5 -147t-34.5 -181.5 q0 -100 46 -160.5t142 -60.5q94 0 163.5 64.5t82.5 145.5l38 236q0 74 -46 118.5t-124 44.5z" />
<glyph unicode="&#x153;" horiz-adv-x="866" d="M869 241h-356q-5 -29 -5 -61q0 -75 39 -112.5t103 -37.5q78 0 157 52q3 -4 19 -31q-87 -61 -184 -61q-67 0 -113.5 36.5t-55.5 109.5q-33 -68 -90.5 -107.5t-123.5 -39.5q-86 0 -133.5 55.5t-47.5 150.5q0 124 78 214.5t184 90.5q68 0 112 -39.5t55 -115.5 q33 71 92.5 112t122.5 41q73 0 114.5 -44t41.5 -129q0 -24 -5 -57zM260 27q86 0 149 78.5t63 187.5q0 78 -36 123.5t-98 45.5q-86 0 -150 -78.5t-64 -188.5q0 -78 37 -123t99 -45zM828 279q5 32 5 50q0 63 -30.5 96t-82.5 33q-64 0 -122 -51.5t-77 -127.5h307z" />
<glyph unicode="&#x178;" horiz-adv-x="491" d="M614 677l-295 -389l-50 -288h-49l51 289l-160 388h51l140 -344l255 344h57zM510 804q0 -12 -8.5 -21.5t-20.5 -9.5t-21 9.5t-9 21.5t8.5 21t21.5 9q12 0 20.5 -9t8.5 -21zM317 804q0 -12 -8.5 -21.5t-20.5 -9.5q-13 0 -21.5 9.5t-8.5 21.5t8.5 21t21.5 9q12 0 20.5 -9 t8.5 -21z" />
<glyph unicode="&#x2c6;" horiz-adv-x="538" d="M479 554h-38l-53 119l-96 -119h-40l115 155h53z" />
<glyph unicode="&#x2dc;" horiz-adv-x="538" d="M528 676q-6 -47 -29.5 -74.5t-62.5 -27.5q-30 0 -65 29t-55 29q-43 0 -50 -57h-37q15 100 93 100q26 0 48 -15.5t39.5 -31t33.5 -15.5q35 0 48 63h37z" />
<glyph unicode="&#x2000;" horiz-adv-x="445" />
<glyph unicode="&#x2001;" horiz-adv-x="891" />
<glyph unicode="&#x2002;" horiz-adv-x="445" />
<glyph unicode="&#x2003;" horiz-adv-x="891" />
<glyph unicode="&#x2004;" horiz-adv-x="297" />
<glyph unicode="&#x2005;" horiz-adv-x="222" />
<glyph unicode="&#x2006;" horiz-adv-x="148" />
<glyph unicode="&#x2007;" horiz-adv-x="148" />
<glyph unicode="&#x2008;" horiz-adv-x="111" />
<glyph unicode="&#x2009;" horiz-adv-x="178" />
<glyph unicode="&#x200a;" horiz-adv-x="49" />
<glyph unicode="&#x2010;" horiz-adv-x="257" d="M276 239h-215q4 28 7 42h215q-3 -14 -7 -42z" />
<glyph unicode="&#x2011;" horiz-adv-x="257" d="M276 239h-215q4 28 7 42h215q-3 -14 -7 -42z" />
<glyph unicode="&#x2013;" horiz-adv-x="588" d="M562 241h-452q4 26 7 39h452q-3 -13 -7 -39z" />
<glyph unicode="&#x2014;" horiz-adv-x="1038" d="M1012 241h-902q4 26 7 39h902q-3 -13 -7 -39z" />
<glyph unicode="&#x2018;" horiz-adv-x="234" d="M163 538l95 216h40l-87 -216h-48z" />
<glyph unicode="&#x2019;" horiz-adv-x="234" d="M298 754l-95 -216h-40l87 216h48z" />
<glyph unicode="&#x201a;" horiz-adv-x="257" d="M177 60l-95 -216h-41l88 216h48z" />
<glyph unicode="&#x201c;" horiz-adv-x="353" d="M428 754l-87 -216h-48l95 216h40zM286 754l-87 -216h-48l95 216h40z" />
<glyph unicode="&#x201d;" horiz-adv-x="353" d="M428 755l-94 -217h-41l88 217h47zM286 755l-95 -217h-40l87 217h48z" />
<glyph unicode="&#x201e;" horiz-adv-x="385" d="M312 60l-95 -216h-41l88 216h48zM170 60l-96 -216h-40l88 216h48z" />
<glyph unicode="&#x2022;" horiz-adv-x="296" d="M192 322q31 0 48 -19.5t17 -46.5q0 -28 -17.5 -48t-47.5 -20q-31 0 -48 19.5t-17 46.5t17.5 47.5t47.5 20.5z" />
<glyph unicode="&#x2026;" horiz-adv-x="678" d="M146 26q0 -14 -9.5 -24t-23.5 -10q-15 0 -24 10t-9 24t9 24t24 10q14 0 23.5 -10t9.5 -24zM372 26q0 -14 -9.5 -24t-23.5 -10q-15 0 -24 10t-9 24t9 24t24 10q14 0 23.5 -10t9.5 -24zM598 26q0 -14 -9.5 -24t-23.5 -10q-15 0 -24 10t-9 24t9 24t24 10q14 0 23.5 -10 t9.5 -24z" />
<glyph unicode="&#x202f;" horiz-adv-x="178" />
<glyph unicode="&#x2039;" horiz-adv-x="318" d="M342 447l-185 -186l119 -186l-35 -20l-142 210l216 210z" />
<glyph unicode="&#x203a;" horiz-adv-x="318" d="M255 269l-119 186l36 20l141 -210l-215 -210l-28 28z" />
<glyph unicode="&#x205f;" horiz-adv-x="222" />
<glyph unicode="&#x20ac;" horiz-adv-x="699" d="M428 -12q-116 0 -188.5 69.5t-81.5 186.5h-102l21 40h79q0 34 11 89h-89l21 40h81q40 114 133.5 188t215.5 74q144 0 233 -98q-16 -26 -23 -39q-86 94 -211 94q-108 0 -185.5 -61.5t-113.5 -157.5h436q-2 -4 -10 -18t-12 -22h-428q-12 -45 -12 -89h385q-16 -26 -23 -40 h-361q8 -99 68.5 -156.5t162.5 -57.5q96 0 206 59l15 -37q-107 -64 -228 -64z" />
<glyph unicode="&#x2122;" horiz-adv-x="474" d="M338 651h-71l-33 -188h-29l33 188h-71q1 7 5 26h171q-1 -7 -5 -26zM536 463h-28l27 155l-77 -109h-21l-37 109l-28 -155h-27l38 214h27l45 -131l91 131h28z" />
</font>
</defs>
</svg>
