<?xml version="1.0" standalone="no"?>
<!DOCTYPE svg PUBLIC "-//W3C//DTD SVG 1.1//EN" "http://www.w3.org/Graphics/SVG/1.1/DTD/svg11.dtd" >
<svg xmlns="http://www.w3.org/2000/svg">
<metadata>
This is a custom SVG webfont generated by Fontspring.
</metadata>
<defs>
<font id="SenseExtraLight" horiz-adv-x="477" >
<font-face units-per-em="1000" ascent="769" descent="-231" />
<missing-glyph horiz-adv-x="234" />
<glyph unicode=" "  horiz-adv-x="234" />
<glyph unicode="&#x09;" horiz-adv-x="234" />
<glyph unicode="&#xa0;" horiz-adv-x="234" />
<glyph unicode="!" horiz-adv-x="225" d="M146 26q0 -14 -9.5 -23.5t-23.5 -9.5q-15 0 -24 9.5t-9 23.5t9 24t24 10q14 0 23.5 -10t9.5 -24zM135 154h-45l-3 522h50z" />
<glyph unicode="&#x22;" horiz-adv-x="382" d="M134 505h-43l-2 249h47zM290 505h-42l-3 249h48z" />
<glyph unicode="#" horiz-adv-x="627" d="M105 0l53 211h-136l4 38h141l44 176h-170l5 38h175l53 212h40l-54 -212h137l54 212h39l-53 -212h133l-5 -38h-138l-43 -176h166l-4 -38h-172l-53 -211h-39l52 211h-136l-53 -211h-40zM207 249h137l44 176h-137z" />
<glyph unicode="$" horiz-adv-x="500" d="M237 -90v85q-107 4 -193 77l21 35q81 -66 172 -73v288q-43 18 -67.5 31t-54.5 35.5t-44 52.5t-14 69q0 71 50.5 119.5t129.5 53.5v63h37v-63q78 -5 167 -55l-16 -38q-82 45 -151 52v-287q43 -18 67.5 -31t55 -35.5t45 -52t14.5 -66.5q0 -75 -52 -122.5t-130 -52.5v-85 h-37zM101 514q0 -53 35 -84t101 -61v274q-60 -5 -98 -40t-38 -89zM411 168q0 51 -35 81t-102 59v-274q60 5 98.5 41t38.5 93z" />
<glyph unicode="%" horiz-adv-x="876" d="M631 672l-342 -672h-43l341 672h44zM229 683q77 0 126 -51.5t49 -123.5t-48.5 -123t-126.5 -51t-126.5 51t-48.5 123t48.5 123.5t126.5 51.5zM229 368q58 0 95 41t37 98q0 58 -37 100t-95 42t-95 -42.5t-37 -99.5t37 -98t95 -41zM648 338q78 0 126.5 -51.5t48.5 -123.5 t-48.5 -123t-126.5 -51t-126.5 51t-48.5 123t48.5 123.5t126.5 51.5zM648 23q58 0 95 41t37 98q0 58 -37 100t-95 42q-57 0 -94 -42.5t-37 -99.5t36.5 -98t94.5 -41z" />
<glyph unicode="&#x26;" horiz-adv-x="653" d="M602 304q-43 -104 -104 -180l109 -96l-30 -35l-109 97q-91 -100 -207 -100q-98 0 -152 49.5t-54 121.5q0 66 39 108t110 77q-99 93 -99 175q0 76 54 121.5t134 45.5q76 0 126.5 -43.5t50.5 -112.5q0 -24 -5 -44.5t-18.5 -37.5t-24 -28.5t-33.5 -25.5t-35.5 -20.5 t-41.5 -20t-39 -18.5l193 -185q54 69 88 152h48zM261 29q94 0 177 88l-206 201q-64 -30 -97 -66.5t-33 -88.5q0 -57 42.5 -95.5t116.5 -38.5zM151 522q0 -38 22.5 -72.5t72.5 -84.5l35 15q74 32 109 65t35 85q0 55 -38 87t-94 32q-59 0 -100.5 -34.5t-41.5 -92.5z" />
<glyph unicode="'" horiz-adv-x="225" d="M134 505h-43l-2 249h47z" />
<glyph unicode="(" horiz-adv-x="234" d="M196 755q-114 -210 -114 -467q0 -248 114 -459h-42q-114 209 -114 457q0 250 114 469h42z" />
<glyph unicode=")" horiz-adv-x="234" d="M196 298q0 -250 -114 -469h-42q114 210 114 467q0 248 -114 459h42q114 -209 114 -457z" />
<glyph unicode="*" horiz-adv-x="527" d="M292 552l144 -83l-18 -33q-121 76 -139 88q0 -28 1.5 -86.5t1.5 -87.5h-38q2 156 4 174l-139 -88l-19 33l144 83l-144 82l19 34l138 -89h1q0 2 -0.5 11.5t-1.5 51.5t-2 111h38q0 -20 -1 -55t-1.5 -64t-0.5 -55l139 89l18 -34z" />
<glyph unicode="+" horiz-adv-x="630" d="M560 241h-227v-237h-38v237h-227v39h227v238h38v-238h227v-39z" />
<glyph unicode="," horiz-adv-x="222" d="M152 60l-59 -220h-43l51 220h51z" />
<glyph unicode="-" horiz-adv-x="257" d="M234 239h-215v42h215v-42z" />
<glyph unicode="." horiz-adv-x="226" d="M146 26q0 -14 -9.5 -24t-23.5 -10q-15 0 -24 10t-9 24t9 24t24 10q14 0 23.5 -10t9.5 -24z" />
<glyph unicode="/" horiz-adv-x="381" d="M394 755l-364 -833h-43l364 833h43z" />
<glyph unicode="0" horiz-adv-x="544" d="M30 245q0 113 71.5 184t170.5 71t170.5 -71t71.5 -184t-71.5 -184.5t-170.5 -71.5t-170.5 71.5t-71.5 184.5zM77 244q0 -93 57.5 -154t136.5 -61t137 61.5t58 154.5t-57.5 154t-136.5 61t-137 -61t-58 -155z" />
<glyph unicode="1" horiz-adv-x="254" d="M174 0h-45v449h-113v40h158v-489z" />
<glyph unicode="2" horiz-adv-x="439" d="M415 0h-385v36q150 107 216 167q29 27 44 43.5t30 45.5t15 59q0 49 -33 79.5t-89 30.5q-71 0 -149 -46l-18 38q82 49 170 49q76 0 121.5 -43t45.5 -106q0 -41 -24.5 -84t-73.5 -86.5t-87 -72t-99 -69.5h316v-41z" />
<glyph unicode="3" horiz-adv-x="400" d="M363 55q-1 -207 -341 -207v41q48 0 87 4t79 15t67.5 28.5t44.5 47t17 69.5q0 56 -36 90t-96 34q-26 0 -91 -5l-2 41l81 6q64 4 99 42t35 89q0 49 -32 80.5t-95 31.5q-72 0 -146 -33l-11 39q73 34 161 34q83 0 126 -42.5t43 -104.5q0 -51 -29.5 -93t-83.5 -59 q56 -8 89.5 -48.5t33.5 -99.5z" />
<glyph unicode="4" horiz-adv-x="528" d="M508 0h-125v-163h-45v163h-311v34l303 461h53v-454h125v-41zM338 40v394l-259 -394h259z" />
<glyph unicode="5" horiz-adv-x="397" d="M360 489v-42h-255l-21 -215h25q252 0 252 -163q0 -184 -326 -234l-8 40q287 45 287 192q0 123 -207 123h-72l29 299h296z" />
<glyph unicode="6" horiz-adv-x="486" d="M455 206q0 -101 -63 -158.5t-149 -57.5q-87 0 -144 65t-57 171q0 160 88.5 278.5t257.5 171.5l15 -41q-129 -37 -210 -123.5t-103 -201.5q27 43 73.5 70t100.5 27q85 0 138 -55.5t53 -145.5zM409 205q0 73 -42 117.5t-111 44.5q-72 0 -120 -48.5t-48 -116.5 q0 -75 47 -124t113 -49q65 0 113 46t48 130z" />
<glyph unicode="7" horiz-adv-x="429" d="M394 456l-301 -634l-42 19l295 607h-334v41h382v-33z" />
<glyph unicode="8" horiz-adv-x="496" d="M57 510q0 76 56 124t135 48q78 0 134 -48t56 -124q0 -126 -130 -163q72 -21 109.5 -66t37.5 -107q0 -83 -61 -134.5t-146 -51.5q-86 0 -147 51.5t-61 134.5q0 62 37.5 107t109.5 66q-130 37 -130 163zM86 177q0 -66 47.5 -107t114.5 -41q66 0 113.5 41.5t47.5 106.5 q0 66 -47.5 108t-113.5 42t-114 -42t-48 -108zM101 506q0 -61 43 -100t104 -39q60 0 103.5 39t43.5 100q0 60 -43 97.5t-104 37.5t-104 -37.5t-43 -97.5z" />
<glyph unicode="9" horiz-adv-x="486" d="M31 285q0 101 62.5 159t147.5 58q89 0 146 -65t57 -171q0 -160 -89 -280t-257 -170l-15 41q129 38 210 123.5t103 200.5q-27 -43 -73.5 -69.5t-100.5 -26.5q-85 0 -138 55t-53 145zM77 287q0 -74 42 -118.5t111 -44.5q63 0 115.5 45.5t52.5 103.5q0 83 -45.5 136.5 t-114.5 53.5q-65 0 -113 -46t-48 -130z" />
<glyph unicode=":" horiz-adv-x="225" d="M146 436q0 -14 -9.5 -24t-23.5 -10q-15 0 -24 10t-9 24t9 24t24 10q14 0 23.5 -10t9.5 -24zM146 26q0 -14 -9.5 -24t-23.5 -10q-15 0 -24 10t-9 24t9 24t24 10q14 0 23.5 -10t9.5 -24z" />
<glyph unicode=";" horiz-adv-x="225" d="M147 60l-59 -220h-43l51 220h51zM144 436q0 -14 -9.5 -24t-23.5 -10t-23.5 10t-9.5 24t9.5 24t23.5 10t23.5 -10t9.5 -24z" />
<glyph unicode="&#x3c;" horiz-adv-x="630" d="M542 8l-456 210v34l456 206v-44l-400 -178l400 -183v-45z" />
<glyph unicode="=" horiz-adv-x="630" d="M560 335h-492v40h492v-40zM560 147h-492v40h492v-40z" />
<glyph unicode="&#x3e;" horiz-adv-x="630" d="M542 215l-456 -207v45l400 179l-400 182v44l456 -209v-34z" />
<glyph unicode="?" horiz-adv-x="437" d="M224 689q78 0 131.5 -48t53.5 -121q0 -79 -71 -147l-27 -26q-52 -51 -77.5 -94t-25.5 -99h-42q-1 6 -1 18q0 84 62 151q10 11 41.5 41.5t46 47.5t29.5 47t15 61q0 53 -40 89t-99 36q-89 0 -166 -50l-17 38q84 56 187 56zM223 26q0 -14 -9.5 -23.5t-23.5 -9.5t-23.5 9.5 t-9.5 23.5t9.5 24t23.5 10t23.5 -10t9.5 -24z" />
<glyph unicode="@" horiz-adv-x="810" d="M562 482l-42 -251q-1 -6 -1 -16q0 -48 49 -48q61 0 102.5 62.5t41.5 149.5q0 119 -74 195t-200 76q-147 0 -244 -99t-97 -249q0 -134 85 -230.5t239 -96.5q119 0 232 70l18 -35q-114 -74 -250 -74q-89 0 -161 31t-116 83t-67 116.5t-23 135.5q0 168 108.5 277.5 t274.5 109.5q144 0 231 -86.5t87 -223.5q0 -98 -52.5 -174.5t-139.5 -76.5q-35 0 -58 21.5t-23 64.5q-67 -86 -135 -86q-56 0 -90 40.5t-34 104.5q0 92 61 161t157 69q54 0 121 -21zM488 283l28 170q-36 12 -75 12q-80 0 -127.5 -57.5t-47.5 -134.5q0 -47 22.5 -76.5 t58.5 -29.5q38 0 75.5 30.5t65.5 85.5z" />
<glyph unicode="A" horiz-adv-x="557" d="M505 0l-84 231h-288l-83 -231h-50l254 681h51l252 -681h-52zM278 630l-131 -360h260z" />
<glyph unicode="B" horiz-adv-x="504" d="M460 180q0 -80 -57.5 -130t-161.5 -50h-171v677h168q97 0 148.5 -49.5t51.5 -121.5q0 -122 -121 -163q70 -14 106.5 -59.5t36.5 -103.5zM388 501q0 56 -36.5 95.5t-112.5 39.5h-121v-278h115q72 0 113.5 41t41.5 102zM412 180q0 62 -43 100.5t-120 38.5h-131v-278h127 q79 0 123 38.5t44 100.5z" />
<glyph unicode="C" horiz-adv-x="517" d="M487 36q-79 -46 -164 -46q-138 0 -214 98.5t-76 244.5q0 92 30.5 170.5t98 131.5t160.5 53q80 0 165 -41l-16 -41q-79 38 -154 38t-129.5 -46t-79 -115t-24.5 -150q0 -127 63.5 -213.5t178.5 -86.5q71 0 145 41z" />
<glyph unicode="D" horiz-adv-x="584" d="M550 349q0 -161 -83.5 -255t-233.5 -94h-163v677h149q75 0 134.5 -21.5t95.5 -54.5t59.5 -78t32.5 -87.5t9 -86.5zM500 346q0 126 -69.5 207t-213.5 81h-99v-592h118q125 0 194.5 81.5t69.5 222.5z" />
<glyph unicode="E" horiz-adv-x="471" d="M437 0h-367v677h360v-43h-312v-275h280v-42h-280v-275h319v-42z" />
<glyph unicode="F" horiz-adv-x="460" d="M424 634h-306v-283h276v-43h-276v-308h-48v677h354v-43z" />
<glyph unicode="G" horiz-adv-x="605" d="M535 45q-95 -55 -207 -55q-139 0 -217.5 97.5t-78.5 247.5q0 94 33.5 172.5t104.5 129.5t168 51q101 0 184 -46l-18 -39q-85 41 -169 41q-118 0 -185 -88t-67 -221q0 -131 65 -216.5t184 -85.5q86 0 157 37v275h46v-300z" />
<glyph unicode="H" horiz-adv-x="597" d="M527 0h-48v317h-362v-317h-47v677h47v-318h362v318h48v-677z" />
<glyph unicode="I" horiz-adv-x="188" d="M118 0h-48v677h48v-677z" />
<glyph unicode="J" horiz-adv-x="389" d="M319 673v-498q0 -90 -45 -138t-121 -48q-74 0 -134 48q5 7 13 22t9 16q53 -43 110 -43t88.5 36.5t31.5 103.5v501h48z" />
<glyph unicode="K" horiz-adv-x="493" d="M479 0h-63l-146 176l-140 167q259 301 285 334h60l-287 -333zM118 0h-48v677h48v-677z" />
<glyph unicode="L" horiz-adv-x="429" d="M407 0h-337v677h48v-635h289v-42z" />
<glyph unicode="M" horiz-adv-x="710" d="M640 0h-48v594l-227 -422h-36l-215 419v-591h-44v677h48l231 -451l241 451h50v-677z" />
<glyph unicode="N" horiz-adv-x="610" d="M540 0h-50l-375 611v-611h-45v677h55l370 -603v603h45v-677z" />
<glyph unicode="O" horiz-adv-x="653" d="M572 342q0 79 -25.5 145.5t-82 111.5t-135.5 45q-115 0 -181.5 -89t-66.5 -220q0 -79 25.5 -146t82 -111.5t134.5 -44.5q115 0 182 87t67 222zM621 344q0 -147 -80.5 -251t-218.5 -104q-132 0 -211 99t-79 245q0 148 82.5 251.5t215.5 103.5t212 -98.5t79 -245.5z" />
<glyph unicode="P" horiz-adv-x="484" d="M452 488q0 -88 -59.5 -148t-156.5 -60h-118v-280h-48v677h168q101 0 157.5 -53.5t56.5 -135.5zM402 482q0 68 -43.5 110.5t-123.5 42.5h-117v-313h119q75 0 120 46.5t45 113.5z" />
<glyph unicode="Q" horiz-adv-x="669" d="M635 20l-32 -33l-80 76q-82 -74 -197 -74q-130 0 -211.5 94.5t-81.5 244.5q0 155 88.5 257.5t220.5 102.5q130 0 212 -93t82 -245q0 -151 -82 -253zM587 348q0 128 -66 212t-180 84t-186.5 -88t-72.5 -226q0 -127 66 -212t179 -85q98 0 164 61l-104 100l32 33l102 -98 q66 86 66 219z" />
<glyph unicode="R" horiz-adv-x="488" d="M458 0h-57l-177 294h-107v-294h-47v677h169q100 0 154.5 -51.5t54.5 -129.5q0 -71 -45.5 -127t-127.5 -69zM398 493q0 62 -41.5 103t-114.5 41h-125v-303h116q74 0 119.5 45.5t45.5 113.5z" />
<glyph unicode="S" horiz-adv-x="465" d="M434 173q0 -83 -58.5 -133.5t-138.5 -50.5q-105 0 -211 78l21 39q105 -74 194 -74q61 0 103 38t42 101q0 48 -36 80.5t-88 51.5t-103.5 40t-87.5 62t-36 102q0 79 57 130t139 51q86 0 184 -58l-17 -40q-36 19 -54.5 28t-51 18t-63.5 9q-63 0 -105.5 -37t-42.5 -97 q0 -52 36.5 -85.5t88.5 -52.5l104 -39q51 -21 87.5 -61t36.5 -100z" />
<glyph unicode="T" horiz-adv-x="486" d="M477 634h-210v-634h-48v634h-210v43h468v-43z" />
<glyph unicode="U" horiz-adv-x="605" d="M535 224q0 -116 -64.5 -175t-169.5 -59q-101 0 -166 58.5t-65 173.5v455h48v-453q0 -95 51 -143t134 -48q84 0 134 48.5t50 142.5v453h48v-453z" />
<glyph unicode="V" horiz-adv-x="533" d="M538 677l-249 -682h-46l-248 682h51l220 -622l222 622h50z" />
<glyph unicode="W" horiz-adv-x="817" d="M818 677l-190 -677h-51l-170 603l-169 -603h-49l-190 677h52l164 -606l169 606h47l171 -608l165 608h51z" />
<glyph unicode="X" horiz-adv-x="541" d="M4 0l237 339h1l-235 338h57l206 -299l207 299h56l-236 -338l240 -339h-58l-210 301l-209 -301h-56z" />
<glyph unicode="Y" horiz-adv-x="500" d="M504 677l-229 -389v-288h-48v288q-6 9 -231 389h54l202 -344l197 344h55z" />
<glyph unicode="Z" horiz-adv-x="508" d="M475 0h-442v27l367 607h-355v43h422v-21l-371 -614h379v-42z" />
<glyph unicode="[" horiz-adv-x="257" d="M201 -171h-155v927h155v-36h-114v-855h114v-36z" />
<glyph unicode="\" horiz-adv-x="402" d="M360 -78l-363 833h43l364 -833h-44z" />
<glyph unicode="]" horiz-adv-x="257" d="M211 -171h-155v36h113v855h-113v36h155v-927z" />
<glyph unicode="^" horiz-adv-x="573" d="M523 229h-45l-195 388l-191 -388h-45l222 445h29z" />
<glyph unicode="_" horiz-adv-x="573" d="M572 -125h-572v37h572v-37z" />
<glyph unicode="`" horiz-adv-x="538" d="M302 554h-41l-90 155h56z" />
<glyph unicode="a" horiz-adv-x="448" d="M384 0h-43v88q-23 -43 -71 -70t-99 -27q-65 0 -104.5 35t-39.5 95q0 80 73.5 123t239.5 46q-6 100 -38 134.5t-97 34.5q-69 0 -135 -31l-12 37q79 35 148 35q87 0 132.5 -45.5t45.5 -170.5v-284zM340 181v74q-146 -3 -206.5 -36t-60.5 -95q0 -45 30.5 -69t73.5 -24 q65 0 114 41.5t49 108.5z" />
<glyph unicode="b" horiz-adv-x="514" d="M476 254q0 -116 -61 -190t-155 -74q-91 0 -140.5 55t-49.5 151v559h45v-368q24 54 69 83.5t98 29.5q79 0 136.5 -64.5t57.5 -181.5zM430 248q0 105 -45.5 158.5t-108.5 53.5q-66 0 -113.5 -50.5t-47.5 -131.5v-82q0 -75 36.5 -121.5t108.5 -46.5q75 0 122.5 61t47.5 159z " />
<glyph unicode="c" horiz-adv-x="411" d="M387 24q-66 -34 -134 -34q-97 0 -156.5 69.5t-59.5 177.5q0 106 67.5 184.5t168.5 78.5q58 0 112 -25l-14 -39q-49 23 -96 23q-82 0 -137.5 -63t-55.5 -159q0 -91 47.5 -149t124.5 -58q59 0 119 30q10 -24 14 -36z" />
<glyph unicode="d" horiz-adv-x="504" d="M434 0h-43v99q-23 -53 -69.5 -81.5t-99.5 -28.5q-77 0 -131 61.5t-54 173.5q0 111 65 193t175 82q59 0 113 -18v274h44v-755zM390 203v239q-57 17 -106 17q-93 0 -147 -67.5t-54 -170.5q0 -86 41 -139t106 -53t112.5 49.5t47.5 124.5z" />
<glyph unicode="e" d="M437 241h-355v-10q0 -98 48 -149t123 -51t155 53l20 -32q-85 -62 -178 -62q-91 0 -152 62.5t-61 183.5q0 103 59 183t155 80q89 0 137.5 -66t48.5 -176v-16zM249 459q-67 0 -112 -54t-52 -126h305q-1 82 -37 131t-104 49z" />
<glyph unicode="f" horiz-adv-x="262" d="M252 449h-117v-449h-44v449h-81v40h81v109q0 70 34 114t97 44q18 0 32 -3l-2 -41q-12 2 -29 2q-88 0 -88 -117v-108h117v-40z" />
<glyph unicode="g" horiz-adv-x="505" d="M390 206v236q-56 18 -106 18q-93 0 -147 -67.5t-54 -167.5q0 -86 41 -139.5t106 -53.5t112.5 49.5t47.5 124.5zM435 473v-432q0 -225 -208 -225q-54 0 -121 23q5 15 10 40q65 -21 113 -21q162 0 162 182v62q-23 -52 -69.5 -81t-99.5 -29q-78 0 -131.5 60.5t-53.5 172.5 q0 110 67 192.5t182 82.5q71 0 149 -27z" />
<glyph unicode="h" horiz-adv-x="502" d="M436 0h-44v291q0 168 -127 168q-68 0 -109 -45t-41 -112v-302h-45v755h45v-353q22 45 65 72t96 27q75 0 117.5 -50.5t42.5 -142.5v-308z" />
<glyph unicode="i" horiz-adv-x="166" d="M105 0h-45v489h45v-489zM51 655q0 14 9 23.5t23 9.5t23 -9.5t9 -23.5q0 -13 -9 -22.5t-23 -9.5t-23 9.5t-9 22.5z" />
<glyph unicode="j" horiz-adv-x="166" d="M115 655q0 -13 -9 -22.5t-23 -9.5t-23 9.5t-9 22.5q0 14 9 23.5t23 9.5t23 -9.5t9 -23.5zM60 -18v507h45v-508q0 -68 -39.5 -116t-109.5 -49v41q53 0 78.5 34t25.5 91z" />
<glyph unicode="k" horiz-adv-x="415" d="M407 0h-55l-224 255l221 234h55l-223 -233zM115 0h-45v755h45v-755z" />
<glyph unicode="l" horiz-adv-x="185" d="M115 0h-45v755h45v-755z" />
<glyph unicode="m" horiz-adv-x="804" d="M738 0h-44v291q0 79 -27 123.5t-95 44.5t-106.5 -45t-38.5 -112q0 -50 -0.5 -151t-0.5 -151h-44v296q0 77 -27 120t-95 43t-106.5 -45t-38.5 -112v-302h-45v489h44v-88q22 47 63 73.5t94 26.5q110 0 140 -103q25 48 68.5 75.5t98.5 27.5q78 0 119 -50t41 -143v-308z" />
<glyph unicode="n" horiz-adv-x="502" d="M436 0h-44v291q0 168 -127 168q-68 0 -109 -45t-41 -112v-302h-45v489h44v-88q22 47 65 73.5t97 26.5q70 0 115 -47.5t45 -145.5v-308z" />
<glyph unicode="o" horiz-adv-x="521" d="M438 244q0 88 -47.5 153t-130.5 65q-82 0 -129.5 -63t-47.5 -156q0 -88 47 -152t131 -64q81 0 129 62t48 155zM484 245q0 -105 -60.5 -180.5t-163.5 -75.5q-108 0 -165.5 75.5t-57.5 178.5q0 106 61.5 182t162.5 76q102 0 162.5 -73.5t60.5 -182.5z" />
<glyph unicode="p" horiz-adv-x="502" d="M468 264q0 -110 -64.5 -190t-174.5 -80q-61 0 -114 21v-199h-45v673h44v-99q23 52 69 81t100 29q77 0 131 -61.5t54 -174.5zM422 267q0 86 -41.5 139t-105.5 53q-67 0 -113.5 -49t-46.5 -125v-233q46 -19 106 -19q93 0 147 66t54 168z" />
<glyph unicode="q" horiz-adv-x="505" d="M390 203v238q-52 19 -106 19q-93 0 -147 -68t-54 -171q0 -86 41 -139t106 -53t112.5 49.5t47.5 124.5zM435 471v-655h-45v282q-24 -52 -69.5 -80.5t-98.5 -28.5q-77 0 -131 61.5t-54 173.5q0 110 67 192.5t182 82.5q68 0 149 -28z" />
<glyph unicode="r" horiz-adv-x="287" d="M270 454q-73 -7 -114 -61.5t-41 -142.5v-250h-45v489h44v-115q46 117 155 126q1 -16 1 -46z" />
<glyph unicode="s" horiz-adv-x="384" d="M351 126q0 -60 -44 -98.5t-111 -38.5q-88 0 -167 53q7 12 19 36q80 -49 149 -49q51 0 81 26t30 68q0 35 -28 57t-67.5 34.5t-79.5 27.5t-68 46t-28 79q0 61 44.5 97.5t112.5 36.5q70 0 143 -35l-15 -38q-70 32 -128 32q-54 0 -85 -25t-31 -65q0 -38 28 -61.5t68 -36.5 l80 -27q41 -14 69 -43.5t28 -75.5z" />
<glyph unicode="t" horiz-adv-x="268" d="M255 449h-116v-449h-44v449h-81v40h81v188h44v-188h116v-40z" />
<glyph unicode="u" horiz-adv-x="499" d="M436 192q0 -104 -54.5 -153.5t-134.5 -49.5q-78 0 -131 48.5t-53 153.5v298h45v-298q0 -85 41.5 -124.5t100.5 -39.5q60 0 100 38.5t40 125.5v298h46v-297z" />
<glyph unicode="v" horiz-adv-x="424" d="M418 489l-182 -489h-48l-182 489h49l158 -441l156 441h49z" />
<glyph unicode="w" horiz-adv-x="726" d="M717 489l-162 -489h-51l-139 433l-145 -433h-51l-161 489h50l139 -442l144 440h48l140 -441l141 443h47z" />
<glyph unicode="x" horiz-adv-x="455" d="M449 0h-56l-166 219l-169 -219h-52l196 249l-186 240h55l158 -206v1l158 205h52l-185 -237z" />
<glyph unicode="y" horiz-adv-x="455" d="M449 489l-267 -673h-51l78 190l-203 483h52q176 -428 176 -429l164 429h51z" />
<glyph unicode="z" horiz-adv-x="421" d="M368 0h-338v29l277 420h-270v40h327v-29l-277 -419h281v-41z" />
<glyph unicode="{" horiz-adv-x="222" d="M211 -171h-32q-50 0 -70.5 22.5t-20.5 84.5v251q0 72 -38 107q22 20 30 42.5t8 64.5v272q0 82 98 82h25v-35h-13q-34 0 -51.5 -11t-17.5 -45v-272q0 -40 -7.5 -60t-28.5 -38q36 -33 36 -98v-275q0 -31 12.5 -43.5t44.5 -12.5h25v-36z" />
<glyph unicode="|" horiz-adv-x="286" d="M164 -77h-42v830h42v-830z" />
<glyph unicode="}" horiz-adv-x="218" d="M60 -171h-49v36h25q32 0 44.5 12.5t12.5 43.5v275q0 66 36 98q-22 18 -29 38t-7 60v272q0 34 -18 45t-52 11h-12v35h24q53 0 76 -22t23 -79v-253q0 -42 8 -64.5t30 -42.5q-38 -35 -38 -107v-251q0 -107 -74 -107z" />
<glyph unicode="~" horiz-adv-x="564" d="M500 297q-46 -79 -110 -79q-42 0 -106.5 36t-99.5 36q-57 0 -103 -78l-25 28q20 39 53 64t73 25q43 0 109 -36t97 -36q38 0 89 70q16 -20 23 -30z" />
<glyph unicode="&#xa1;" horiz-adv-x="225" d="M80 469q0 14 9.5 23.5t23.5 9.5t23.5 -9.5t9.5 -23.5t-9.5 -24t-23.5 -10t-23.5 10t-9.5 24zM91 341h45l2 -525h-50z" />
<glyph unicode="&#xa2;" horiz-adv-x="418" d="M246 -90v80q-96 6 -151 79t-55 170q0 93 57.5 170t148.5 89v88h39v-87q56 -3 103 -26l-14 -38q-45 20 -89 23v-426q47 6 92 29q3 -8 13 -37q-54 -25 -105 -32v-82h-39zM85 239q0 -80 43.5 -141t117.5 -67v425q-72 -12 -116.5 -73.5t-44.5 -143.5z" />
<glyph unicode="&#xa3;" horiz-adv-x="500" d="M26 0q40 137 60 286h-71v41h77l22 149q18 122 62.5 167.5t126.5 45.5q52 0 129 -27l-13 -38q-63 25 -127 25q-61 0 -91.5 -41t-42.5 -133l-20 -148h180v-41h-186q-14 -117 -46 -245h344v-41h-404z" />
<glyph unicode="&#xa4;" horiz-adv-x="500" d="M250 419q64 0 110 -38l81 83l27 -27l-81 -82q38 -49 38 -111q0 -64 -39 -112l82 -83l-27 -27l-82 84q-47 -36 -109 -36q-64 0 -109 35l-82 -83l-27 27l82 83q-39 48 -39 112t38 111l-81 82l27 27l80 -82q47 37 111 37zM250 104q58 0 95 41t37 98q0 58 -37 100t-95 42 t-95 -42.5t-37 -99.5t37 -98t95 -41z" />
<glyph unicode="&#xa5;" horiz-adv-x="549" d="M522 677l-210 -340h170v-38h-179v-95h179v-37h-179v-167h-46v167h-181v37h181v95h-181v38h167l-216 340h51l202 -321l190 321h52z" />
<glyph unicode="&#xa6;" horiz-adv-x="264" d="M153 426h-42v329h42v-329zM111 253h42v-330h-42v330z" />
<glyph unicode="&#xa7;" horiz-adv-x="573" d="M443 265q0 38 -14 66.5t-41.5 48t-52 31.5t-63.5 27t-59 25q-42 -32 -67 -71.5t-25 -77.5q0 -33 11 -59t27 -42.5t41.5 -31t47.5 -23.5l54 -20q30 -13 50 -23q91 69 91 150zM484 265q0 -92 -97 -171q65 -52 65 -126q0 -67 -50.5 -107.5t-126.5 -40.5q-80 0 -142 30l15 38 q59 -27 127 -27q58 0 96.5 28.5t38.5 79.5q0 41 -24.5 70.5t-61 44.5t-79.5 34.5t-79.5 39.5t-61 60t-24.5 96q0 90 98 170q-64 50 -64 127q0 67 50.5 107.5t126.5 40.5q79 0 142 -30l-15 -38q-59 27 -127 27q-60 0 -97.5 -28.5t-37.5 -79.5q0 -41 24.5 -70t60.5 -44l79 -34 q43 -20 79 -40t60.5 -60.5t24.5 -96.5z" />
<glyph unicode="&#xa8;" horiz-adv-x="538" d="M143 649q0 12 8.5 21t21.5 9q12 0 20.5 -9t8.5 -21t-8.5 -21.5t-20.5 -9.5q-13 0 -21.5 9.5t-8.5 21.5zM336 649q0 12 8.5 21t21.5 9q12 0 20.5 -9t8.5 -21t-8.5 -21.5t-20.5 -9.5t-21 9.5t-9 21.5z" />
<glyph unicode="&#xa9;" horiz-adv-x="799" d="M752 338q0 -67 -22.5 -128.5t-65 -111t-111 -79.5t-153.5 -30t-154 30t-111.5 79.5t-65.5 111t-23 128.5q0 66 22.5 127.5t65 111t111.5 79t155 29.5q85 0 154 -29.5t111 -79t64.5 -111t22.5 -127.5zM711 338q0 125 -82 216.5t-229 91.5q-148 0 -230 -91.5t-82 -216.5 q0 -59 20 -114t58 -99.5t98.5 -71t135.5 -26.5q99 0 171.5 46t106 115.5t33.5 149.5zM506 160l15 -36q-54 -31 -118 -31q-104 0 -166.5 66.5t-62.5 168.5q0 99 63 175.5t165 76.5q57 0 118 -31q-6 -17 -14 -37q-51 27 -107 27q-81 0 -132 -64t-51 -147q0 -86 52 -141 t137 -55q53 0 101 28z" />
<glyph unicode="&#xaa;" horiz-adv-x="386" d="M316 399h-38v51q-19 -26 -51 -42.5t-65 -16.5q-47 0 -75.5 25.5t-28.5 68.5q0 115 219 120q-1 64 -25 86.5t-67 22.5t-94 -22l-12 32q56 26 106 26q63 0 97 -32t34 -120v-199zM277 524v49q-179 -4 -179 -86q0 -25 20.5 -42.5t47.5 -17.5q43 0 77 27t34 70z" />
<glyph unicode="&#xab;" horiz-adv-x="503" d="M443 451l-152 -186l152 -186l-32 -24l-178 210l178 210zM270 451l-152 -186l152 -186l-32 -24l-178 210l178 210z" />
<glyph unicode="&#xac;" horiz-adv-x="630" d="M555 63h-41v193h-435v40h476v-233z" />
<glyph unicode="&#xad;" horiz-adv-x="257" d="M234 239h-215v42h215v-42z" />
<glyph unicode="&#xae;" horiz-adv-x="799" d="M752 338q0 -67 -22.5 -128.5t-65 -111t-111 -79.5t-153.5 -30t-154 30t-111.5 79.5t-65.5 111t-23 128.5q0 66 22.5 127.5t65 111t111.5 79t155 29.5q85 0 154 -29.5t111 -79t64.5 -111t22.5 -127.5zM711 338q0 125 -82 216.5t-229 91.5q-148 0 -230 -91.5t-82 -216.5 q0 -59 20 -114t58 -99.5t98.5 -71t135.5 -26.5q99 0 171.5 46t106 115.5t33.5 149.5zM560 108h-47q-61 110 -110 189h-89v-189h-40v467h137q73 0 112 -35.5t39 -96.5q0 -50 -30 -88.5t-86 -51.5q52 -83 114 -195zM519 441q0 45 -28 71.5t-78 26.5h-99v-206h82 q50 0 86.5 24.5t36.5 83.5z" />
<glyph unicode="&#xaf;" horiz-adv-x="298" d="M269 616h-241v42h241v-42z" />
<glyph unicode="&#xb0;" horiz-adv-x="404" d="M352 543q0 -63 -41 -98.5t-95 -35.5t-94 35.5t-40 98.5t40 98.5t94 35.5t95 -36t41 -98zM311 543q0 44 -28.5 69.5t-66.5 25.5t-66 -25.5t-28 -69.5q0 -45 28 -70t66 -25t66.5 25t28.5 70z" />
<glyph unicode="&#xb1;" horiz-adv-x="630" d="M560 332h-227v-236h-38v236h-227v38h227v237h38v-237h227v-38zM560 2h-492v39h492v-39z" />
<glyph unicode="&#xb2;" horiz-adv-x="423" d="M356 286h-286v30l80 71q33 30 72.5 73t60.5 83.5t21 75.5q0 42 -26.5 68t-72.5 26q-63 0 -113 -44q-14 18 -22 27q63 55 137 55q62 0 99.5 -37.5t37.5 -94.5q0 -64 -51.5 -132.5t-161.5 -164.5h225v-36z" />
<glyph unicode="&#xb3;" horiz-adv-x="392" d="M319 628q0 -78 -70 -106q38 -12 61.5 -42.5t23.5 -70.5q0 -58 -40 -97t-112 -39q-66 0 -124 38l18 30q53 -34 106 -34q54 0 83 29.5t29 72.5q0 38 -29 65t-77 27h-72v36h70q44 0 69.5 25.5t25.5 62.5t-27 61t-69 24q-53 0 -105 -33l-16 30q53 38 122 38q60 0 96.5 -33.5 t36.5 -83.5z" />
<glyph unicode="&#xb4;" horiz-adv-x="538" d="M364 709l-89 -155h-41l75 155h55z" />
<glyph unicode="&#xb5;" horiz-adv-x="505" d="M392 489h44v-308q0 -95 -45 -143.5t-115 -48.5q-55 0 -98.5 24.5t-62.5 70.5v-268h-45v673h45v-302q0 -67 41 -112t109 -45q127 0 127 168v291z" />
<glyph unicode="&#xb6;" horiz-adv-x="523" d="M498 638h-69v-822h-42v822h-94v-822h-42v425q-112 1 -173.5 66t-61.5 153q0 99 73.5 157.5t216.5 58.5h192v-38z" />
<glyph unicode="&#xb7;" horiz-adv-x="258" d="M162 339q0 -14 -9.5 -24t-23.5 -10q-15 0 -24 10t-9 24t9 24t24 10q14 0 23.5 -10t9.5 -24z" />
<glyph unicode="&#xb8;" horiz-adv-x="538" d="M350 -108q0 -37 -26.5 -56.5t-67.5 -19.5q-50 0 -94 21l14 31q43 -18 80 -18q24 0 38.5 11t14.5 30q0 11 -6.5 19.5t-15.5 13.5t-22 9t-22 5.5t-21 3t-13 1.5q18 38 26 57h39q-10 -22 -16 -33q92 -17 92 -75z" />
<glyph unicode="&#xb9;" horiz-adv-x="261" d="M177 285h-39v419h-94v36h133v-455z" />
<glyph unicode="&#xba;" horiz-adv-x="429" d="M377 575q0 -75 -45 -127.5t-118 -52.5q-81 0 -122 53t-41 126q0 78 46.5 130t117.5 52q73 0 117.5 -50.5t44.5 -130.5zM336 575q0 62 -33.5 104t-88.5 42q-54 0 -88.5 -41.5t-34.5 -104.5q0 -59 32 -102.5t91 -43.5q54 0 88 41t34 105z" />
<glyph unicode="&#xbb;" horiz-adv-x="503" d="M212 265l-152 186l32 24l178 -210l-178 -210l-32 24zM385 265l-152 186l32 24l178 -210l-178 -210l-32 24z" />
<glyph unicode="&#xbc;" horiz-adv-x="888" d="M211 285h-39v419h-94v36h133v-455zM639 745h40l-487 -745h-39zM767 114h-67v-114h-38v114h-208v27l206 314h40v-307h67v-34zM662 148v250l-164 -250h164z" />
<glyph unicode="&#xbd;" horiz-adv-x="888" d="M809 0h-286v30l81 72q30 27 71.5 71.5t61.5 84t20 75.5q0 39 -25.5 66.5t-69.5 27.5q-66 0 -117 -45l-22 28q63 55 137 55q62 0 99.5 -38t37.5 -94q0 -65 -51.5 -132.5t-161.5 -165.5h225v-35zM191 285h-39v419h-94v36h133v-455zM609 745h40l-487 -745h-39z" />
<glyph unicode="&#xbe;" horiz-adv-x="888" d="M700 745h40l-487 -745h-40zM828 114h-67v-114h-38v114h-208v27l206 314h40v-307h67v-34zM723 148v250l-164 -250h164zM337 628q0 -36 -18 -64.5t-51 -41.5q37 -12 61 -42.5t24 -70.5q0 -58 -40.5 -97t-111.5 -39q-66 0 -125 38l18 30q53 -34 107 -34t83 29.5t29 72.5 q0 38 -29.5 65t-77.5 27h-71v36h69q44 0 69.5 26t25.5 62q0 38 -26.5 61.5t-69.5 23.5q-54 0 -104 -33l-17 30q53 38 123 38q60 0 96 -33t36 -84z" />
<glyph unicode="&#xbf;" horiz-adv-x="437" d="M222 -184q-79 0 -132 43.5t-53 115.5q0 79 71 147l27 26q52 51 77.5 94t25.5 99h42q1 -6 1 -18q0 -84 -62 -151q-10 -11 -41.5 -41.5t-46 -47.5t-29.5 -47t-15 -61q0 -52 39.5 -83.5t99.5 -31.5q89 0 166 50l17 -38q-84 -56 -187 -56zM223 469q0 14 9.5 23.5t23.5 9.5 t23.5 -9.5t9.5 -23.5t-9.5 -24t-23.5 -10t-23.5 10t-9.5 24z" />
<glyph unicode="&#xc0;" horiz-adv-x="557" d="M505 0l-84 231h-288l-83 -231h-50l254 681h51l252 -681h-52zM278 630l-131 -360h260zM288 734h-41l-89 155h55z" />
<glyph unicode="&#xc1;" horiz-adv-x="557" d="M505 0l-84 231h-288l-83 -231h-50l254 681h51l252 -681h-52zM278 630l-131 -360h260zM398 889l-90 -155h-41l75 155h56z" />
<glyph unicode="&#xc2;" horiz-adv-x="557" d="M505 0l-84 231h-288l-83 -231h-50l254 681h51l252 -681h-52zM278 630l-131 -360h260zM392 733h-38l-75 119l-75 -119h-39l87 155h53z" />
<glyph unicode="&#xc3;" horiz-adv-x="557" d="M505 0l-84 231h-288l-83 -231h-50l254 681h51l252 -681h-52zM278 630l-131 -360h260zM412 846q0 -42 -18.5 -69t-56.5 -27q-27 0 -47.5 17t-37.5 33.5t-33 16.5q-40 0 -40 -55v-8h-36v9q0 39 19 66t56 27q29 0 51 -17t38.5 -33.5t31.5 -16.5q36 0 36 56v7h37v-6z" />
<glyph unicode="&#xc4;" horiz-adv-x="557" d="M505 0l-84 231h-288l-83 -231h-50l254 681h51l252 -681h-52zM278 630l-131 -360h260zM404 801q0 -12 -8.5 -21.5t-20.5 -9.5t-21 9.5t-9 21.5t8.5 21t21.5 9q12 0 20.5 -9t8.5 -21zM211 801q0 -12 -8.5 -21.5t-20.5 -9.5q-13 0 -21.5 9.5t-8.5 21.5t8.5 21t21.5 9 q12 0 20.5 -9t8.5 -21z" />
<glyph unicode="&#xc5;" horiz-adv-x="557" d="M505 0l-84 231h-288l-83 -231h-50l254 681h51l252 -681h-52zM278 630l-131 -360h260zM365 801q0 -37 -26 -60.5t-61 -23.5q-34 0 -60 23.5t-26 60.5q0 38 25.5 61.5t60.5 23.5t61 -23.5t26 -61.5zM330 801q0 24 -15 39t-37 15q-21 0 -36.5 -15t-15.5 -39q0 -23 15.5 -38 t36.5 -15q22 0 37 15t15 38z" />
<glyph unicode="&#xc6;" horiz-adv-x="822" d="M2 0l402 677h377v-43h-312v-275h280v-42h-280v-275h319v-42h-367v224h-235l-130 -224h-54zM209 263h212v363z" />
<glyph unicode="&#xc7;" horiz-adv-x="512" d="M395 -108q0 -37 -26.5 -56.5t-67.5 -19.5q-51 0 -94 21l14 31q43 -18 80 -18q24 0 38.5 11t14.5 30q0 11 -6.5 19.5t-15.5 13.5t-22 9t-22 5.5t-21 3t-13 1.5l23 51q-79 10 -136 59.5t-83.5 121t-26.5 158.5q0 92 30.5 170.5t98 131.5t160.5 53q80 0 165 -41l-16 -41 q-79 38 -154 38t-129.5 -46t-79 -115t-24.5 -150q0 -127 63.5 -213.5t178.5 -86.5q72 0 145 41l16 -38q-79 -46 -164 -46q-2 0 -4 0.5t-3 0.5l-11 -24q92 -17 92 -75z" />
<glyph unicode="&#xc8;" d="M437 0h-367v677h360v-43h-312v-275h280v-42h-280v-275h319v-42zM301 734h-41l-90 155h56z" />
<glyph unicode="&#xc9;" d="M437 0h-367v677h360v-43h-312v-275h280v-42h-280v-275h319v-42zM363 889l-89 -155h-41l75 155h55z" />
<glyph unicode="&#xca;" d="M437 0h-367v677h360v-43h-312v-275h280v-42h-280v-275h319v-42zM371 734h-38l-75 118l-75 -118h-39l87 155h53z" />
<glyph unicode="&#xcb;" d="M437 0h-367v677h360v-43h-312v-275h280v-42h-280v-275h319v-42zM384 800q0 -12 -8.5 -21.5t-20.5 -9.5t-21 9.5t-9 21.5t8.5 21t21.5 9q12 0 20.5 -9t8.5 -21zM191 800q0 -12 -8.5 -21.5t-20.5 -9.5q-13 0 -21.5 9.5t-8.5 21.5t8.5 21t21.5 9q12 0 20.5 -9t8.5 -21z" />
<glyph unicode="&#xcc;" horiz-adv-x="188" d="M118 0h-48v677h48v-677zM117 734h-41l-89 155h55z" />
<glyph unicode="&#xcd;" horiz-adv-x="188" d="M118 0h-48v677h48v-677zM203 889l-89 -155h-41l75 155h55z" />
<glyph unicode="&#xce;" horiz-adv-x="188" d="M118 0h-48v677h48v-677zM208 733h-39l-75 119l-75 -119h-38l87 155h52z" />
<glyph unicode="&#xcf;" horiz-adv-x="188" d="M118 0h-48v677h48v-677zM201 802q0 -12 -8.5 -21.5t-21.5 -9.5q-12 0 -20.5 9.5t-8.5 21.5t8.5 21t20.5 9q13 0 21.5 -9t8.5 -21zM48 802q0 -12 -8.5 -21.5t-20.5 -9.5q-13 0 -21.5 9.5t-8.5 21.5t8.5 21t21.5 9q12 0 20.5 -9t8.5 -21z" />
<glyph unicode="&#xd0;" horiz-adv-x="585" d="M551 349q0 -161 -83.5 -255t-233.5 -94h-163v324h-71v40h71v313h149q75 0 134.5 -21.5t95.5 -54.5t59.5 -78t32.5 -87.5t9 -86.5zM501 346q0 126 -69.5 207t-213.5 81h-99v-270h129v-40h-129v-282h118q125 0 194.5 81.5t69.5 222.5z" />
<glyph unicode="&#xd1;" horiz-adv-x="610" d="M540 0h-50l-375 611v-611h-45v677h55l370 -603v603h45v-677zM446 843q0 -42 -18.5 -69t-56.5 -27q-22 0 -40 10.5t-28 23t-23.5 23t-27.5 10.5q-39 0 -39 -55v-8h-37v9q0 39 19.5 66t56.5 27q28 0 50 -16.5t38.5 -33.5t31.5 -17q37 0 37 56v7h37v-6z" />
<glyph unicode="&#xd2;" horiz-adv-x="653" d="M621 344q0 -147 -80.5 -251t-218.5 -104q-132 0 -211 99t-79 245q0 148 82.5 251.5t215.5 103.5t212 -98.5t79 -245.5zM572 342q0 79 -25.5 145.5t-82 111.5t-135.5 45q-115 0 -181.5 -89t-66.5 -220q0 -79 25.5 -146t82 -111.5t134.5 -44.5q115 0 182 87t67 222z M351 734h-41l-89 155h55z" />
<glyph unicode="&#xd3;" horiz-adv-x="653" d="M621 344q0 -147 -80.5 -251t-218.5 -104q-132 0 -211 99t-79 245q0 148 82.5 251.5t215.5 103.5t212 -98.5t79 -245.5zM572 342q0 79 -25.5 145.5t-82 111.5t-135.5 45q-115 0 -181.5 -89t-66.5 -220q0 -79 25.5 -146t82 -111.5t134.5 -44.5q115 0 182 87t67 222z M434 889l-90 -155h-41l75 155h56z" />
<glyph unicode="&#xd4;" horiz-adv-x="653" d="M621 344q0 -147 -80.5 -251t-218.5 -104q-132 0 -211 99t-79 245q0 148 82.5 251.5t215.5 103.5t212 -98.5t79 -245.5zM572 342q0 79 -25.5 145.5t-82 111.5t-135.5 45q-115 0 -181.5 -89t-66.5 -220q0 -79 25.5 -146t82 -111.5t134.5 -44.5q115 0 182 87t67 222z M437 733h-38l-75 119l-75 -119h-39l87 155h53z" />
<glyph unicode="&#xd5;" horiz-adv-x="653" d="M621 344q0 -147 -80.5 -251t-218.5 -104q-132 0 -211 99t-79 245q0 148 82.5 251.5t215.5 103.5t212 -98.5t79 -245.5zM572 342q0 79 -25.5 145.5t-82 111.5t-135.5 45q-115 0 -181.5 -89t-66.5 -220q0 -79 25.5 -146t82 -111.5t134.5 -44.5q115 0 182 87t67 222z M459 845q0 -42 -18.5 -69t-56.5 -27q-27 0 -47.5 16.5t-37.5 33.5t-33 17q-40 0 -40 -55v-8h-36v9q0 39 19 66t56 27q28 0 50 -16.5t38.5 -33.5t32.5 -17q36 0 36 56v7h37v-6z" />
<glyph unicode="&#xd6;" horiz-adv-x="669" d="M583 342q0 123 -63.5 212.5t-179.5 89.5q-115 0 -181.5 -89t-66.5 -220q0 -79 25.5 -146t82 -111.5t134.5 -44.5q115 0 182 87t67 222zM632 344q0 -147 -80.5 -251t-218.5 -104q-132 0 -211 99t-79 245q0 148 82.5 251.5t215.5 103.5t212 -98.5t79 -245.5zM210 803 q0 12 8.5 21t21.5 9t21.5 -9t8.5 -21t-8.5 -21.5t-21.5 -9.5q-12 0 -21 9.5t-9 21.5zM404 803q0 12 8.5 21t20.5 9q13 0 21.5 -9t8.5 -21t-8.5 -21.5t-21.5 -9.5q-12 0 -20.5 9.5t-8.5 21.5z" />
<glyph unicode="&#xd7;" horiz-adv-x="630" d="M531 456l-192 -194l192 -194l-27 -27l-191 194l-191 -194l-27 27l191 194l-191 194l27 27l191 -194l191 194z" />
<glyph unicode="&#xd8;" horiz-adv-x="653" d="M621 344q0 -147 -80.5 -251t-218.5 -104q-98 0 -169 57l-47 -68l-34 22l51 74q-91 97 -91 259q0 148 82.5 251.5t215.5 103.5q97 0 172 -62l50 73l34 -22l-54 -79q89 -98 89 -254zM572 342q0 133 -67 217l-327 -476q61 -50 145 -50q115 0 182 87t67 222zM81 335 q0 -140 68 -223l328 478q-62 54 -148 54q-115 0 -181.5 -89t-66.5 -220z" />
<glyph unicode="&#xd9;" horiz-adv-x="605" d="M535 224q0 -116 -64.5 -175t-169.5 -59q-101 0 -166 58.5t-65 173.5v455h48v-453q0 -95 51 -143t134 -48q84 0 134 48.5t50 142.5v453h48v-453zM340 734h-41l-90 155h56z" />
<glyph unicode="&#xda;" horiz-adv-x="605" d="M535 224q0 -116 -64.5 -175t-169.5 -59q-101 0 -166 58.5t-65 173.5v455h48v-453q0 -95 51 -143t134 -48q84 0 134 48.5t50 142.5v453h48v-453zM408 889l-89 -155h-41l75 155h55z" />
<glyph unicode="&#xdb;" horiz-adv-x="605" d="M535 224q0 -116 -64.5 -175t-169.5 -59q-101 0 -166 58.5t-65 173.5v455h48v-453q0 -95 51 -143t134 -48q84 0 134 48.5t50 142.5v453h48v-453zM417 733h-38l-75 119l-75 -119h-39l87 155h53z" />
<glyph unicode="&#xdc;" horiz-adv-x="605" d="M535 224q0 -116 -64.5 -175t-169.5 -59q-101 0 -166 58.5t-65 173.5v455h48v-453q0 -95 51 -143t134 -48q84 0 134 48.5t50 142.5v453h48v-453zM430 799q0 -12 -8.5 -21.5t-20.5 -9.5t-21 9.5t-9 21.5t8.5 21t21.5 9q12 0 20.5 -9t8.5 -21zM237 799q0 -12 -8.5 -21.5 t-20.5 -9.5q-13 0 -21.5 9.5t-8.5 21.5t8.5 21t21.5 9q12 0 20.5 -9t8.5 -21z" />
<glyph unicode="&#xdd;" horiz-adv-x="481" d="M494 677l-229 -389v-288h-48v288q-6 9 -231 389h54l202 -344l197 344h55zM354 889l-90 -155h-41l75 155h56z" />
<glyph unicode="&#xde;" horiz-adv-x="479" d="M446 353q0 -88 -59 -148t-157 -60h-112v-145h-48v677h48v-135h114q101 0 157.5 -53.5t56.5 -135.5zM396 347q0 68 -43.5 110.5t-122.5 42.5h-112v-313h114q74 0 119 46.5t45 113.5z" />
<glyph unicode="&#xdf;" horiz-adv-x="529" d="M340 417q72 -13 111 -70.5t39 -131.5q0 -90 -52.5 -157.5t-143.5 -67.5q-55 0 -129 36l15 37q72 -33 115 -33q70 0 109.5 54t39.5 127t-39.5 125.5t-110.5 52.5h-106v40h77q58 0 92 44.5t34 103.5q0 63 -40.5 103.5t-101.5 40.5q-54 0 -94 -35.5t-40 -94.5v-591h-45v592 q0 76 55 123.5t126 47.5q85 0 135.5 -54.5t50.5 -129.5q0 -50 -25.5 -95t-71.5 -67z" />
<glyph unicode="&#xe0;" horiz-adv-x="448" d="M384 0h-43v88q-23 -43 -71 -70t-99 -27q-65 0 -104.5 35t-39.5 95q0 80 73.5 123t239.5 46q-6 100 -38 134.5t-97 34.5q-69 0 -135 -31l-12 37q79 35 148 35q87 0 132.5 -45.5t45.5 -170.5v-284zM340 181v74q-146 -3 -206.5 -36t-60.5 -95q0 -45 30.5 -69t73.5 -24 q65 0 114 41.5t49 108.5zM257 554h-41l-90 155h56z" />
<glyph unicode="&#xe1;" horiz-adv-x="448" d="M384 0h-43v88q-23 -43 -71 -70t-99 -27q-65 0 -104.5 35t-39.5 95q0 80 73.5 123t239.5 46q-6 100 -38 134.5t-97 34.5q-69 0 -135 -31l-12 37q79 35 148 35q87 0 132.5 -45.5t45.5 -170.5v-284zM340 181v74q-146 -3 -206.5 -36t-60.5 -95q0 -45 30.5 -69t73.5 -24 q65 0 114 41.5t49 108.5zM319 709l-89 -155h-41l75 155h55z" />
<glyph unicode="&#xe2;" horiz-adv-x="448" d="M384 0h-43v88q-23 -43 -71 -70t-99 -27q-65 0 -104.5 35t-39.5 95q0 80 73.5 123t239.5 46q-6 100 -38 134.5t-97 34.5q-69 0 -135 -31l-12 37q79 35 148 35q87 0 132.5 -45.5t45.5 -170.5v-284zM340 181v74q-146 -3 -206.5 -36t-60.5 -95q0 -45 30.5 -69t73.5 -24 q65 0 114 41.5t49 108.5zM330 554h-38l-75 119l-75 -119h-39l87 155h53z" />
<glyph unicode="&#xe3;" horiz-adv-x="448" d="M384 0h-43v88q-23 -43 -71 -70t-99 -27q-65 0 -104.5 35t-39.5 95q0 80 73.5 123t239.5 46q-6 100 -38 134.5t-97 34.5q-69 0 -135 -31l-12 37q79 35 148 35q87 0 132.5 -45.5t45.5 -170.5v-284zM340 181v74q-146 -3 -206.5 -36t-60.5 -95q0 -45 30.5 -69t73.5 -24 q65 0 114 41.5t49 108.5zM352 668q0 -42 -18.5 -69t-56.5 -27q-27 0 -48.5 17t-38 33.5t-32.5 16.5q-39 0 -39 -55v-8h-37v9q0 39 19.5 66t56.5 27q29 0 51 -17t38 -33.5t31 -16.5q37 0 37 56v7h37v-6z" />
<glyph unicode="&#xe4;" horiz-adv-x="448" d="M384 0h-43v88q-23 -43 -71 -70t-99 -27q-65 0 -104.5 35t-39.5 95q0 80 73.5 123t239.5 46q-6 100 -38 134.5t-97 34.5q-69 0 -135 -31l-12 37q79 35 148 35q87 0 132.5 -45.5t45.5 -170.5v-284zM340 181v74q-146 -3 -206.5 -36t-60.5 -95q0 -45 30.5 -69t73.5 -24 q65 0 114 41.5t49 108.5zM340 649q0 -12 -8.5 -21.5t-20.5 -9.5t-21 9.5t-9 21.5t8.5 21t21.5 9q12 0 20.5 -9t8.5 -21zM147 649q0 -12 -8.5 -21.5t-20.5 -9.5q-13 0 -21.5 9.5t-8.5 21.5t8.5 21t21.5 9q12 0 20.5 -9t8.5 -21z" />
<glyph unicode="&#xe5;" horiz-adv-x="448" d="M384 0h-43v88q-23 -43 -71 -70t-99 -27q-65 0 -104.5 35t-39.5 95q0 80 73.5 123t239.5 46q-6 100 -38 134.5t-97 34.5q-69 0 -135 -31l-12 37q79 35 148 35q87 0 132.5 -45.5t45.5 -170.5v-284zM340 181v74q-146 -3 -206.5 -36t-60.5 -95q0 -45 30.5 -69t73.5 -24 q65 0 114 41.5t49 108.5zM298 627q0 -37 -26 -60.5t-61 -23.5q-34 0 -60 23.5t-26 60.5q0 38 25.5 61.5t60.5 23.5t61 -23.5t26 -61.5zM263 627q0 24 -15 39t-37 15q-21 0 -36.5 -15t-15.5 -39q0 -23 15.5 -38t36.5 -15q22 0 37 15t15 38z" />
<glyph unicode="&#xe6;" horiz-adv-x="766" d="M726 247l-343 -1v-15q0 -99 44.5 -149.5t119.5 -50.5q73 0 152 53l20 -32q-85 -62 -176 -62q-62 0 -109.5 31t-70.5 92q-20 -56 -70 -89t-113 -33q-67 0 -110 33.5t-43 93.5q0 80 72.5 121t240.5 44v11q0 96 -35 130.5t-100 34.5q-69 0 -135 -31l-12 37q79 35 148 35 q146 0 165 -131q20 57 66 93.5t108 36.5q89 0 135 -66t46 -176v-10zM180 31q67 0 113.5 40t46.5 110v67q-147 -2 -207 -33.5t-60 -93.5q0 -38 29 -64t78 -26zM543 459q-67 0 -109 -52.5t-49 -122.5h294q0 74 -34.5 124.5t-101.5 50.5z" />
<glyph unicode="&#xe7;" horiz-adv-x="411" d="M334 -108q0 -37 -26.5 -56.5t-67.5 -19.5q-50 0 -94 21l14 31q43 -18 80 -18q23 0 38 11t15 30q0 11 -6.5 19.5t-15.5 13.5t-22 9t-22 5.5t-21 3t-13 1.5l22 50q-81 13 -129.5 80t-48.5 164q0 106 67.5 184.5t168.5 78.5q58 0 112 -25l-14 -39q-49 23 -96 23 q-82 0 -137.5 -63t-55.5 -159q0 -91 47.5 -149t124.5 -58q59 0 119 30q10 -24 14 -36q-50 -27 -112 -32l-22 -2l-6 -12q-4 -8 -5 -11q92 -17 92 -75z" />
<glyph unicode="&#xe8;" d="M437 241h-355v-10q0 -98 48 -149t123 -51t155 53q8 -16 20 -32q-85 -62 -178 -62q-91 0 -152 62.5t-61 183.5q0 103 59 183t155 80q89 0 137.5 -66t48.5 -176v-16zM390 279q-1 82 -37 131t-104 49q-67 0 -112 -54t-52 -126h305zM276 554h-41l-90 155h56z" />
<glyph unicode="&#xe9;" d="M437 241h-355v-10q0 -98 48 -149t123 -51t155 53q8 -16 20 -32q-85 -62 -178 -62q-91 0 -152 62.5t-61 183.5q0 103 59 183t155 80q89 0 137.5 -66t48.5 -176v-16zM390 279q-1 82 -37 131t-104 49q-67 0 -112 -54t-52 -126h305zM362 709l-89 -155h-41l75 155h55z" />
<glyph unicode="&#xea;" d="M437 241h-355v-10q0 -98 48 -149t123 -51t155 53q8 -16 20 -32q-85 -62 -178 -62q-91 0 -152 62.5t-61 183.5q0 103 59 183t155 80q89 0 137.5 -66t48.5 -176v-16zM390 279q-1 82 -37 131t-104 49q-67 0 -112 -54t-52 -126h305zM360 554h-38l-75 119l-75 -119h-39l87 155 h53z" />
<glyph unicode="&#xeb;" d="M437 241h-355v-10q0 -98 48 -149t123 -51t155 53l20 -32q-85 -62 -178 -62q-91 0 -152 62.5t-61 183.5q0 103 59 183t155 80q89 0 137.5 -66t48.5 -176v-16zM249 459q-67 0 -112 -54t-52 -126h305q-1 82 -37 131t-104 49zM122 649q0 12 8.5 21t21.5 9q12 0 20.5 -9 t8.5 -21t-8.5 -21.5t-20.5 -9.5q-13 0 -21.5 9.5t-8.5 21.5zM315 649q0 12 8.5 21t21.5 9q12 0 20.5 -9t8.5 -21t-8.5 -21.5t-20.5 -9.5t-21 9.5t-9 21.5z" />
<glyph unicode="&#xec;" horiz-adv-x="166" d="M105 0h-45v489h45v-489zM103 554h-41l-89 155h55z" />
<glyph unicode="&#xed;" horiz-adv-x="166" d="M105 0h-45v489h45v-489zM192 709l-89 -155h-41l75 155h55z" />
<glyph unicode="&#xee;" horiz-adv-x="166" d="M105 0h-45v489h45v-489zM197 554h-39l-75 119l-75 -119h-38l87 155h52z" />
<glyph unicode="&#xef;" horiz-adv-x="166" d="M105 0h-45v489h45v-489zM130 649q0 12 8.5 21t21.5 9q12 0 20.5 -9t8.5 -21t-8.5 -21.5t-20.5 -9.5t-21 9.5t-9 21.5zM-23 649q0 12 8.5 21t21.5 9q12 0 20.5 -9t8.5 -21t-8.5 -21.5t-20.5 -9.5q-13 0 -21.5 9.5t-8.5 21.5z" />
<glyph unicode="&#xf0;" horiz-adv-x="529" d="M480 270q0 -138 -68 -209.5t-152 -71.5q-104 0 -163 77t-59 179q0 101 61 175.5t162 74.5q102 0 168 -97q-36 160 -144 241q-37 -21 -113 -61l-22 32l100 52q-66 36 -155 45l5 37q99 -4 189 -60l98 53l10 -16q7 -11 10 -17l-84 -45q77 -66 117 -168.5t40 -220.5zM437 261 q0 78 -48 137t-127 59q-84 0 -131 -63.5t-47 -148.5q0 -87 46 -152t129 -65q70 0 124 62t54 171z" />
<glyph unicode="&#xf1;" horiz-adv-x="502" d="M436 0h-44v291q0 168 -127 168q-68 0 -109 -45t-41 -112v-302h-45v489h44v-88q22 47 65 73.5t97 26.5q74 0 117 -46.5t43 -146.5v-308zM391 668q0 -42 -18.5 -69t-56.5 -27q-34 0 -68 33.5t-51 33.5q-39 0 -39 -55v-8h-37v9q0 39 19.5 66t56.5 27q29 0 51 -17t38 -33.5 t31 -16.5q37 0 37 56v7h37v-6z" />
<glyph unicode="&#xf2;" horiz-adv-x="521" d="M484 245q0 -105 -60.5 -180.5t-163.5 -75.5q-108 0 -165.5 75.5t-57.5 178.5q0 106 61.5 182t162.5 76q102 0 162.5 -73.5t60.5 -182.5zM438 244q0 88 -47.5 153t-130.5 65q-82 0 -129.5 -63t-47.5 -156q0 -88 47 -152t131 -64q81 0 129 62t48 155zM286 554h-41l-89 155 h55z" />
<glyph unicode="&#xf3;" horiz-adv-x="521" d="M484 245q0 -105 -60.5 -180.5t-163.5 -75.5q-108 0 -165.5 75.5t-57.5 178.5q0 106 61.5 182t162.5 76q102 0 162.5 -73.5t60.5 -182.5zM438 244q0 88 -47.5 153t-130.5 65q-82 0 -129.5 -63t-47.5 -156q0 -88 47 -152t131 -64q81 0 129 62t48 155zM364 709l-90 -155h-41 l75 155h56z" />
<glyph unicode="&#xf4;" horiz-adv-x="521" d="M484 245q0 -105 -60.5 -180.5t-163.5 -75.5q-108 0 -165.5 75.5t-57.5 178.5q0 106 61.5 182t162.5 76q102 0 162.5 -73.5t60.5 -182.5zM438 244q0 88 -47.5 153t-130.5 65q-82 0 -129.5 -63t-47.5 -156q0 -88 47 -152t131 -64q81 0 129 62t48 155zM372 554h-39l-75 119 l-75 -119h-39l88 155h52z" />
<glyph unicode="&#xf5;" horiz-adv-x="521" d="M484 245q0 -105 -60.5 -180.5t-163.5 -75.5q-108 0 -165.5 75.5t-57.5 178.5q0 106 61.5 182t162.5 76q102 0 162.5 -73.5t60.5 -182.5zM438 244q0 88 -47.5 153t-130.5 65q-82 0 -129.5 -63t-47.5 -156q0 -88 47 -152t131 -64q81 0 129 62t48 155zM393 668 q0 -42 -18.5 -69t-56.5 -27q-27 0 -48 17t-37.5 33.5t-32.5 16.5q-40 0 -40 -55v-8h-36v9q0 39 19 66t56 27q29 0 51 -17t38.5 -33.5t31.5 -16.5q36 0 36 56v7h37v-6z" />
<glyph unicode="&#xf6;" horiz-adv-x="521" d="M438 244q0 88 -47.5 153t-130.5 65q-82 0 -129.5 -63t-47.5 -156q0 -88 47 -152t131 -64q81 0 129 62t48 155zM484 245q0 -105 -60.5 -180.5t-163.5 -75.5q-108 0 -165.5 75.5t-57.5 178.5q0 106 61.5 182t162.5 76q102 0 162.5 -73.5t60.5 -182.5zM132 649q0 12 8.5 21 t21.5 9t21.5 -9t8.5 -21t-8.5 -21.5t-21.5 -9.5q-12 0 -21 9.5t-9 21.5zM326 649q0 12 8.5 21t20.5 9q13 0 21.5 -9t8.5 -21t-8.5 -21.5t-21.5 -9.5q-12 0 -20.5 9.5t-8.5 21.5z" />
<glyph unicode="&#xf7;" horiz-adv-x="630" d="M69 280h492v-39h-492v39zM345 447q0 -14 -9 -23t-22 -9q-14 0 -22.5 9t-8.5 23t8.5 23.5t22.5 9.5q13 0 22 -10t9 -23zM345 73q0 -14 -9 -23t-22 -9q-14 0 -22.5 9t-8.5 23t8.5 23.5t22.5 9.5q13 0 22 -10t9 -23z" />
<glyph unicode="&#xf8;" horiz-adv-x="521" d="M456 486q-13 -18 -37 -54q65 -73 65 -187q0 -105 -60.5 -180.5t-163.5 -75.5q-72 0 -122 36l-33 -48q-3 2 -31 22q30 44 34 49q-71 72 -71 195q0 106 61.5 182t162.5 76q75 0 129 -43l35 50q3 -2 31 -22zM83 243q0 -95 51 -157l232 337q-46 39 -106 39q-82 0 -129.5 -63 t-47.5 -156zM438 244q0 88 -46 149l-230 -334q42 -32 99 -32q81 0 129 62t48 155z" />
<glyph unicode="&#xf9;" horiz-adv-x="499" d="M436 192q0 -104 -54.5 -153.5t-134.5 -49.5q-78 0 -131 48.5t-53 153.5v298h45v-298q0 -85 41.5 -124.5t100.5 -39.5q60 0 100 38.5t40 125.5v298h46v-297zM281 554h-41l-90 155h56z" />
<glyph unicode="&#xfa;" horiz-adv-x="499" d="M436 192q0 -104 -54.5 -153.5t-134.5 -49.5q-78 0 -131 48.5t-53 153.5v298h45v-298q0 -85 41.5 -124.5t100.5 -39.5q60 0 100 38.5t40 125.5v298h46v-297zM353 709l-90 -155h-41l75 155h56z" />
<glyph unicode="&#xfb;" horiz-adv-x="499" d="M436 192q0 -104 -54.5 -153.5t-134.5 -49.5q-78 0 -131 48.5t-53 153.5v298h45v-298q0 -85 41.5 -124.5t100.5 -39.5q60 0 100 38.5t40 125.5v298h46v-297zM359 554h-38l-75 119l-75 -119h-39l87 155h53z" />
<glyph unicode="&#xfc;" horiz-adv-x="499" d="M436 192q0 -104 -54.5 -153.5t-134.5 -49.5q-78 0 -131 48.5t-53 153.5v298h45v-298q0 -85 41.5 -124.5t100.5 -39.5q60 0 100 38.5t40 125.5v298h46v-297zM376 649q0 -12 -8.5 -21.5t-21.5 -9.5q-12 0 -20.5 9.5t-8.5 21.5t8.5 21t20.5 9q13 0 21.5 -9t8.5 -21zM183 649 q0 -12 -8.5 -21.5t-21.5 -9.5q-12 0 -21 9.5t-9 21.5t8.5 21t21.5 9t21.5 -9t8.5 -21z" />
<glyph unicode="&#xfd;" horiz-adv-x="436" d="M439 489l-262 -661h-51l73 178l-202 483h51q166 -402 176 -429l164 429h51zM322 709l-89 -155h-41l75 155h55z" />
<glyph unicode="&#xfe;" horiz-adv-x="492" d="M458 264q0 -110 -64.5 -190t-174.5 -80q-56 0 -114 22v-188h-45v927h44v-365q23 52 69 81t100 29q77 0 131 -61.5t54 -174.5zM412 267q0 86 -41.5 139t-105.5 53q-67 0 -113.5 -49t-46.5 -125v-231q55 -21 106 -21q93 0 147 66t54 168z" />
<glyph unicode="&#xff;" horiz-adv-x="436" d="M439 489l-266 -673h-51l77 190l-202 483h51l156 -379q9 -20 20 -50l164 429h51zM351 649q0 -12 -8.5 -21.5t-21.5 -9.5q-12 0 -20.5 9.5t-8.5 21.5t8.5 21t20.5 9q13 0 21.5 -9t8.5 -21zM158 649q0 -12 -8.5 -21.5t-21.5 -9.5q-12 0 -21 9.5t-9 21.5t8.5 21t21.5 9 t21.5 -9t8.5 -21z" />
<glyph unicode="&#x152;" horiz-adv-x="931" d="M30 332q0 150 80 252.5t215 102.5q67 0 119 -32t78 -87v109h368v-43h-320v-275h288v-42h-288v-275h327v-42h-375v118q-28 -60 -81 -94t-124 -34q-134 0 -210.5 98t-76.5 244zM79 334q0 -80 24 -145.5t79.5 -110t135.5 -44.5q88 0 146 61t58 149v195q0 90 -55.5 147 t-142.5 57q-116 0 -180.5 -88.5t-64.5 -220.5z" />
<glyph unicode="&#x153;" horiz-adv-x="863" d="M823 241h-356v-10q0 -98 48 -149.5t124 -51.5q78 0 155 53l20 -32q-83 -62 -179 -62q-68 0 -119.5 36t-72.5 107q-23 -65 -72.5 -104t-116.5 -39q-74 0 -125 39t-71.5 94.5t-20.5 121.5q0 109 61.5 182t156.5 73q71 0 121.5 -40.5t71.5 -111.5q23 68 72 110.5t117 42.5 q89 0 137.5 -66.5t48.5 -176.5v-16zM425 244q0 93 -46 154.5t-125 61.5q-78 0 -124.5 -60t-46.5 -156q0 -89 44 -153t127 -64q76 0 123.5 61.5t47.5 155.5zM635 460q-67 0 -112.5 -54.5t-53.5 -126.5h308q-1 81 -38 131t-104 50z" />
<glyph unicode="&#x178;" horiz-adv-x="481" d="M494 677l-229 -389v-288h-48v288q-6 9 -231 389h54l202 -344l197 344h55zM369 804q0 -12 -8.5 -21.5t-21.5 -9.5q-12 0 -20.5 9.5t-8.5 21.5t8.5 21t20.5 9q13 0 21.5 -9t8.5 -21zM176 804q0 -12 -8.5 -21.5t-21.5 -9.5q-12 0 -21 9.5t-9 21.5t8.5 21t21.5 9t21.5 -9 t8.5 -21z" />
<glyph unicode="&#x2c6;" horiz-adv-x="538" d="M382 554h-38l-75 119l-75 -119h-39l87 155h53z" />
<glyph unicode="&#x2dc;" horiz-adv-x="538" d="M404 668q0 -42 -18.5 -69t-56.5 -27q-27 0 -48.5 17t-38 33.5t-32.5 16.5q-39 0 -39 -55v-8h-37v9q0 39 19.5 66t56.5 27q29 0 51 -17t38 -33.5t31 -16.5q37 0 37 56v7h37v-6z" />
<glyph unicode="&#x2000;" horiz-adv-x="444" />
<glyph unicode="&#x2001;" horiz-adv-x="889" />
<glyph unicode="&#x2002;" horiz-adv-x="444" />
<glyph unicode="&#x2003;" horiz-adv-x="889" />
<glyph unicode="&#x2004;" horiz-adv-x="296" />
<glyph unicode="&#x2005;" horiz-adv-x="222" />
<glyph unicode="&#x2006;" horiz-adv-x="148" />
<glyph unicode="&#x2007;" horiz-adv-x="148" />
<glyph unicode="&#x2008;" horiz-adv-x="111" />
<glyph unicode="&#x2009;" horiz-adv-x="177" />
<glyph unicode="&#x200a;" horiz-adv-x="49" />
<glyph unicode="&#x2010;" horiz-adv-x="257" d="M234 239h-215v42h215v-42z" />
<glyph unicode="&#x2011;" horiz-adv-x="257" d="M234 239h-215v42h215v-42z" />
<glyph unicode="&#x2012;" horiz-adv-x="257" d="M234 239h-215v42h215v-42z" />
<glyph unicode="&#x2013;" horiz-adv-x="588" d="M520 241h-452v39h452v-39z" />
<glyph unicode="&#x2014;" horiz-adv-x="1038" d="M970 241h-902v39h902v-39z" />
<glyph unicode="&#x2018;" horiz-adv-x="235" d="M69 538l56 216h41l-49 -216h-48z" />
<glyph unicode="&#x2019;" horiz-adv-x="235" d="M166 754l-57 -216h-40l49 216h48z" />
<glyph unicode="&#x201a;" horiz-adv-x="257" d="M167 60l-57 -216h-40l49 216h48z" />
<glyph unicode="&#x201c;" horiz-adv-x="353" d="M296 754l-49 -216h-48l56 216h41zM154 754l-49 -216h-48l56 216h41z" />
<glyph unicode="&#x201d;" horiz-adv-x="353" d="M296 755l-56 -217h-41l49 217h48zM154 755l-57 -217h-40l49 217h48z" />
<glyph unicode="&#x201e;" horiz-adv-x="385" d="M301 60l-56 -216h-40l49 216h47zM159 60l-56 -216h-41l49 216h48z" />
<glyph unicode="&#x2022;" horiz-adv-x="296" d="M148 322q31 0 48 -19.5t17 -46.5q0 -28 -17.5 -48t-47.5 -20q-31 0 -48 19.5t-17 46.5t17.5 47.5t47.5 20.5z" />
<glyph unicode="&#x2026;" horiz-adv-x="678" d="M146 26q0 -14 -9.5 -24t-23.5 -10q-15 0 -24 10t-9 24t9 24t24 10q14 0 23.5 -10t9.5 -24zM372 26q0 -14 -9.5 -24t-23.5 -10q-15 0 -24 10t-9 24t9 24t24 10q14 0 23.5 -10t9.5 -24zM598 26q0 -14 -9.5 -24t-23.5 -10q-15 0 -24 10t-9 24t9 24t24 10q14 0 23.5 -10 t9.5 -24z" />
<glyph unicode="&#x202f;" horiz-adv-x="177" />
<glyph unicode="&#x2039;" horiz-adv-x="330" d="M270 451l-152 -186l152 -186l-32 -24l-178 210l178 210z" />
<glyph unicode="&#x203a;" horiz-adv-x="330" d="M212 265l-152 186l32 24l178 -210l-178 -210l-32 24z" />
<glyph unicode="&#x205f;" horiz-adv-x="222" />
<glyph unicode="&#x20ac;" horiz-adv-x="697" d="M419 675q151 0 245 -98l-18 -40q-95 95 -226 95q-106 0 -175 -60t-93 -159h443l-15 -40h-436q-2 -24 -2 -33v-10q0 -28 3 -46h395l-15 -40h-372q25 -98 95 -156.5t178 -58.5q110 0 217 69l6 -46q-44 -30 -106.5 -47t-118.5 -17q-126 0 -209.5 71.5t-110.5 184.5h-92 q3 6 8 19.5t8 20.5h70q-3 22 -3 45q0 14 2 44h-85q8 24 16 40h75q27 115 109.5 188.5t206.5 73.5z" />
<glyph unicode="&#x2122;" horiz-adv-x="470" d="M224 651h-71v-188h-29v188h-71v26h171v-26zM455 463h-28v155l-58 -109h-21l-57 109v-155h-27v214h28l67 -131l69 131h27v-214z" />
<glyph unicode="&#xe000;" horiz-adv-x="490" d="M0 490h490v-490h-490v490z" />
<glyph unicode="&#xfb01;" horiz-adv-x="419" d="M252 449h-117v-449h-44v449h-81v40h81v109q0 70 34 114t97 44q18 0 32 -3l-2 -41q-12 2 -29 2q-88 0 -88 -117v-108h117v-40zM368 655q0 -13 -9 -22.5t-23 -9.5q-13 0 -22.5 9.5t-9.5 22.5q0 14 9.5 23.5t22.5 9.5q14 0 23 -9.5t9 -23.5zM358 0h-44v489h44v-489z" />
<glyph unicode="&#xfb02;" horiz-adv-x="439" d="M252 449h-117v-449h-44v449h-81v40h81v109q0 70 34 114t97 44q18 0 32 -3l-2 -41q-12 2 -29 2q-88 0 -88 -117v-108h117v-40zM369 0h-45v755h45v-755z" />
<glyph unicode="&#xfb03;" horiz-adv-x="690" d="M629 0h-45v489h45v-489zM575 655q0 14 9 23.5t23 9.5t23 -9.5t9 -23.5q0 -13 -9 -22.5t-23 -9.5t-23 9.5t-9 22.5zM514 449h-117v-449h-44v449h-81v40h81v109q0 70 34 114t97 44q18 0 32 -3l-2 -41q-12 2 -29 2q-88 0 -88 -117v-108h117v-40zM252 449h-117v-449h-44v449 h-81v40h81v109q0 70 34 114t97 44q18 0 32 -3l-2 -41q-12 2 -29 2q-88 0 -88 -117v-108h117v-40z" />
<glyph unicode="&#xfb04;" horiz-adv-x="709" d="M639 0h-45v755h45v-755zM514 449h-117v-449h-44v449h-81v40h81v109q0 70 34 114t97 44q18 0 32 -3l-2 -41q-12 2 -29 2q-88 0 -88 -117v-108h117v-40zM252 449h-117v-449h-44v449h-81v40h81v109q0 70 34 114t97 44q18 0 32 -3l-2 -41q-12 2 -29 2q-88 0 -88 -117v-108 h117v-40z" />
</font>
</defs>
</svg>
